<svg width="134" height="146" fill="none" xmlns="http://www.w3.org/2000/svg"><path d="M0 25C0 11.193 11.193 0 25 0h109v146H25c-13.807 0-25-11.193-25-25V25z" fill="#84BD00"/><path fill-rule="evenodd" clip-rule="evenodd" d="M19.532 27.586a.75.75 0 01-.118-1.054L23.04 22l-3.626-4.532a.75.75 0 111.172-.936l4 5a.75.75 0 010 .936l-4 5a.75.75 0 01-1.054.118zM67 53.25a7 7 0 100-14 7 7 0 000 14zm0 17.5c6.766 0 12.25-3.134 12.25-7s-5.484-7-12.25-7-12.25 3.134-12.25 7 5.484 7 12.25 7z" fill="#fff"/><path d="M36.543 95.21c-1.003 0-1.855-.222-2.555-.665a4.274 4.274 0 01-1.603-1.848c-.364-.789-.546-1.701-.546-2.737s.182-1.948.546-2.737a4.274 4.274 0 011.603-1.848c.7-.443 1.552-.665 2.555-.665 1.167 0 2.126.296 2.877.889.756.593 1.276 1.39 1.56 2.394l-1.266.336c-.205-.751-.572-1.344-1.1-1.778-.526-.434-1.217-.651-2.071-.651-.751 0-1.377.17-1.876.511-.5.34-.875.817-1.127 1.428-.252.607-.38 1.314-.385 2.121-.005.803.119 1.51.37 2.121.253.607.63 1.083 1.135 1.428.504.34 1.132.511 1.883.511.854 0 1.545-.217 2.072-.651.527-.439.894-1.031 1.099-1.778l1.267.336c-.285.999-.805 1.797-1.561 2.394-.751.593-1.71.889-2.877.889zm5.966-.21v-7.56h3.22c.191 0 .397.012.616.035.224.019.427.054.61.105.405.107.739.329 1 .665.266.331.4.751.4 1.26 0 .285-.045.532-.134.742-.084.21-.205.392-.364.546a1.51 1.51 0 01-.483.322c.163.028.33.091.497.189.266.145.474.348.623.609.154.261.231.595.231 1.001 0 .513-.123.938-.37 1.274a1.89 1.89 0 01-1.023.686 3.232 3.232 0 01-.602.105c-.22.014-.431.021-.637.021H42.51zm1.26-1.015h2.254c.098 0 .215-.01.35-.028.14-.019.264-.042.371-.07.243-.07.418-.2.525-.392a1.21 1.21 0 00.168-.623c0-.299-.084-.541-.252-.728a1.077 1.077 0 00-.65-.35 1.371 1.371 0 00-.323-.049 7.245 7.245 0 00-.3-.007h-2.143v2.247zm0-3.276h1.876c.13 0 .268-.007.413-.021.145-.019.27-.049.378-.091a.839.839 0 00.47-.392c.102-.187.153-.39.153-.609a1.19 1.19 0 00-.168-.637.835.835 0 00-.497-.385 1.539 1.539 0 00-.504-.091 9.254 9.254 0 00-.35-.014h-1.77v2.24zM54.8 95v-2.737h-1.63c-.192 0-.404-.007-.638-.021a8.13 8.13 0 01-.644-.077 2.589 2.589 0 01-1.386-.721c-.373-.378-.56-.9-.56-1.568 0-.649.175-1.169.525-1.561a2.432 2.432 0 011.31-.77 3.3 3.3 0 01.706-.091c.243-.01.448-.014.616-.014h2.947l.007 7.56H54.8zm-5.089 0l2.01-3.08h1.343L51.055 95h-1.344zm3.367-3.766H54.8v-2.765h-1.722c-.107 0-.25.005-.427.014-.172.01-.338.037-.497.084a1.296 1.296 0 00-.79.665c-.094.177-.14.387-.14.63 0 .35.097.635.293.854.196.215.434.36.714.434.154.037.306.06.455.07.154.01.285.014.392.014zm7.651 3.976c-.747 0-1.407-.161-1.981-.483a3.611 3.611 0 01-1.358-1.344l.994-.644c.275.415.604.735.987.959.383.22.819.329 1.309.329.513 0 .922-.117 1.225-.35.303-.238.455-.558.455-.959 0-.299-.075-.527-.224-.686-.15-.159-.364-.268-.644-.329a4.785 4.785 0 00-1.001-.091h-.784v-1.029h.777c.49 0 .889-.08 1.197-.238.308-.159.462-.43.462-.812 0-.392-.145-.677-.434-.854-.285-.182-.625-.273-1.022-.273-.42 0-.821.089-1.204.266a3.445 3.445 0 00-.987.658l-.756-.847c.392-.401.842-.71 1.351-.924a4.214 4.214 0 011.673-.329c.485 0 .929.086 1.33.259.406.168.728.418.966.749.243.327.364.726.364 1.197 0 .401-.093.758-.28 1.071a2.517 2.517 0 01-.826.819l-.049-.441c.308.075.562.212.763.413.205.196.357.43.455.7.098.27.147.553.147.847 0 .495-.13.92-.392 1.274a2.5 2.5 0 01-1.043.812c-.439.187-.929.28-1.47.28zm6.59 0c-.564 0-1.038-.103-1.42-.308a2.194 2.194 0 01-.862-.826 2.249 2.249 0 01-.287-1.12c0-.397.075-.74.224-1.029.154-.294.37-.537.644-.728.276-.196.605-.35.987-.462.36-.098.761-.182 1.204-.252.448-.075.901-.142 1.358-.203.458-.06.885-.119 1.281-.175l-.448.259c.014-.672-.12-1.169-.406-1.491-.28-.322-.765-.483-1.456-.483-.457 0-.858.105-1.204.315-.34.205-.58.541-.72 1.008l-1.184-.357c.182-.663.535-1.183 1.057-1.561.523-.378 1.211-.567 2.065-.567.686 0 1.274.124 1.764.371.495.243.85.611 1.064 1.106.108.233.175.488.203.763.028.27.042.555.042.854V95H70.12v-1.813l.26.168c-.285.611-.684 1.073-1.198 1.386-.508.313-1.129.469-1.862.469zm.19-1.043c.447 0 .835-.08 1.161-.238.332-.163.598-.376.798-.637.201-.266.332-.555.392-.868a2.86 2.86 0 00.112-.777c.01-.29.014-.511.014-.665l.434.189c-.406.056-.805.11-1.197.161a27.12 27.12 0 00-1.113.168 8.36 8.36 0 00-.945.203c-.205.065-.399.15-.58.252a1.321 1.321 0 00-.435.399 1.039 1.039 0 00-.16.595c0 .205.05.401.153.588.108.187.271.338.49.455.224.117.516.175.875.175zm7.538.833v-6.426h-2.632V87.44h6.51v1.134h-2.632V95h-1.246zm5.204 0l-.008-7.56h1.254v2.737h1.63c.22 0 .444.005.672.014.23.01.427.03.595.063.392.075.735.205 1.03.392.293.187.522.441.685.763.164.317.246.712.246 1.183 0 .653-.17 1.171-.511 1.554-.337.378-.777.63-1.323.756-.187.042-.402.07-.645.084-.238.01-.464.014-.678.014H80.25zm1.245-1.029h1.723c.14 0 .296-.005.469-.014.172-.01.326-.033.462-.07.237-.07.45-.208.636-.413.192-.205.287-.5.287-.882 0-.387-.093-.686-.28-.896a1.287 1.287 0 00-.72-.413 2.469 2.469 0 00-.427-.063 6.883 6.883 0 00-.427-.014h-1.722v2.765zm9.582 1.239c-.765 0-1.416-.17-1.953-.511a3.325 3.325 0 01-1.218-1.421c-.28-.602-.425-1.288-.434-2.058.01-.789.156-1.482.441-2.079a3.308 3.308 0 011.24-1.407c.536-.336 1.182-.504 1.938-.504.798 0 1.484.196 2.058.588a2.83 2.83 0 011.162 1.61l-1.232.371a2.025 2.025 0 00-.777-1.022 2.117 2.117 0 00-1.225-.364c-.518 0-.945.121-1.28.364-.337.238-.587.57-.75.994-.163.42-.247.903-.252 1.449.01.84.203 1.519.581 2.037.383.513.95.77 1.701.77.495 0 .905-.112 1.232-.336.327-.229.574-.558.742-.987l1.26.329c-.261.705-.67 1.244-1.225 1.617s-1.225.56-2.009.56zm9.263-.21v-2.737h-1.63c-.192 0-.404-.007-.638-.021a8.13 8.13 0 01-.644-.077 2.589 2.589 0 01-1.386-.721c-.373-.378-.56-.9-.56-1.568 0-.649.175-1.169.525-1.561a2.432 2.432 0 011.31-.77 3.3 3.3 0 01.706-.091c.243-.01.448-.014.616-.014h2.947l.007 7.56h-1.253zm-5.089 0l2.01-3.08h1.343L96.596 95h-1.344zm3.367-3.766h1.722v-2.765h-1.722c-.107 0-.25.005-.427.014-.172.01-.338.037-.497.084a1.296 1.296 0 00-.79.665c-.094.177-.14.387-.14.63 0 .35.097.635.293.854.196.215.434.36.714.434.154.037.306.06.455.07.154.01.285.014.392.014zM14.304 116.21c-.766 0-1.417-.17-1.953-.511a3.323 3.323 0 01-1.218-1.421c-.28-.602-.425-1.288-.434-2.058.009-.789.156-1.482.44-2.079a3.308 3.308 0 011.24-1.407c.536-.336 1.183-.504 1.939-.504.798 0 1.484.196 2.058.588.578.392.966.929 1.162 1.61l-1.232.371a2.025 2.025 0 00-.777-1.022 2.115 2.115 0 00-1.225-.364c-.518 0-.945.121-1.281.364a2.107 2.107 0 00-.75.994c-.163.42-.247.903-.251 1.449.009.84.203 1.519.58 2.037.383.513.95.77 1.702.77.494 0 .905-.112 1.232-.336.326-.229.574-.558.742-.987l1.26.329c-.262.705-.67 1.244-1.225 1.617-.556.373-1.225.56-2.01.56zm7.458-.21l.007-7.56h1.26v3.64l3.171-3.64h1.617l-3.339 3.78L28.21 116h-1.743l-3.437-3.64V116h-1.267zm10.227.21c-.751 0-1.4-.17-1.946-.511a3.388 3.388 0 01-1.253-1.414c-.294-.602-.44-1.293-.44-2.072 0-.793.148-1.489.447-2.086a3.332 3.332 0 011.267-1.393c.546-.336 1.188-.504 1.925-.504.756 0 1.407.17 1.953.511a3.28 3.28 0 011.253 1.407c.294.597.441 1.286.441 2.065 0 .789-.147 1.484-.44 2.086a3.384 3.384 0 01-1.26 1.407c-.547.336-1.196.504-1.947.504zm0-1.183c.784 0 1.367-.261 1.75-.784s.574-1.199.574-2.03c0-.854-.194-1.533-.58-2.037-.388-.509-.97-.763-1.744-.763-.527 0-.961.119-1.302.357-.34.238-.595.567-.763.987-.168.42-.252.905-.252 1.456 0 .849.196 1.531.588 2.044.392.513.968.77 1.73.77zm5.181.973v-7.56h1.246v3.185h3.976v-3.185h1.246V116h-1.246v-3.192h-3.976V116H37.17zm11.614.21c-.765 0-1.416-.17-1.953-.511a3.323 3.323 0 01-1.218-1.421c-.28-.602-.425-1.288-.434-2.058.01-.789.157-1.482.441-2.079a3.31 3.31 0 011.24-1.407c.536-.336 1.182-.504 1.938-.504.798 0 1.484.196 2.058.588a2.83 2.83 0 011.162 1.61l-1.232.371a2.024 2.024 0 00-.777-1.022 2.114 2.114 0 00-1.225-.364c-.518 0-.945.121-1.28.364a2.108 2.108 0 00-.75.994c-.163.42-.247.903-.252 1.449.01.84.203 1.519.581 2.037.383.513.95.77 1.701.77.495 0 .906-.112 1.232-.336.327-.229.574-.558.742-.987l1.26.329c-.261.705-.67 1.244-1.225 1.617s-1.225.56-2.009.56zm5.44 3.15l1.462-3.976.021 1.176-3.304-8.12h1.31l2.59 6.531h-.449l2.43-6.531h1.266l-4.116 10.92h-1.21zm5.51-3.36v-1.071c.28.051.491.042.636-.028a.681.681 0 00.33-.385 3.43 3.43 0 00.181-.7c.08-.443.147-.938.203-1.484.06-.546.114-1.143.161-1.792.052-.653.098-1.353.14-2.1h5.285V116h-1.246v-6.377H62.52c-.028.429-.063.87-.105 1.323-.037.453-.077.894-.119 1.323a30.88 30.88 0 01-.14 1.19 12.14 12.14 0 01-.154.945c-.088.457-.212.824-.37 1.099a1.091 1.091 0 01-.687.525c-.299.084-.702.075-1.21-.028zm8.902 0l-.007-7.56h1.253v2.737h1.631c.22 0 .444.005.672.014.229.009.427.03.595.063.392.075.735.205 1.03.392.293.187.522.441.685.763.164.317.245.712.245 1.183 0 .653-.17 1.171-.51 1.554-.337.378-.778.63-1.324.756a4.01 4.01 0 01-.644.084c-.238.009-.464.014-.679.014h-2.947zm1.246-1.029h1.722c.14 0 .297-.005.47-.014a2.18 2.18 0 00.461-.07c.238-.07.45-.208.637-.413.192-.205.287-.499.287-.882 0-.387-.093-.686-.28-.896a1.286 1.286 0 00-.72-.413 2.413 2.413 0 00-.428-.063 7.121 7.121 0 00-.427-.014h-1.722v2.765zM78.281 116v-6.426h-2.632v-1.134h6.51v1.134h-2.632V116H78.28zm7.106.21c-.565 0-1.038-.103-1.421-.308a2.192 2.192 0 01-.861-.826 2.25 2.25 0 01-.287-1.12c0-.397.075-.74.224-1.029a2.01 2.01 0 01.644-.728c.275-.196.604-.35.987-.462.36-.098.76-.182 1.204-.252.448-.075.9-.142 1.358-.203.457-.061.884-.119 1.28-.175l-.447.259c.014-.672-.121-1.169-.406-1.491-.28-.322-.766-.483-1.456-.483-.457 0-.859.105-1.204.315-.34.205-.581.541-.721 1.008l-1.183-.357c.182-.663.534-1.183 1.057-1.561.522-.378 1.21-.567 2.065-.567.686 0 1.274.124 1.764.371.495.243.85.611 1.064 1.106a2.4 2.4 0 01.203.763c.028.271.042.555.042.854V116h-1.106v-1.813l.259.168c-.285.611-.684 1.073-1.197 1.386-.509.313-1.13.469-1.862.469zm.189-1.043c.448 0 .835-.079 1.162-.238.331-.163.597-.376.798-.637.2-.266.331-.555.392-.868a2.86 2.86 0 00.112-.777c.01-.289.014-.511.014-.665l.434.189c-.406.056-.805.11-1.197.161-.392.051-.763.107-1.113.168a8.36 8.36 0 00-.945.203 3.037 3.037 0 00-.581.252 1.328 1.328 0 00-.434.399 1.04 1.04 0 00-.161.595c0 .205.051.401.154.588.107.187.27.338.49.455.224.117.516.175.875.175zm5.53.833v-7.56h1.246v3.185h3.976v-3.185h1.246V116h-1.246v-3.192h-3.976V116h-1.246zm10.431 0v-6.426h-2.632v-1.134h6.51v1.134h-2.632V116h-1.246zm8.286.21c-.751 0-1.4-.17-1.946-.511a3.39 3.39 0 01-1.253-1.414c-.294-.602-.441-1.293-.441-2.072 0-.793.149-1.489.448-2.086a3.335 3.335 0 011.267-1.393c.546-.336 1.188-.504 1.925-.504.756 0 1.407.17 1.953.511.546.336.964.805 1.253 1.407.294.597.441 1.286.441 2.065 0 .789-.147 1.484-.441 2.086a3.384 3.384 0 01-1.26 1.407c-.546.336-1.195.504-1.946.504zm0-1.183c.784 0 1.367-.261 1.75-.784s.574-1.199.574-2.03c0-.854-.194-1.533-.581-2.037-.387-.509-.968-.763-1.743-.763-.527 0-.961.119-1.302.357a2.136 2.136 0 00-.763.987c-.168.42-.252.905-.252 1.456 0 .849.196 1.531.588 2.044.392.513.968.77 1.729.77zm5.181.973v-7.56h1.071l2.87 5.866 2.87-5.866h1.071V116h-1.204v-4.963L119.274 116h-.658l-2.408-4.963V116h-1.204z" fill="#fff"/></svg>