<svg width="20" height="20" fill="none" xmlns="http://www.w3.org/2000/svg"><path d="M1 2.25a.75.75 0 000 1.5v-1.5zm0 7a.75.75 0 000 1.5v-1.5zm9 1.5a.75.75 0 000-1.5v1.5zm9 0a.75.75 0 000-1.5v1.5zm0-7a.75.75 0 000-1.5v1.5zm-9 12.5a.75.75 0 000 1.5v-1.5zm9 1.5a.75.75 0 000-1.5v1.5zm-18-1.5a.75.75 0 000 1.5v-1.5zm0-12.5h7v-1.5H1v1.5zm0 7h9v-1.5H1v1.5zm16 0h2v-1.5h-2v1.5zm-5-7h7v-1.5h-7v1.5zm-2 14h9v-1.5h-9v1.5zm-9 0h2v-1.5H1v1.5zM6.25 17c0 .69-.56 1.25-1.25 1.25v1.5A2.75 2.75 0 007.75 17h-1.5zM5 18.25c-.69 0-1.25-.56-1.25-1.25h-1.5A2.75 2.75 0 005 19.75v-1.5zM3.75 17c0-.69.56-1.25 1.25-1.25v-1.5A2.75 2.75 0 002.25 17h1.5zM5 15.75c.69 0 1.25.56 1.25 1.25h1.5A2.75 2.75 0 005 14.25v1.5zM16.25 10c0 .69-.56 1.25-1.25 1.25v1.5A2.75 2.75 0 0017.75 10h-1.5zM15 11.25c-.69 0-1.25-.56-1.25-1.25h-1.5A2.75 2.75 0 0015 12.75v-1.5zM13.75 10c0-.69.56-1.25 1.25-1.25v-1.5A2.75 2.75 0 0012.25 10h1.5zM15 8.75c.69 0 1.25.56 1.25 1.25h1.5A2.75 2.75 0 0015 7.25v1.5zM11.25 3c0 .69-.56 1.25-1.25 1.25v1.5A2.75 2.75 0 0012.75 3h-1.5zM10 4.25c-.69 0-1.25-.56-1.25-1.25h-1.5A2.75 2.75 0 0010 5.75v-1.5zM8.75 3c0-.69.56-1.25 1.25-1.25V.25A2.75 2.75 0 007.25 3h1.5zM10 1.75c.69 0 1.25.56 1.25 1.25h1.5A2.75 2.75 0 0010 .25v1.5z" fill="#28303F"/></svg>