<svg width="100" height="100" fill="none" xmlns="http://www.w3.org/2000/svg"><path fill-rule="evenodd" clip-rule="evenodd" d="M50 9.375c-10.93 0-19.791 8.861-19.791 19.792h-2.764c-5.952 0-10.778 4.825-10.778 10.778v36.777c0 5.952 4.826 10.778 10.778 10.778h45.11c5.953 0 10.779-4.826 10.779-10.778V39.945c0-5.953-4.826-10.778-10.779-10.778h-2.763c0-10.931-8.86-19.792-19.792-19.792zm13.542 19.792c0-7.48-6.063-13.542-13.542-13.542-7.478 0-13.541 6.063-13.541 13.542h27.083zm-5.209 29.166a8.333 8.333 0 11-16.666 0 8.333 8.333 0 0116.666 0z" fill="#84BD00"/></svg>