<svg width="99" height="90" fill="none" xmlns="http://www.w3.org/2000/svg"><path d="M72.376 53.641c0-.394.198-.591.198-.986 0-1.972-1.578-3.747-3.55-3.944H51.078L38.653 89.534H61.53L72.376 53.64z" fill="#84BD00"/><path d="M26.032 45.161c0-10.452 8.48-19.13 19.13-19.13 3.55 0 6.902.987 9.663 2.762h32.342A44.88 44.88 0 0045.161 0C20.313 0 0 20.313 0 45.161 0 66.657 14.988 84.604 35.104 89.14l7.494-25.045c-9.27-1.184-16.566-9.27-16.566-18.933z" fill="#84BD00"/><path d="M99 45.95c0-7.297-5.916-13.213-13.213-13.213H55.81l-3.747 12.227H69.22c3.747 0 6.903 3.156 6.903 6.903 0 .986-.198 1.774-.592 2.563l-10.65 35.104h21.3l11.832-39.245c.197-.395.197-.592.197-.986l.197-.395A7.912 7.912 0 0099 45.95z" fill="#84BD00"/></svg>