<svg width="129" height="45" fill="none" xmlns="http://www.w3.org/2000/svg"><g clip-path="url(#clip0_133_3770)"><path d="M10.322 10.573c0-2.235.881-3.51 2.8-4.465l5.46-2.73a6.553 6.553 0 013.099-.804 6.368 6.368 0 013.273.834l5.454 2.73c2.038 1.016 2.836 2.29 2.836 4.58v5.057a1.404 1.404 0 01-.403 1.081 1.384 1.384 0 01-1.072.406 1.393 1.393 0 01-1.066-.412 1.416 1.416 0 01-.409-1.075V10.81c0-1.28-.12-1.486-1.24-2.054L23.977 6.17a4.552 4.552 0 00-2.242-.604 4.076 4.076 0 00-2.032.604l-5.137 2.525c-1.199.604-1.295.894-1.295 2.236v4.833a1.405 1.405 0 01-.402 1.081 1.384 1.384 0 01-1.072.406 1.393 1.393 0 01-1.066-.413 1.415 1.415 0 01-.409-1.074v-5.19zm3.56 33.533c-1.918 1.117-3.458.985-5.232-.218l-5.09-3.407a6.575 6.575 0 01-2.241-2.32 6.577 6.577 0 01-.923-3.27L0 28.76c-.15-2.283.551-3.625 2.518-4.76l4.345-2.526a1.378 1.378 0 012.014.544 1.427 1.427 0 01-.54 2.03l-4.249 2.477c-1.09.665-1.217.852-1.145 2.108l.348 5.807c.002.794.209 1.575.6 2.266a4.12 4.12 0 001.552 1.468l4.723 3.184c1.115.761 1.415.688 2.566 0l4.195-2.417a1.373 1.373 0 012.015.544 1.421 1.421 0 01-.54 2.03l-4.52 2.592zM40.91 24.228c1.918 1.112 2.572 2.525 2.434 4.676l-.396 6.139a6.686 6.686 0 01-.857 3.105 6.46 6.46 0 01-2.356 2.417l-5.077 3.396c-1.888 1.275-3.38 1.329-5.347.181l-4.345-2.525a1.38 1.38 0 01-.727-.893 1.4 1.4 0 01.193-1.137 1.405 1.405 0 01.884-.724 1.386 1.386 0 011.124.18l4.268 2.483c1.097.64 1.337.64 2.398-.055l4.795-3.183a4.687 4.687 0 001.66-1.614c.335-.642.5-1.36.48-2.084l.378-5.722c.095-1.347-.12-1.577-1.265-2.247l-4.196-2.417a1.382 1.382 0 01-.727-.888 1.401 1.401 0 01.187-1.136 1.416 1.416 0 01.889-.728 1.398 1.398 0 011.131.178l4.466 2.604m-9.063-3.988a1.476 1.476 0 00-2.032-.538l-8.104 4.762-8.104-4.761a1.476 1.476 0 00-1.986.565 1.51 1.51 0 00.487 2.02l8.116 4.768v9.612c0 .4.158.785.44 1.068a1.493 1.493 0 002.118 0c.282-.283.44-.667.44-1.068v-9.612l8.091-4.767c.34-.2.588-.53.688-.913.1-.384.044-.793-.154-1.136" fill="#005AAA"/><path d="M26.914 9.897a1.489 1.489 0 00-.903-.693 1.47 1.47 0 00-1.123.155l-3.183 1.867-3.183-1.867a1.476 1.476 0 00-1.957.583 1.51 1.51 0 00.464 2.003l3.183 1.873v3.716a1.497 1.497 0 001.481 1.504 1.476 1.476 0 001.053-.447 1.5 1.5 0 00.427-1.07V13.8l3.201-1.855a1.508 1.508 0 00.534-2.048" fill="#ED1C24"/><path d="M15.585 29.853a1.489 1.489 0 00-.899-.703 1.47 1.47 0 00-1.127.147l-3.207 1.849-3.207-1.849a1.476 1.476 0 00-1.964.592 1.509 1.509 0 00.49 2.006l3.194 1.843v3.71a1.494 1.494 0 001.481 1.504c.39-.005.764-.164 1.04-.443a1.51 1.51 0 00.434-1.05v-3.715l3.201-1.849a1.482 1.482 0 00.704-.903 1.504 1.504 0 00-.14-1.139" fill="#50B848"/><path d="M38.29 29.853a1.476 1.476 0 00-2.026-.556l-3.2 1.813-3.19-1.867a1.48 1.48 0 00-2.105.495 1.508 1.508 0 00.613 2.09l3.19 1.874v3.727a1.496 1.496 0 001.486 1.493c.39.003.767-.148 1.048-.421a1.51 1.51 0 00.456-1.041v-3.71l3.201-1.855a1.484 1.484 0 00.697-.905 1.504 1.504 0 00-.145-1.137" fill="#00AEEF"/><path d="M48.553 10.005l-3.087 6.737a.839.839 0 01-.75.52.901.901 0 01-.633-.235.915.915 0 01-.296-.611c.005-.138.035-.273.09-.399l.677-1.516-2.163-4.508a.906.906 0 01-.096-.41.921.921 0 01.3-.612.907.907 0 01.635-.234.81.81 0 01.743.513l1.535 3.16 1.432-3.16a.832.832 0 01.773-.513.885.885 0 01.905.845 1.029 1.029 0 01-.09.4m8.416-.236v6.597a.889.889 0 01-.52.881.869.869 0 01-.996-.21.884.884 0 01-.228-.67V10.38h-3.65v5.963a.886.886 0 01-.257.624.872.872 0 01-1.237 0 .886.886 0 01-.257-.624V9.746a.852.852 0 01.526-.86.833.833 0 01.35-.059h5.394a.834.834 0 01.83.564c.04.113.056.234.045.355m3.177-.079a1.371 1.371 0 011.247-.973 1.316 1.316 0 011.247.973l2.284 6.392c.055.137.088.282.096.43a.798.798 0 01-.505.727.782.782 0 01-.305.052.805.805 0 01-.845-.605l-.354-1.1H59.75l-.348 1.094a.821.821 0 01-.84.605.833.833 0 01-.79-.5.85.85 0 01-.072-.322c0-.134.028-.265.084-.387l2.337-6.386zm.132 4.266h2.212l-1.085-3.408-1.127 3.408zm5.683-4.308a.851.851 0 01.538-.809.833.833 0 01.337-.055.815.815 0 01.864.51.833.833 0 01.059.354v2.537l2.841-3.1a.912.912 0 01.677-.325.84.84 0 01.79.518.858.858 0 01.067.327c0 .303-.185.55-.599.937l-2.2 2.181 2.692 2.834a1.303 1.303 0 01.485.894.82.82 0 01-.567.778.804.804 0 01-.338.032c-.342 0-.557-.206-.887-.556l-2.997-3.287v3.02a.857.857 0 01-.544.791.84.84 0 01-.331.056.814.814 0 01-.623-.229.829.829 0 01-.252-.617V9.625m6.803 3.383c0-2.417 1.636-4.32 4.01-4.32 2.374 0 4.01 1.934 4.01 4.32 0 2.387-1.624 4.32-4.01 4.32-2.386 0-4.01-1.891-4.01-4.32zm6.198 0c0-1.42-.731-2.7-2.188-2.7-1.456 0-2.188 1.28-2.188 2.7 0 1.42.708 2.7 2.188 2.7 1.48 0 2.188-1.268 2.188-2.7zM81.91 9.71a.852.852 0 01.26-.655.838.838 0 01.663-.228h2.236a2.041 2.041 0 011.53.55 2.073 2.073 0 01.658 1.498c.023.366-.068.73-.262 1.04a1.73 1.73 0 01-.817.688c.483.063.928.299 1.253.665.325.366.507.838.515 1.33 0 1.655-1.097 2.549-2.703 2.549h-2.398a.856.856 0 01-.853-.495.876.876 0 01-.082-.339V9.71zm1.75 2.416h.911a.851.851 0 00.888-.554.87.87 0 00.053-.37.852.852 0 00-.285-.63.837.837 0 00-.656-.204h-.91v1.758zm0 3.504h1.373a.988.988 0 00.78-.262 1.004 1.004 0 00.317-.765c0-.55-.42-.924-1.235-.924H83.66v1.951zm5.053-2.622c0-2.417 1.63-4.32 4.005-4.32 2.373 0 4.01 1.934 4.01 4.32 0 2.387-1.619 4.32-4.01 4.32-2.392 0-4.005-1.891-4.005-4.32zm6.198 0c0-1.42-.737-2.7-2.194-2.7-1.456 0-2.205 1.28-2.205 2.7 0 1.42.707 2.7 2.188 2.7 1.48 0 2.193-1.268 2.193-2.7h.018zm7.487-3.341a.894.894 0 01.228-.67.877.877 0 01.996-.21.873.873 0 01.476.52.894.894 0 01.044.36v6.646a.894.894 0 01-.228.67.873.873 0 01-1.288 0 .895.895 0 01-.228-.67v-2.012h-1.421c-1.834 0-3.242-1.136-3.242-2.815V9.667c0-.236.093-.463.259-.63a.88.88 0 011.25 0 .895.895 0 01.259.63v1.716c0 .81.707 1.293 1.606 1.293h1.307V9.667m3.195 0a.887.887 0 01.256-.624.874.874 0 01.954-.19.874.874 0 01.474.476.907.907 0 01.066.338v2.49h3.657v-2.49a.887.887 0 01.256-.624.874.874 0 01.954-.19.885.885 0 01.54.814v6.646a.888.888 0 01-.54.815.873.873 0 01-1.21-.815v-2.531h-3.657v2.561a.888.888 0 01-.54.815.87.87 0 01-.954-.19.888.888 0 01-.256-.625V9.667zm11.575 2.356c1.69 0 2.907.798 2.907 2.556 0 1.662-1.091 2.61-2.698 2.61h-2.23a.859.859 0 01-.859-.525.88.88 0 01-.07-.35V9.666a.894.894 0 01.229-.67.873.873 0 01.995-.21.873.873 0 01.476.52.88.88 0 01.045.36v2.356h1.199m-1.199 3.626h1.199a1.033 1.033 0 001.018-.658c.053-.134.078-.279.072-.424 0-.556-.419-.99-1.198-.99h-1.067l-.024 2.072zm5.94-6.888a.827.827 0 01.828.554.828.828 0 01.047.352v6.646a.894.894 0 01-.228.67.877.877 0 01-.996.21.873.873 0 01-.476-.52.894.894 0 01-.044-.36V9.667a.836.836 0 01.869-.906zm2.35 1.088c0-.604.287-1.02.905-1.02h2.889a.77.77 0 01.766.513.784.784 0 01.043.326.79.79 0 01-.827.81h-2.05v1.716h1.912a.786.786 0 01.79.486.815.815 0 01.061.323.807.807 0 01-.851.81h-1.912v1.812h2.158a.773.773 0 01.827.81.803.803 0 01-.51.758.786.786 0 01-.317.052h-2.997a.848.848 0 01-.842-.571.86.86 0 01-.045-.36V9.848zM55.146 26.367h-1.259a.748.748 0 01-.575-.226.76.76 0 01-.216-.584.797.797 0 01.49-.727.78.78 0 01.301-.058h4.286a.779.779 0 01.743.502c.04.1.058.206.054.313a.767.767 0 01-.483.761.75.75 0 01-.314.049h-1.265v5.89a.888.888 0 01-.54.816.868.868 0 01-.954-.191.88.88 0 01-.256-.624v-5.921m4.616-.598c0-.604.293-1.027.91-1.027h2.89a.775.775 0 01.773.494c.04.102.059.211.054.321a.805.805 0 01-.24.585.792.792 0 01-.587.225h-2.05v1.71h1.912a.78.78 0 01.786.486.796.796 0 01.06.323.81.81 0 01-.246.594.797.797 0 01-.6.222h-1.912v1.813h2.152a.768.768 0 01.773.488c.04.102.059.212.054.321a.8.8 0 01-.238.587.785.785 0 01-.59.223H60.68a.844.844 0 01-.837-.535.863.863 0 01-.062-.347v-6.483m8.259 2.864l-1.889-2.586a.82.82 0 01-.185-.514.845.845 0 01.547-.809.826.826 0 01.34-.049 1.007 1.007 0 01.755.435l1.445 2.079 1.444-2.067a.993.993 0 01.755-.435.826.826 0 01.632.232.84.84 0 01.256.626.856.856 0 01-.186.514l-1.888 2.586 2.307 3.123c.125.177.194.388.198.605a.834.834 0 01-.265.606.82.82 0 01-.622.215.853.853 0 01-.725-.387l-1.906-2.676-1.918 2.658a.84.84 0 01-.726.387.808.808 0 01-.62-.216.821.821 0 01-.26-.606c0-.217.07-.428.197-.604l2.308-3.123m5.526-3.04c0-.233.092-.458.256-.623a.871.871 0 011.238 0c.164.165.256.39.256.623v2.49h3.657v-2.49a.889.889 0 01.52-.88.869.869 0 01.996.21.882.882 0 01.228.67v6.646a.889.889 0 01-.52.881.87.87 0 01-.996-.21.884.884 0 01-.228-.67v-2.532H75.31v2.556a.886.886 0 01-.256.623.872.872 0 01-1.238 0 .886.886 0 01-.256-.623v-6.646m8.296 3.311c0-2.417 1.636-4.32 4.01-4.32 2.374 0 4.004 1.939 4.004 4.32 0 2.38-1.618 4.307-4.004 4.307-2.386 0-4.01-1.89-4.01-4.326m6.198 0c0-1.42-.731-2.7-2.188-2.7-1.457 0-2.188 1.28-2.188 2.7 0 1.42.707 2.701 2.188 2.701 1.48 0 2.188-1.25 2.188-2.682v-.019zm8.398 4.272a.826.826 0 01-.643-.26.842.842 0 01-.226-.658v-5.964h-2.308v2.628c0 1.33-.36 2.834-1.307 3.656a2.097 2.097 0 01-1.385.604.745.745 0 01-.747-.494.762.762 0 01-.044-.316c0-.41.198-.604.654-.821.455-.218 1.079-.955 1.079-2.266V25.66a.86.86 0 01.244-.637.845.845 0 01.63-.251h4.053a.838.838 0 01.642.26.853.853 0 01.233.658v6.568a.853.853 0 01-.23.659.84.84 0 01-.645.259m2.02-4.253c0-2.417 1.63-4.32 4.004-4.32 2.374 0 4.01 1.939 4.01 4.32 0 2.38-1.588 4.307-3.986 4.307s-4.004-1.89-4.004-4.326m6.198 0c0-1.42-.737-2.7-2.194-2.7-1.457 0-2.188 1.28-2.188 2.7 0 1.42.713 2.701 2.188 2.701s2.17-1.25 2.17-2.682l.024-.019zm2.937-3.244a.883.883 0 01.564-.831.867.867 0 01.347-.057h2.997c.202.017.39.11.527.261a.819.819 0 01-.527 1.364h-2.146v5.89a.893.893 0 01-.228.671.882.882 0 01-.644.285.872.872 0 01-.828-.596.893.893 0 01-.044-.36V25.66m11.85 7.516a.826.826 0 01-.642-.26.833.833 0 01-.227-.658v-4.38l-3.776 4.911a1.012 1.012 0 01-.732.387.835.835 0 01-.83-.564.855.855 0 01-.045-.354v-6.646a.877.877 0 01.229-.67.873.873 0 01.995-.211.873.873 0 01.476.521.894.894 0 01.045.36v4.416l3.776-4.966a.995.995 0 01.731-.387.83.83 0 01.831.558c.04.114.055.235.044.354v6.646a.839.839 0 01-.23.66.845.845 0 01-.645.259m8.626.024a.821.821 0 01-.643-.26.844.844 0 01-.226-.658v-4.38h-.03l-3.747 4.911a1.017 1.017 0 01-.737.387.826.826 0 01-.643-.26.844.844 0 01-.226-.658v-6.646a.894.894 0 01.228-.67.883.883 0 01.644-.285.872.872 0 01.828.595.894.894 0 01.044.36v4.416l3.776-4.966a.981.981 0 01.732-.387.825.825 0 01.644.255.842.842 0 01.231.657v6.646a.855.855 0 01-.231.66.84.84 0 01-.644.259" fill="#005AAA"/><path fill-rule="evenodd" clip-rule="evenodd" d="M37.637 0h-.048a2.806 2.806 0 00-1.99.823 2.851 2.851 0 00-.833 1.999c.005.747.302 1.463.827 1.992a2.806 2.806 0 001.978.83h.048a2.812 2.812 0 001.965-.838c.521-.528.816-1.24.823-1.984a2.851 2.851 0 00-.815-1.98A2.807 2.807 0 0037.637 0m0 5.196a2.321 2.321 0 01-1.729-.645 2.357 2.357 0 01-.727-1.708 2.372 2.372 0 01.727-1.708 2.336 2.336 0 011.73-.646 2.32 2.32 0 011.728.646 2.357 2.357 0 01.727 1.708 2.372 2.372 0 01-.727 1.708 2.335 2.335 0 01-1.729.645z" fill="#005AAA"/><path fill-rule="evenodd" clip-rule="evenodd" d="M38.459 3.293a1.91 1.91 0 00-.33-.272.98.98 0 00.6-.296.788.788 0 00.233-.544 1.057 1.057 0 00-.138-.495.75.75 0 00-.365-.278 1.857 1.857 0 00-.714-.097H36.45v3.081h.6V3.1h.114a1.04 1.04 0 01.317.037.55.55 0 01.15.102h.036l.324.454.438.676h.737l-.366-.604a3.27 3.27 0 00-.347-.507m-.816-.653h-.6V1.85h.93a.353.353 0 01.305.233.31.31 0 01.013.13.504.504 0 01-.054.235.456.456 0 01-.186.12 2.15 2.15 0 01-.408.037z" fill="#005AAA"/></g><defs><clipPath id="clip0_133_3770"><path fill="#fff" d="M0 0h129v45H0z"/></clipPath></defs></svg>