<svg width="98" height="34" fill="none" xmlns="http://www.w3.org/2000/svg"><g clip-path="url(#clip0_133_3803)"><path d="M7.841 7.989c0-1.69.67-2.653 2.127-3.374l4.148-2.063a5 5 0 012.355-.607 4.858 4.858 0 012.486.63L23.1 4.638c1.548.767 2.154 1.73 2.154 3.46v3.821a1.055 1.055 0 01-1.12 1.123 1.064 1.064 0 01-1.12-1.123V8.167c0-.968-.092-1.123-.943-1.552L18.215 4.66a3.472 3.472 0 00-1.703-.457 3.11 3.11 0 00-1.544.457l-3.903 1.908c-.91.457-.983.676-.983 1.69v3.651a1.056 1.056 0 01-1.12 1.123 1.062 1.062 0 01-1.051-.684 1.07 1.07 0 01-.07-.439V7.99zm2.705 25.335c-1.457.845-2.627.745-3.975-.164l-3.866-2.575a4.98 4.98 0 01-1.703-1.753 4.948 4.948 0 01-.702-2.47L0 21.73c-.114-1.725.419-2.739 1.912-3.597l3.302-1.908a1.05 1.05 0 011.53.41 1.074 1.074 0 01-.41 1.535l-3.228 1.87c-.83.502-.925.644-.87 1.594L2.5 26.02c.002.6.159 1.19.455 1.712.29.467.696.85 1.18 1.11l3.588 2.405c.847.576 1.075.52 1.949 0l3.188-1.826a1.047 1.047 0 011.53.411 1.069 1.069 0 01-.41 1.534l-3.434 1.958zm20.533-15.018c1.457.84 1.953 1.908 1.849 3.533l-.3 4.638a5.031 5.031 0 01-.652 2.346 4.893 4.893 0 01-1.79 1.826l-3.857 2.566c-1.434.963-2.568 1.004-4.062.137l-3.301-1.908a1.048 1.048 0 01-.405-1.534 1.063 1.063 0 011.525-.411l3.242 1.876c.834.484 1.016.484 1.822-.041l3.643-2.406a3.55 3.55 0 001.261-1.219 3.2 3.2 0 00.365-1.575l.286-4.323c.073-1.017-.09-1.191-.96-1.698l-3.188-1.826a1.048 1.048 0 01-.574-1.115c.025-.148.08-.29.164-.414a1.073 1.073 0 011.12-.574c.147.023.289.077.415.159l3.392 1.967m-6.884-3.013a1.13 1.13 0 00-1.544-.406l-6.157 3.597-6.157-3.597a1.127 1.127 0 00-1.508.427 1.134 1.134 0 00.37 1.527l6.166 3.602v7.262a1.143 1.143 0 001.138 1.142 1.137 1.137 0 001.139-1.142v-7.262l6.147-3.602a1.132 1.132 0 00.405-1.548z" fill="#005AAA"/><path d="M20.446 7.477a1.126 1.126 0 00-1.54-.406l-2.417 1.41-2.418-1.41a1.127 1.127 0 00-1.486.44 1.135 1.135 0 00.352 1.514l2.418 1.415v2.808a1.138 1.138 0 001.125 1.136 1.128 1.128 0 001.125-1.146v-2.812l2.431-1.401a1.132 1.132 0 00.405-1.548" fill="#ED1C24"/><path d="M11.84 22.556a1.128 1.128 0 00-1.122-.562c-.147.02-.29.067-.418.142l-2.436 1.396-2.436-1.396a1.127 1.127 0 00-1.492.447 1.134 1.134 0 00.372 1.516l2.427 1.392v2.803A1.138 1.138 0 007.86 29.43a1.132 1.132 0 001.12-1.127v-2.808l2.43-1.395a1.124 1.124 0 00.568-1.124 1.13 1.13 0 00-.14-.42z" fill="#50B848"/><path d="M29.089 22.556a1.13 1.13 0 00-1.54-.42l-2.43 1.37-2.423-1.412a1.129 1.129 0 00-1.707 1.265 1.133 1.133 0 00.573.69l2.422 1.415v2.816a1.133 1.133 0 001.13 1.128 1.133 1.133 0 001.143-1.105V25.5l2.431-1.401a1.126 1.126 0 00.42-1.543" fill="#00AEEF"/><path d="M36.885 7.56l-2.345 5.09a.634.634 0 01-.57.392.687.687 0 01-.705-.639.825.825 0 01.068-.301l.515-1.146-1.644-3.406a.681.681 0 01-.073-.31.694.694 0 01.71-.639.618.618 0 01.565.388l1.166 2.387L35.66 6.99a.63.63 0 01.587-.388.673.673 0 01.688.64.774.774 0 01-.068.3m6.393-.179v4.985a.669.669 0 01-.663.722.664.664 0 01-.662-.722V7.843h-2.773v4.505a.667.667 0 01-.665.667.664.664 0 01-.665-.667V7.363a.641.641 0 01.665-.694h4.098a.636.636 0 01.665.694zm2.413-.059a1.045 1.045 0 01.948-.735 1 1 0 01.947.735l1.735 4.83c.042.103.066.213.073.324a.6.6 0 01-.383.55.594.594 0 01-.232.039.613.613 0 01-.642-.457l-.269-.83h-2.459l-.264.826a.62.62 0 01-.638.456.636.636 0 01-.591-.913l1.775-4.825zm.1 3.223h1.68l-.823-2.575-.856 2.575zm4.317-3.255a.64.64 0 01.665-.653.623.623 0 01.702.653v1.917l2.158-2.342a.693.693 0 01.515-.246.641.641 0 01.65.64c0 .227-.14.414-.455.707l-1.67 1.648 2.044 2.14a.984.984 0 01.369.676.62.62 0 01-.431.588.614.614 0 01-.257.024c-.26 0-.423-.155-.674-.42L51.43 10.12v2.282a.646.646 0 01-.413.597.64.64 0 01-.252.042.622.622 0 01-.664-.639v-5.13m5.167 2.556c0-1.826 1.243-3.264 3.047-3.264 1.803 0 3.046 1.461 3.046 3.264 0 1.804-1.234 3.264-3.046 3.264-1.813 0-3.047-1.428-3.047-3.264zm4.709 0c0-1.072-.556-2.04-1.662-2.04-1.107 0-1.663.968-1.663 2.04 0 1.073.538 2.041 1.663 2.041 1.124 0 1.662-.959 1.662-2.04zm2.249-2.492a.64.64 0 01.701-.667h1.699a1.558 1.558 0 011.529.93c.086.195.13.405.133.618a1.317 1.317 0 01-.82 1.306 1.538 1.538 0 011.344 1.506c0 1.25-.834 1.926-2.054 1.926h-1.821a.655.655 0 01-.71-.63v-4.99zm1.33 1.826h.692a.65.65 0 00.715-.699.64.64 0 00-.715-.63h-.692v1.329zm0 2.648h1.043a.755.755 0 00.833-.776c0-.416-.319-.699-.938-.699h-.938v1.475zm3.838-1.982c0-1.826 1.24-3.264 3.042-3.264 1.804 0 3.047 1.461 3.047 3.264 0 1.804-1.23 3.264-3.047 3.264-1.817 0-3.042-1.428-3.042-3.264zm4.709 0c0-1.072-.56-2.04-1.667-2.04-1.106 0-1.675.968-1.675 2.04 0 1.073.537 2.041 1.662 2.041 1.124 0 1.666-.959 1.666-2.04h.014zm5.687-2.524a.669.669 0 01.663-.722.663.663 0 01.663.722v5.021a.669.669 0 01-.663.722.664.664 0 01-.662-.722v-1.52h-1.08c-1.393 0-2.463-.858-2.463-2.127V7.304a.674.674 0 01.671-.673.67.67 0 01.672.673V8.6c0 .612.538.977 1.22.977h.993V7.304m2.427 0a.666.666 0 011.135-.471.667.667 0 01.195.471v1.88h2.778v-1.88a.668.668 0 01.665-.667.663.663 0 01.665.667v5.021a.666.666 0 01-1.135.472.667.667 0 01-.195-.472v-1.912H81.56v1.935a.668.668 0 01-.665.667.663.663 0 01-.665-.667V7.304zm8.794 1.78c1.284 0 2.208.603 2.208 1.931 0 1.256-.829 1.972-2.049 1.972H87.49a.655.655 0 01-.706-.662V7.304a.667.667 0 01.93-.665.665.665 0 01.395.665v1.78h.911m-.91 2.74h.91a.786.786 0 00.829-.818c0-.42-.319-.748-.91-.748h-.811l-.019 1.565zm4.512-5.205a.632.632 0 01.665.685v5.021a.669.669 0 01-.663.722.664.664 0 01-.662-.722V7.304a.635.635 0 01.66-.685zm1.785.821c0-.456.219-.77.688-.77h2.195a.586.586 0 01.614.634.6.6 0 01-.628.612h-1.557v1.296h1.452a.6.6 0 01.647.612.614.614 0 01-.647.612H95.72v1.37h1.639a.586.586 0 01.628.61.603.603 0 01-.628.612H95.08a.646.646 0 01-.674-.703V7.441zM41.894 19.922h-.956a.573.573 0 01-.601-.612.598.598 0 01.6-.594h3.257a.597.597 0 01.605.617.577.577 0 01-.605.611h-.961v4.451a.668.668 0 01-.665.667.664.664 0 01-.665-.667v-4.473m3.507-.452c0-.457.223-.776.692-.776h2.195a.59.59 0 01.587.373c.03.077.044.16.04.243a.605.605 0 01-.627.612h-1.558v1.291h1.453a.595.595 0 01.642.612.609.609 0 01-.642.616h-1.453v1.37h1.635a.587.587 0 01.628.612.6.6 0 01-.628.611h-2.277a.644.644 0 01-.683-.666V19.47m6.275 2.164l-1.434-1.954a.635.635 0 01.533-1.036.767.767 0 01.573.328l1.098 1.57 1.097-1.56a.753.753 0 01.574-.33.632.632 0 01.674.649.644.644 0 01-.141.388l-1.435 1.954 1.753 2.36a.819.819 0 01.15.456.628.628 0 01-.42.589.621.621 0 01-.253.032.65.65 0 01-.551-.292l-1.448-2.022L51 24.774a.638.638 0 01-.55.292.617.617 0 01-.618-.37.62.62 0 01-.052-.25.782.782 0 01.15-.457l1.754-2.36m4.199-2.296a.668.668 0 01.665-.667.664.664 0 01.664.667v1.88h2.778v-1.88a.668.668 0 01.93-.666.665.665 0 01.395.666v5.021a.668.668 0 01-.93.666.667.667 0 01-.395-.666v-1.912h-2.778v1.93a.668.668 0 01-.664.667.664.664 0 01-.665-.667v-5.021m6.302 2.502c0-1.826 1.243-3.264 3.046-3.264 1.804 0 3.042 1.465 3.042 3.264 0 1.798-1.23 3.254-3.041 3.254-1.813 0-3.047-1.428-3.047-3.268m4.709 0c0-1.073-.556-2.04-1.663-2.04-1.106 0-1.662.967-1.662 2.04s.538 2.04 1.662 2.04c1.125 0 1.663-.945 1.663-2.026v-.014zm6.379 3.227a.63.63 0 01-.628-.426.636.636 0 01-.032-.268v-4.505H70.86v1.986c0 1.004-.273 2.14-.993 2.761-.282.278-.657.44-1.052.457a.567.567 0 01-.6-.612c0-.31.15-.456.495-.62.347-.165.82-.722.82-1.712v-2.74a.646.646 0 01.665-.67h3.078a.639.639 0 01.63.426c.03.086.042.177.035.267v4.962a.641.641 0 01-.665.694zm1.535-3.213c0-1.826 1.239-3.264 3.042-3.264 1.803 0 3.046 1.465 3.046 3.264 0 1.798-1.206 3.254-3.028 3.254-1.821 0-3.042-1.428-3.042-3.268m4.709 0c0-1.073-.56-2.04-1.667-2.04-1.106 0-1.662.967-1.662 2.04s.542 2.04 1.662 2.04c1.12 0 1.649-.945 1.649-2.026l.018-.014zm2.231-2.452a.667.667 0 01.692-.67h2.277a.614.614 0 01.562.613.617.617 0 01-.562.614h-1.63v4.451a.67.67 0 01-.396.666.662.662 0 01-.895-.394.67.67 0 01-.034-.272v-5.008m9.002 5.679a.63.63 0 01-.628-.426.637.637 0 01-.032-.268v-3.31l-2.869 3.712a.766.766 0 01-.555.292.636.636 0 01-.665-.694v-5.021a.667.667 0 01.93-.665.665.665 0 01.395.665v3.337l2.869-3.752a.755.755 0 01.555-.293.632.632 0 01.665.69v5.021a.64.64 0 01-.665.694m6.553.018a.63.63 0 01-.628-.426.636.636 0 01-.032-.268v-3.31h-.023l-2.846 3.712a.775.775 0 01-.56.292.63.63 0 01-.628-.426.636.636 0 01-.032-.268v-5.021a.669.669 0 01.662-.722.664.664 0 01.663.722v3.337l2.869-3.752a.751.751 0 01.555-.293.633.633 0 01.665.69v5.021a.64.64 0 01-.665.694" fill="#005AAA"/><path fill-rule="evenodd" clip-rule="evenodd" d="M28.593 0h-.037a2.137 2.137 0 00-1.511.622c-.402.4-.63.942-.634 1.51a2.15 2.15 0 00.629 1.505c.399.4.939.624 1.503.627h.036a2.142 2.142 0 001.492-.633c.396-.399.62-.937.625-1.5a2.148 2.148 0 00-.618-1.495A2.138 2.138 0 0028.593 0zm0 3.926A1.772 1.772 0 0126.87 2.85 1.783 1.783 0 0127.886.478c.226-.084.466-.12.707-.108a1.772 1.772 0 011.721 1.076A1.783 1.783 0 0129.3 3.817a1.772 1.772 0 01-.706.109z" fill="#005AAA"/><path fill-rule="evenodd" clip-rule="evenodd" d="M29.216 2.488a1.455 1.455 0 00-.25-.206.746.746 0 00.455-.223.594.594 0 00.178-.411.795.795 0 00-.105-.374.57.57 0 00-.278-.21 1.417 1.417 0 00-.542-.073h-.983v2.328h.455v-.977h.087a.796.796 0 01.241.027.42.42 0 01.114.078h.027l.246.342.333.511h.56l-.278-.456a2.42 2.42 0 00-.264-.383m-.62-.493h-.455v-.571h.706a.268.268 0 01.231.176c.01.032.014.065.01.098a.38.38 0 01-.04.178.346.346 0 01-.142.091 1.685 1.685 0 01-.31.028z" fill="#005AAA"/></g><defs><clipPath id="clip0_133_3803"><path fill="#fff" d="M0 0h98v34H0z"/></clipPath></defs></svg>