<svg width="172" height="60" fill="none" xmlns="http://www.w3.org/2000/svg"><path d="M13.762 14.098c0-2.98 1.175-4.68 3.733-5.954l7.28-3.64a8.737 8.737 0 014.133-1.072 8.49 8.49 0 014.363 1.111l7.273 3.642c2.718 1.353 3.78 3.053 3.78 6.106v6.743a1.875 1.875 0 01-.536 1.44 1.846 1.846 0 01-1.43.542 1.857 1.857 0 01-1.42-.55 1.887 1.887 0 01-.546-1.432v-6.622c0-1.708-.16-1.982-1.654-2.74l-6.77-3.447a6.069 6.069 0 00-2.988-.806 5.435 5.435 0 00-2.71.806l-6.849 3.367c-1.598.806-1.726 1.193-1.726 2.981v6.445a1.875 1.875 0 01-.537 1.44 1.845 1.845 0 01-1.43.542 1.857 1.857 0 01-1.42-.55 1.888 1.888 0 01-.546-1.432v-6.92zm4.748 44.71c-2.558 1.49-4.612 1.313-6.977-.29l-6.786-4.544a8.765 8.765 0 01-2.989-3.093 8.768 8.768 0 01-1.23-4.358L0 38.346c-.2-3.045.735-4.834 3.357-6.348L9.15 28.63a1.837 1.837 0 012.685.724 1.903 1.903 0 01-.719 2.707L5.45 35.364c-1.455.886-1.623 1.136-1.527 2.812l.464 7.741a6.17 6.17 0 00.799 3.021 5.5 5.5 0 002.07 1.958l6.298 4.245c1.486 1.015 1.886.919 3.42 0l5.595-3.222a1.829 1.829 0 012.685.725 1.892 1.892 0 01-.115 2.213c-.165.206-.37.374-.604.494l-6.026 3.456zm36.037-26.504c2.557 1.482 3.428 3.367 3.245 6.235l-.528 8.185a8.915 8.915 0 01-1.143 4.14 8.613 8.613 0 01-3.14 3.223l-6.77 4.527c-2.518 1.7-4.508 1.773-7.13.242l-5.794-3.367a1.84 1.84 0 01-.968-1.19 1.868 1.868 0 01.257-1.517 1.874 1.874 0 011.178-.965 1.848 1.848 0 011.5.24l5.69 3.31c1.462.855 1.782.855 3.197-.072l6.394-4.245a6.249 6.249 0 002.213-2.151 5.677 5.677 0 00.64-2.78l.503-7.628c.128-1.797-.16-2.103-1.686-2.997l-5.595-3.222a1.842 1.842 0 01-.969-1.185 1.868 1.868 0 01.25-1.514 1.89 1.89 0 011.185-.97 1.863 1.863 0 011.508.237l5.955 3.472m-12.084-5.317a1.985 1.985 0 00-1.208-.923 1.968 1.968 0 00-1.502.206L28.94 32.626l-10.806-6.348a1.968 1.968 0 00-1.474-.162 1.98 1.98 0 00-1.173.916 2.012 2.012 0 00-.215 1.479c.121.502.431.938.864 1.215l10.822 6.356V48.9c0 .534.21 1.046.585 1.424a1.99 1.99 0 002.826 0c.374-.378.585-.89.585-1.424V36.082l10.79-6.356c.453-.267.782-.705.916-1.217a2.012 2.012 0 00-.205-1.514z" fill="#005AAA"/><path d="M35.885 13.195a1.984 1.984 0 00-1.203-.922 1.96 1.96 0 00-1.498.206l-4.244 2.489-4.244-2.49a1.968 1.968 0 00-1.458-.133c-.485.145-.897.47-1.15.911a2.012 2.012 0 00.618 2.67l4.244 2.498v4.954c0 .53.207 1.037.577 1.413.37.375.872.589 1.397.593a1.97 1.97 0 001.404-.596 2 2 0 00.57-1.426V18.4l4.268-2.474c.453-.267.782-.705.916-1.217a2.012 2.012 0 00-.205-1.514" fill="#ED1C24"/><path d="M20.78 39.804a1.983 1.983 0 00-1.198-.937 1.96 1.96 0 00-1.504.196l-4.275 2.465-4.276-2.465a1.968 1.968 0 00-1.466-.133c-.488.147-.9.477-1.153.922a2.012 2.012 0 00-.204 1.469c.121.498.428.93.857 1.206l4.26 2.457v4.946c0 .53.207 1.037.577 1.413.37.376.871.589 1.396.593a1.982 1.982 0 001.387-.59c.367-.372.575-.875.58-1.4v-4.954l4.267-2.465a1.978 1.978 0 00.939-1.204 2.003 2.003 0 00-.187-1.519z" fill="#50B848"/><path d="M51.054 39.804a1.984 1.984 0 00-1.199-.934 1.968 1.968 0 00-1.502.193l-4.268 2.417-4.252-2.49a1.974 1.974 0 00-2.808.661 2.01 2.01 0 00.818 2.787l4.252 2.498v4.97c.002.529.212 1.035.583 1.407.372.373.875.583 1.399.583a1.982 1.982 0 001.398-.562c.375-.365.593-.863.608-1.388V45l4.268-2.473a1.98 1.98 0 00.93-1.208 2.004 2.004 0 00-.195-1.515" fill="#00AEEF"/><path d="M64.737 13.34l-4.116 8.983a1.118 1.118 0 01-1 .693 1.196 1.196 0 01-.843-.314 1.22 1.22 0 01-.395-.814c.006-.184.047-.364.12-.532l.903-2.022-2.885-6.01a1.209 1.209 0 01-.128-.547c.024-.314.167-.606.4-.816a1.21 1.21 0 01.847-.312 1.08 1.08 0 01.99.685l2.047 4.213 1.91-4.213a1.096 1.096 0 011.031-.685c.307-.007.605.107.83.317.225.21.36.502.377.81a1.371 1.371 0 01-.12.532m11.221-.314v8.797a1.183 1.183 0 01-.694 1.174 1.158 1.158 0 01-1.328-.28 1.178 1.178 0 01-.304-.894V13.84h-4.867v7.951c0 .312-.123.611-.342.832a1.162 1.162 0 01-1.65 0 1.18 1.18 0 01-.342-.832v-8.797a1.138 1.138 0 01.308-.88 1.118 1.118 0 01.859-.344h7.193a1.11 1.11 0 01.86.345 1.13 1.13 0 01.307.88zm4.236-.104c.111-.363.33-.682.628-.914a1.821 1.821 0 011.034-.384 1.756 1.756 0 011.663 1.297l3.044 8.524c.074.182.117.375.128.571a1.064 1.064 0 01-.323.748 1.046 1.046 0 01-.756.292c-.251.02-.502-.05-.708-.198a1.088 1.088 0 01-.418-.608l-.472-1.466h-4.316l-.463 1.458a1.096 1.096 0 01-.417.604 1.08 1.08 0 01-.702.202 1.111 1.111 0 01-.8-.308 1.13 1.13 0 01-.351-.788c0-.178.038-.354.112-.516l3.117-8.515zm.175 5.687h2.95l-1.447-4.544-1.502 4.544zm7.577-5.744a1.137 1.137 0 01.336-.831 1.12 1.12 0 01.831-.321 1.087 1.087 0 01.882.286 1.103 1.103 0 01.349.866v3.383l3.788-4.132a1.216 1.216 0 01.903-.435 1.118 1.118 0 01.805.324 1.135 1.135 0 01.338.804c0 .402-.248.733-.8 1.248l-2.932 2.908 3.588 3.779a1.738 1.738 0 01.648 1.192 1.097 1.097 0 01-.363.813 1.077 1.077 0 01-.844.266c-.456 0-.743-.274-1.183-.74l-3.996-4.383v4.028a1.144 1.144 0 01-.347.812 1.128 1.128 0 01-.82.316 1.088 1.088 0 01-1.084-.68 1.11 1.11 0 01-.083-.448v-9.055m9.071 4.511c0-3.222 2.182-5.76 5.347-5.76 3.165 0 5.347 2.578 5.347 5.76s-2.166 5.76-5.347 5.76c-3.18 0-5.347-2.521-5.347-5.76zm8.264 0c0-1.893-.975-3.6-2.917-3.6-1.942 0-2.917 1.707-2.917 3.6s.943 3.601 2.917 3.601c1.974 0 2.917-1.692 2.917-3.6zm3.948-4.398a1.133 1.133 0 01.757-1.122 1.12 1.12 0 01.474-.054h2.981a2.723 2.723 0 012.042.732 2.77 2.77 0 01.875 1.998 2.327 2.327 0 01-1.438 2.305 2.694 2.694 0 011.67.886c.433.488.677 1.117.687 1.772 0 2.207-1.462 3.4-3.604 3.4h-3.197a1.143 1.143 0 01-.859-.288 1.159 1.159 0 01-.388-.824v-8.805zm2.334 3.222h1.215a1.13 1.13 0 00.912-.321 1.148 1.148 0 00.343-.911 1.144 1.144 0 00-.381-.84 1.108 1.108 0 00-.874-.272h-1.215v2.344zm0 4.672h1.83a1.314 1.314 0 001.04-.35 1.342 1.342 0 00.423-1.019c0-.733-.56-1.233-1.647-1.233h-1.646v2.602zm6.737-3.496c0-3.222 2.174-5.76 5.339-5.76 3.165 0 5.347 2.578 5.347 5.76s-2.158 5.76-5.347 5.76c-3.189 0-5.339-2.521-5.339-5.76zm8.264 0c0-1.893-.983-3.6-2.925-3.6-1.942 0-2.941 1.707-2.941 3.6s.943 3.601 2.917 3.601c1.974 0 2.925-1.692 2.925-3.6h.024zm9.983-4.454a1.177 1.177 0 01.694-1.174 1.155 1.155 0 011.327.28 1.177 1.177 0 01.304.893v8.862a1.18 1.18 0 01-.694 1.174 1.158 1.158 0 01-1.327-.28 1.177 1.177 0 01-.304-.894v-2.683h-1.895c-2.445 0-4.323-1.514-4.323-3.754V12.89c0-.315.124-.617.345-.84a1.174 1.174 0 011.667 0c.221.223.345.525.345.84v2.288c0 1.08.943 1.724 2.142 1.724h1.743V12.89m4.259 0a1.197 1.197 0 01.342-.832 1.17 1.17 0 01.825-.345 1.158 1.158 0 01.825.345 1.178 1.178 0 01.342.832v3.318h4.875V12.89a1.197 1.197 0 01.342-.831 1.17 1.17 0 01.825-.345 1.158 1.158 0 01.825.345 1.178 1.178 0 01.342.832v8.86a1.178 1.178 0 01-1.167 1.177 1.153 1.153 0 01-.825-.345 1.188 1.188 0 01-.342-.831v-3.376h-4.875v3.416a1.178 1.178 0 01-1.167 1.176 1.155 1.155 0 01-.825-.344 1.188 1.188 0 01-.342-.832V12.89zm15.433 3.141c2.254 0 3.877 1.064 3.877 3.408 0 2.215-1.455 3.48-3.597 3.48h-2.973a1.14 1.14 0 01-.874-.31 1.156 1.156 0 01-.365-.858v-8.862a1.192 1.192 0 01.304-.894 1.174 1.174 0 01.859-.379 1.163 1.163 0 011.104.794 1.2 1.2 0 01.059.48v3.141h1.598m-1.598 4.834h1.598a1.372 1.372 0 001.043-.398 1.407 1.407 0 00.412-1.044c0-.741-.56-1.321-1.599-1.321h-1.422l-.032 2.763zm7.92-9.184a1.102 1.102 0 01.856.337 1.133 1.133 0 01.311.871v8.862a1.192 1.192 0 01-.304.894 1.172 1.172 0 01-.859.38 1.161 1.161 0 01-.858-.38 1.18 1.18 0 01-.305-.894v-8.862a1.143 1.143 0 01.062-.467 1.113 1.113 0 011.097-.741zm3.133 1.45c0-.806.384-1.361 1.207-1.361h3.852a1.022 1.022 0 01.791.314 1.032 1.032 0 01.288.805 1.064 1.064 0 01-.317.783 1.05 1.05 0 01-.786.297h-2.733v2.288h2.549a1.045 1.045 0 01.805.287 1.077 1.077 0 01.33.792 1.07 1.07 0 01-.336.787 1.068 1.068 0 01-.799.293h-2.549v2.416h2.877a1.019 1.019 0 01.791.291 1.046 1.046 0 01.312.789 1.077 1.077 0 01-.32.78 1.05 1.05 0 01-.783.3h-3.996a1.13 1.13 0 01-1.122-.762 1.148 1.148 0 01-.061-.48v-8.619zM73.528 35.156H71.85a.998.998 0 01-.768-.302 1.016 1.016 0 01-.287-.778 1.064 1.064 0 01.312-.744 1.047 1.047 0 01.743-.303h5.714a1.042 1.042 0 01.991.67c.052.133.076.275.072.418a1.023 1.023 0 01-.29.78 1.005 1.005 0 01-.773.299h-1.686v7.855a1.183 1.183 0 01-.72 1.086 1.159 1.159 0 01-1.272-.255 1.176 1.176 0 01-.342-.831v-7.895m6.154-.798c0-.805.392-1.37 1.215-1.37h3.852a1.032 1.032 0 01.791.297 1.048 1.048 0 01.312.791 1.072 1.072 0 01-.32.78 1.053 1.053 0 01-.783.3h-2.733v2.28h2.55a1.04 1.04 0 01.8.287 1.057 1.057 0 01.326.792 1.078 1.078 0 01-.696 1.024c-.138.05-.284.072-.43.064h-2.55v2.416H84.9a1.023 1.023 0 01.791.291 1.039 1.039 0 01.312.789 1.063 1.063 0 01-.317.783 1.046 1.046 0 01-.786.296h-3.996a1.127 1.127 0 01-.856-.322 1.145 1.145 0 01-.343-.854v-8.644m11.015 3.819l-2.518-3.448a1.093 1.093 0 01-.248-.685 1.129 1.129 0 01.342-.834 1.11 1.11 0 01.84-.31 1.343 1.343 0 011.008.58l1.926 2.771 1.926-2.755a1.325 1.325 0 011.007-.58 1.102 1.102 0 01.841.31 1.12 1.12 0 01.342.834c-.006.25-.093.49-.248.685l-2.517 3.448 3.077 4.165c.166.236.258.516.263.805a1.11 1.11 0 01-.738 1.04 1.099 1.099 0 01-.444.056 1.135 1.135 0 01-.967-.516l-2.542-3.569-2.557 3.545a1.122 1.122 0 01-.968.516 1.079 1.079 0 01-.826-.288 1.096 1.096 0 01-.348-.808c.001-.29.094-.572.263-.806l3.077-4.164m7.369-4.052c0-.312.123-.611.342-.832a1.162 1.162 0 011.65 0c.219.22.342.52.342.832v3.319h4.875v-3.32a1.19 1.19 0 01.304-.894 1.174 1.174 0 01.859-.379 1.163 1.163 0 011.104.794c.052.154.072.318.059.48v8.861a1.179 1.179 0 01-.694 1.174 1.161 1.161 0 01-1.573-.695 1.197 1.197 0 01-.059-.479v-3.375h-4.875v3.407c0 .312-.123.611-.342.832a1.162 1.162 0 01-1.65 0 1.181 1.181 0 01-.342-.832v-8.86m11.061 4.413c0-3.222 2.182-5.76 5.347-5.76 3.165 0 5.339 2.586 5.339 5.76s-2.158 5.744-5.339 5.744c-3.181 0-5.347-2.521-5.347-5.768m8.264 0c0-1.893-.975-3.6-2.917-3.6-1.942 0-2.917 1.707-2.917 3.6s.943 3.601 2.917 3.601c1.974 0 2.917-1.667 2.917-3.577v-.024zm11.197 5.696a1.099 1.099 0 01-.856-.346 1.119 1.119 0 01-.302-.879v-7.95h-3.077v3.503c0 1.773-.48 3.779-1.743 4.874a2.794 2.794 0 01-1.846.806.992.992 0 01-.77-.299 1.005 1.005 0 01-.285-.78c0-.549.264-.806.871-1.096.608-.29 1.439-1.273 1.439-3.021v-4.834a1.142 1.142 0 01.712-1.105c.144-.058.299-.085.455-.079h5.402a1.117 1.117 0 01.857.348 1.147 1.147 0 01.31.877v8.756a1.134 1.134 0 01-.307.88 1.126 1.126 0 01-.86.345zm2.694-5.672c0-3.222 2.174-5.76 5.338-5.76 3.165 0 5.347 2.586 5.347 5.76s-2.118 5.744-5.315 5.744c-3.196 0-5.338-2.521-5.338-5.768m8.264 0c0-1.893-.983-3.6-2.926-3.6-1.942 0-2.917 1.707-2.917 3.6s.951 3.601 2.917 3.601c1.966 0 2.894-1.667 2.894-3.577l.032-.024zm3.916-4.326a1.173 1.173 0 01.355-.854 1.177 1.177 0 01.86-.33h3.996c.269.023.519.148.702.348a1.09 1.09 0 01-.702 1.819h-2.862v7.855a1.177 1.177 0 01-.694 1.174 1.153 1.153 0 01-.937 0 1.162 1.162 0 01-.635-.695 1.18 1.18 0 01-.059-.48v-8.837m15.8 10.022a1.096 1.096 0 01-.856-.346 1.119 1.119 0 01-.303-.879v-5.84l-5.035 6.55a1.343 1.343 0 01-.975.515 1.108 1.108 0 01-.859-.346 1.135 1.135 0 01-.308-.879v-8.86a1.18 1.18 0 01.695-1.175 1.155 1.155 0 011.327.281 1.177 1.177 0 01.304.894v5.889l5.035-6.622a1.321 1.321 0 01.975-.516 1.102 1.102 0 01.859.34 1.115 1.115 0 01.308.877v8.861a1.134 1.134 0 01-.308.88 1.115 1.115 0 01-.859.345m11.501.031a1.103 1.103 0 01-.857-.346 1.133 1.133 0 01-.302-.879v-5.84h-.04l-4.995 6.55a1.367 1.367 0 01-.983.515 1.103 1.103 0 01-.857-.346 1.133 1.133 0 01-.302-.879v-8.86a1.18 1.18 0 01.694-1.174 1.163 1.163 0 011.573.695c.052.154.072.317.059.479v5.889l5.035-6.622a1.315 1.315 0 01.975-.516 1.102 1.102 0 01.859.34 1.12 1.12 0 01.308.877v8.861a1.135 1.135 0 01-.7 1.145c-.149.06-.308.087-.467.08" fill="#005AAA"/><path fill-rule="evenodd" clip-rule="evenodd" d="M50.183 0h-.064a3.741 3.741 0 00-2.653 1.098 3.802 3.802 0 00-1.111 2.664 3.801 3.801 0 001.103 2.656 3.741 3.741 0 002.637 1.106h.064a3.75 3.75 0 002.62-1.117 3.81 3.81 0 001.096-2.645 3.802 3.802 0 00-1.086-2.64A3.742 3.742 0 0050.183 0zm0 6.928a3.094 3.094 0 01-2.305-.86 3.143 3.143 0 01-.97-2.278 3.164 3.164 0 01.97-2.277 3.113 3.113 0 012.305-.86 3.095 3.095 0 012.305.86 3.141 3.141 0 01.97 2.277 3.163 3.163 0 01-.97 2.277 3.113 3.113 0 01-2.305.861z" fill="#005AAA"/><path fill-rule="evenodd" clip-rule="evenodd" d="M51.278 4.39a2.558 2.558 0 00-.44-.362 1.31 1.31 0 00.8-.395c.193-.191.305-.451.311-.725a1.41 1.41 0 00-.184-.66 1 1 0 00-.487-.371 2.476 2.476 0 00-.951-.129H48.6v4.109h.8V4.133h.151c.143-.006.286.01.424.048.074.034.141.08.2.137h.048l.431.604.584.902h.983l-.488-.805a4.261 4.261 0 00-.463-.677m-1.087-.87h-.8V2.465h1.24a.47.47 0 01.406.311.414.414 0 01.017.172.672.672 0 01-.072.315.607.607 0 01-.248.16c-.179.034-.36.05-.543.05z" fill="#005AAA"/></svg>