<svg width="213" height="74" fill="none" xmlns="http://www.w3.org/2000/svg"><g clip-path="url(#clip0_68_577)" fill="#fff"><path d="M17.043 17.387c0-3.676 1.455-5.773 4.622-7.342l9.017-4.491a10.854 10.854 0 015.117-1.322 10.548 10.548 0 015.404 1.371l9.006 4.491c3.365 1.67 4.682 3.766 4.682 7.531v8.317a2.303 2.303 0 01-.665 1.777 2.285 2.285 0 01-1.77.667 2.309 2.309 0 01-1.76-.678 2.326 2.326 0 01-.675-1.766v-8.168c0-2.106-.198-2.444-2.049-3.378l-8.383-4.252a7.54 7.54 0 00-3.701-.994 6.751 6.751 0 00-3.355.994l-8.483 4.153c-1.979.994-2.137 1.47-2.137 3.676v7.949a2.303 2.303 0 01-.665 1.777 2.286 2.286 0 01-1.77.667 2.308 2.308 0 01-1.76-.678 2.326 2.326 0 01-.675-1.766v-8.535zm5.879 55.143c-3.167 1.838-5.71 1.619-8.64-.358l-8.403-5.604a10.83 10.83 0 01-3.702-3.815 10.781 10.781 0 01-1.524-5.375L0 47.293c-.247-3.755.91-5.961 4.157-7.83l7.175-4.152a2.28 2.28 0 013.326.894 2.34 2.34 0 01-.89 3.338L6.75 43.617c-1.801 1.093-2.01 1.4-1.89 3.468l.574 9.548a7.594 7.594 0 00.99 3.725 6.8 6.8 0 002.563 2.415l7.799 5.236c1.84 1.252 2.336 1.132 4.236 0l6.928-3.975a2.272 2.272 0 013.326.895 2.331 2.331 0 01-.891 3.338l-7.463 4.262zM67.55 39.842c3.166 1.828 4.245 4.153 4.017 7.69l-.653 10.094a10.962 10.962 0 01-1.415 5.107 10.641 10.641 0 01-3.89 3.974l-8.383 5.584c-3.117 2.096-5.582 2.186-8.828.298l-7.176-4.153a2.278 2.278 0 01-1.2-1.467 2.293 2.293 0 01.32-1.871 2.314 2.314 0 011.458-1.19 2.296 2.296 0 011.857.296l7.047 4.083c1.811 1.053 2.207 1.053 3.959-.09l7.918-5.236a7.723 7.723 0 002.741-2.652 6.977 6.977 0 00.792-3.428l.623-9.409c.159-2.216-.197-2.593-2.088-3.696l-6.928-3.974a2.277 2.277 0 01-1.2-1.461 2.293 2.293 0 01.31-1.868 2.333 2.333 0 011.467-1.197 2.318 2.318 0 011.868.293l7.373 4.282m-14.964-6.557a2.446 2.446 0 00-3.355-.884l-13.382 7.829-13.38-7.83a2.446 2.446 0 00-3.28.93 2.472 2.472 0 00.805 3.323l13.4 7.84v15.807c0 .659.261 1.29.725 1.756a2.47 2.47 0 003.5 0 2.489 2.489 0 00.724-1.756V44.5l13.362-7.839a2.472 2.472 0 00.88-3.368z"/><path d="M44.439 16.274a2.451 2.451 0 00-1.49-1.138 2.434 2.434 0 00-1.855.254l-5.256 3.07-5.255-3.07a2.446 2.446 0 00-3.23.96 2.473 2.473 0 00.765 3.292l5.256 3.08v6.11c0 .653.257 1.28.715 1.743a2.46 2.46 0 001.73.732 2.448 2.448 0 002.267-1.544 2.47 2.47 0 00.177-.95v-6.12l5.285-3.05a2.473 2.473 0 00.88-3.368M25.733 49.092a2.45 2.45 0 00-1.483-1.156 2.437 2.437 0 00-1.862.242l-5.295 3.04-5.295-3.04a2.446 2.446 0 00-3.243.973 2.472 2.472 0 00.808 3.299l5.275 3.03v6.1c0 .653.257 1.28.715 1.743a2.46 2.46 0 001.73.732 2.46 2.46 0 001.716-.729 2.478 2.478 0 00.718-1.726v-6.11l5.286-3.04a2.45 2.45 0 001.162-1.485 2.463 2.463 0 00-.232-1.873zm37.491 0a2.446 2.446 0 00-3.345-.914l-5.286 2.98-5.265-3.07a2.45 2.45 0 00-3.792 1.76 2.472 2.472 0 001.328 2.492l5.265 3.08v6.13c.003.653.262 1.277.723 1.737a2.45 2.45 0 001.732.718 2.46 2.46 0 001.73-.693c.465-.45.736-1.064.754-1.712v-6.1l5.285-3.05a2.45 2.45 0 001.15-1.49 2.465 2.465 0 00-.24-1.868m16.905-32.639l-5.097 11.079a1.38 1.38 0 01-1.237.854A1.491 1.491 0 0172.789 28a1.502 1.502 0 01-.49-1.005 1.81 1.81 0 01.15-.656l1.118-2.494-3.573-7.412a1.486 1.486 0 01-.159-.675c.03-.387.208-.747.495-1.005a1.5 1.5 0 011.05-.386 1.342 1.342 0 011.227.844l2.533 5.197 2.366-5.197a1.37 1.37 0 011.277-.844 1.467 1.467 0 011.494 1.391c-.005.226-.055.45-.148.656m13.896-.388v10.85a1.455 1.455 0 01-.86 1.448 1.44 1.44 0 01-1.947-.858 1.46 1.46 0 01-.074-.59v-9.807h-6.027v9.806c0 .385-.152.754-.423 1.026a1.442 1.442 0 01-2.044 0 1.453 1.453 0 01-.423-1.026v-10.85a1.398 1.398 0 01.381-1.083 1.385 1.385 0 011.064-.426h8.907a1.379 1.379 0 011.064.426 1.39 1.39 0 01.382 1.084zm5.245-.129a2.274 2.274 0 012.059-1.6 2.182 2.182 0 012.058 1.6l3.771 10.512c.092.225.145.463.159.705a1.31 1.31 0 01-.833 1.196 1.29 1.29 0 01-.504.086 1.334 1.334 0 01-1.395-.994l-.584-1.808h-5.345l-.574 1.798a1.351 1.351 0 01-1.385.994 1.382 1.382 0 01-1.305-.822 1.393 1.393 0 01-.12-.53c0-.219.047-.436.138-.635l3.86-10.502zm.218 7.014h3.652l-1.792-5.603-1.86 5.604zm9.382-7.084a1.406 1.406 0 01.416-1.025 1.393 1.393 0 011.029-.395 1.353 1.353 0 011.427.838c.075.185.108.384.098.582V20l4.691-5.097a1.507 1.507 0 011.118-.536 1.393 1.393 0 011.305.853c.072.17.109.353.111.538 0 .497-.307.904-.99 1.54l-3.632 3.587 4.444 4.66a2.139 2.139 0 01.801 1.47 1.351 1.351 0 01-.449 1.002 1.328 1.328 0 01-1.045.33c-.564 0-.921-.339-1.465-.915l-4.949-5.405v4.968c-.001.187-.04.373-.113.545a1.394 1.394 0 01-1.332.846 1.349 1.349 0 01-1.028-.376 1.364 1.364 0 01-.417-1.015V15.827m11.234 5.564c0-3.974 2.702-7.104 6.621-7.104 3.919 0 6.621 3.18 6.621 7.104 0 3.925-2.682 7.104-6.621 7.104-3.939 0-6.621-3.11-6.621-7.104zm10.234 0c0-2.335-1.208-4.441-3.613-4.441-2.405 0-3.612 2.106-3.612 4.441s1.167 4.441 3.612 4.441c2.445 0 3.613-2.086 3.613-4.441zm4.889-5.425a1.394 1.394 0 01.936-1.383c.189-.064.39-.087.588-.067h3.692a3.379 3.379 0 012.528.904 3.417 3.417 0 011.084 2.464 2.87 2.87 0 01-.432 1.71c-.32.511-.792.907-1.349 1.132a3.359 3.359 0 012.919 3.279c0 2.722-1.811 4.192-4.463 4.192h-3.959a1.42 1.42 0 01-1.408-.813 1.42 1.42 0 01-.136-.558v-10.86zm2.89 3.975h1.504a1.41 1.41 0 001.466-.911c.074-.194.104-.402.088-.61a1.392 1.392 0 00-.977-1.319 1.378 1.378 0 00-.577-.052h-1.504v2.892zm0 5.762h2.266a1.636 1.636 0 001.287-.432 1.653 1.653 0 00.524-1.257c0-.904-.692-1.52-2.038-1.52h-2.039v3.21zm8.343-4.312c0-3.974 2.692-7.104 6.612-7.104 3.919 0 6.621 3.18 6.621 7.104 0 3.925-2.672 7.104-6.621 7.104-3.949 0-6.612-3.11-6.612-7.104zm10.234 0c0-2.335-1.217-4.441-3.622-4.441s-3.643 2.106-3.643 4.441 1.168 4.441 3.613 4.441c2.445 0 3.622-2.086 3.622-4.441h.03zm12.362-5.494a1.445 1.445 0 01.377-1.103 1.44 1.44 0 012.126 0 1.46 1.46 0 01.377 1.103v10.929a1.463 1.463 0 01-.377 1.102 1.443 1.443 0 01-2.503-1.102v-3.309h-2.346c-3.028 0-5.354-1.868-5.354-4.63v-2.99c0-.389.154-.762.427-1.037a1.457 1.457 0 012.492 1.037v2.821c0 1.332 1.168 2.127 2.653 2.127h2.158v-4.948m5.275 0a1.448 1.448 0 011.998-1.34 1.458 1.458 0 01.782.785c.073.176.11.364.11.555v4.093h6.037v-4.093a1.467 1.467 0 01.423-1.026 1.458 1.458 0 011.022-.425 1.438 1.438 0 011.022.425 1.443 1.443 0 01.423 1.026v10.929a1.448 1.448 0 01-1.998 1.34 1.458 1.458 0 01-.782-.785 1.467 1.467 0 01-.11-.555v-4.163h-6.037v4.213a1.448 1.448 0 01-1.998 1.34 1.447 1.447 0 01-.892-1.34v-10.98zm19.111 3.875c2.791 0 4.801 1.311 4.801 4.202 0 2.733-1.802 4.293-4.454 4.293h-3.682a1.42 1.42 0 01-1.419-.864 1.43 1.43 0 01-.115-.577v-10.93a1.445 1.445 0 01.377-1.102 1.44 1.44 0 012.126 0 1.46 1.46 0 01.377 1.103v3.875h1.979m-1.979 5.96h1.979a1.704 1.704 0 001.291-.49 1.733 1.733 0 00.511-1.288c0-.914-.693-1.629-1.98-1.629h-1.761l-.04 3.408zm9.808-11.326a1.373 1.373 0 011.368.912c.067.185.093.382.077.579v10.929a1.446 1.446 0 01-.377 1.102 1.44 1.44 0 01-2.126 0 1.46 1.46 0 01-.377-1.102v-10.93a1.378 1.378 0 011.435-1.49zm3.88 1.789c0-.994.475-1.68 1.495-1.68h4.77a1.271 1.271 0 01.979.388 1.283 1.283 0 01.357.994c.005.18-.028.358-.096.524a1.296 1.296 0 01-1.27.807h-3.384v2.822h3.157a1.305 1.305 0 011.405 1.331c.001.182-.036.362-.108.529a1.318 1.318 0 01-.765.725c-.17.062-.351.088-.532.078h-3.157v2.98h3.563a1.275 1.275 0 011.365 1.332 1.316 1.316 0 01-.396.962 1.31 1.31 0 01-.969.369h-4.949a1.398 1.398 0 01-1.078-.432 1.411 1.411 0 01-.387-1.098V16.195zM91.055 43.359h-2.078a1.242 1.242 0 01-1.23-.813 1.257 1.257 0 01-.077-.518 1.307 1.307 0 01.81-1.197 1.3 1.3 0 01.497-.095h7.076a1.291 1.291 0 011.228.826c.064.164.094.34.089.515a1.257 1.257 0 01-.799 1.251c-.165.063-.341.09-.518.08h-2.088v9.688a1.453 1.453 0 01-.892 1.34 1.44 1.44 0 01-1.888-.785 1.455 1.455 0 01-.11-.555v-9.737m7.621-.984c0-.993.485-1.689 1.504-1.689h4.771a1.283 1.283 0 011.276.813c.066.168.097.348.09.528a1.316 1.316 0 01-.843 1.248 1.305 1.305 0 01-.523.084h-3.385v2.811h3.157a1.295 1.295 0 011.298.8c.069.169.103.35.098.532a1.326 1.326 0 01-.863 1.263 1.31 1.31 0 01-.533.078h-3.157v2.98h3.553a1.272 1.272 0 011.276.805c.067.167.097.347.09.527a1.306 1.306 0 01-.841 1.25 1.289 1.289 0 01-.525.082h-4.948a1.4 1.4 0 01-1.383-.88 1.415 1.415 0 01-.102-.571v-10.66m13.638 4.708l-3.117-4.252a1.342 1.342 0 01-.307-.845 1.375 1.375 0 01.423-1.029 1.372 1.372 0 011.042-.381 1.668 1.668 0 011.247.715l2.385 3.418 2.385-3.398a1.639 1.639 0 011.247-.715 1.37 1.37 0 011.042.381 1.383 1.383 0 01.423 1.03 1.403 1.403 0 01-.307.844l-3.117 4.252 3.81 5.137c.206.29.32.637.327.993a1.361 1.361 0 01-1.465 1.352 1.407 1.407 0 01-1.198-.636l-3.147-4.402-3.167 4.372a1.388 1.388 0 01-1.198.636 1.34 1.34 0 01-1.023-.355 1.354 1.354 0 01-.431-.996c.002-.358.116-.705.326-.994l3.811-5.136m9.125-4.998c0-.385.152-.754.423-1.026a1.441 1.441 0 012.044 0c.27.272.423.641.423 1.026v4.093h6.037v-4.093a1.46 1.46 0 01.86-1.448 1.439 1.439 0 011.643.346 1.445 1.445 0 01.377 1.102v10.929a1.445 1.445 0 01-.377 1.102 1.438 1.438 0 01-2.126 0 1.46 1.46 0 01-.377-1.102v-4.163h-6.037v4.203a1.443 1.443 0 11-2.89 0v-10.93m13.698 5.445c0-3.974 2.702-7.103 6.621-7.103 3.919 0 6.611 3.189 6.611 7.103 0 3.915-2.672 7.084-6.611 7.084-3.939 0-6.621-3.11-6.621-7.113m10.234 0c0-2.335-1.208-4.442-3.613-4.442-2.405 0-3.612 2.107-3.612 4.442s1.167 4.44 3.612 4.44c2.445 0 3.613-2.056 3.613-4.41v-.03zm13.866 7.024a1.373 1.373 0 01-1.366-.927 1.406 1.406 0 01-.07-.583V43.24h-3.81v4.322c0 2.185-.594 4.66-2.158 6.01a3.466 3.466 0 01-2.286.994 1.236 1.236 0 01-1.306-1.331c0-.676.326-.994 1.078-1.351.753-.358 1.782-1.57 1.782-3.726v-5.962a1.404 1.404 0 01.881-1.363c.18-.071.371-.104.564-.097h6.691a1.395 1.395 0 011.445 1.51v10.8a1.394 1.394 0 01-.868 1.413c-.183.073-.38.106-.577.097zm3.335-6.995c0-3.974 2.692-7.103 6.611-7.103 3.92 0 6.622 3.189 6.622 7.103 0 3.915-2.623 7.084-6.582 7.084-3.959 0-6.611-3.11-6.611-7.113m10.233 0c0-2.335-1.217-4.442-3.622-4.442s-3.613 2.107-3.613 4.442 1.178 4.44 3.613 4.44 3.583-2.056 3.583-4.41l.039-.03zm4.85-5.336a1.46 1.46 0 01.441-1.054 1.436 1.436 0 011.064-.406h4.948a1.336 1.336 0 011.221 1.336 1.336 1.336 0 01-1.221 1.336h-3.543v9.687a1.46 1.46 0 01-.86 1.448 1.437 1.437 0 01-1.643-.345 1.445 1.445 0 01-.377-1.103V42.196m19.567 12.36a1.372 1.372 0 01-1.366-.927 1.39 1.39 0 01-.069-.583v-7.203l-6.236 8.077a1.662 1.662 0 01-1.207.636 1.382 1.382 0 01-1.371-.926 1.394 1.394 0 01-.074-.584v-10.93a1.445 1.445 0 01.377-1.101 1.44 1.44 0 012.126 0 1.46 1.46 0 01.377 1.102v7.263l6.235-8.167a1.646 1.646 0 011.208-.636 1.371 1.371 0 011.371.918c.066.187.091.385.074.582v10.93a1.394 1.394 0 01-.867 1.412 1.385 1.385 0 01-.578.098m14.242.039a1.374 1.374 0 01-1.435-1.51v-7.203h-.049l-6.186 8.077a1.692 1.692 0 01-1.218.636 1.367 1.367 0 01-1.061-.426 1.375 1.375 0 01-.374-1.084v-10.93a1.463 1.463 0 01.377-1.101 1.443 1.443 0 012.503 1.102v7.263l6.236-8.167a1.629 1.629 0 011.207-.636 1.369 1.369 0 011.064.419 1.385 1.385 0 01.381 1.081v10.93a1.394 1.394 0 01-.867 1.412 1.385 1.385 0 01-.578.098"/><path fill-rule="evenodd" clip-rule="evenodd" d="M62.145 0h-.079a4.642 4.642 0 00-3.285 1.354 4.679 4.679 0 00-1.377 3.286 4.68 4.68 0 001.366 3.276 4.643 4.643 0 003.266 1.364h.08a4.653 4.653 0 003.244-1.378 4.689 4.689 0 001.358-3.262 4.679 4.679 0 00-1.345-3.255A4.643 4.643 0 0062.145 0zm0 8.545a3.847 3.847 0 01-2.855-1.062 3.875 3.875 0 01-1.2-2.808 3.887 3.887 0 011.2-2.809A3.858 3.858 0 0162.145.805 3.847 3.847 0 0165 1.866a3.875 3.875 0 011.2 2.809A3.887 3.887 0 0165 7.483a3.858 3.858 0 01-2.855 1.062z"/><path fill-rule="evenodd" clip-rule="evenodd" d="M63.501 5.415a3.154 3.154 0 00-.544-.447 1.62 1.62 0 00.99-.487c.24-.236.378-.557.385-.894a1.734 1.734 0 00-.227-.815 1.238 1.238 0 00-.604-.457 3.077 3.077 0 00-1.178-.159h-2.138v5.067h.99V5.097h.188c.177-.007.354.013.525.06a.91.91 0 01.247.168h.06l.534.746.723 1.112h1.217l-.604-.993a5.257 5.257 0 00-.574-.835m-1.346-1.073h-.99V3.04h1.535a.583.583 0 01.503.384.49.49 0 01.021.212.826.826 0 01-.089.388.751.751 0 01-.307.199c-.222.04-.447.06-.673.06z"/></g><defs><clipPath id="clip0_68_577"><path fill="#fff" d="M0 0h213v74H0z"/></clipPath></defs></svg>