<svg width="26" height="24" fill="none" xmlns="http://www.w3.org/2000/svg"><path d="M19.008 14.379c0-.106.052-.159.052-.264 0-.53-.415-1.005-.932-1.058h-4.714L10.152 24h6.008l2.848-9.621z" fill="#2C2C2C"/><path d="M6.837 12.106c0-2.802 2.227-5.128 5.024-5.128a4.62 4.62 0 012.537.74h8.494C21.183 3.172 16.884 0 11.861 0 5.335 0 0 5.445 0 12.106c0 5.762 3.936 10.572 9.22 11.788l1.967-6.713c-2.434-.318-4.35-2.485-4.35-5.075z" fill="#2C2C2C"/><path d="M26 12.317c0-1.956-1.554-3.542-3.47-3.542h-7.873l-.984 3.278h4.506c.984 0 1.813.846 1.813 1.85 0 .264-.052.476-.155.687L17.04 24h5.594l3.107-10.52c.052-.106.052-.158.052-.264l.052-.106a2.16 2.16 0 00.155-.793z" fill="#2C2C2C"/></svg>