<svg width="35" height="35" fill="none" xmlns="http://www.w3.org/2000/svg"><path d="M20.416 24.792a2.917 2.917 0 10-5.833 0 2.917 2.917 0 005.833 0z" fill="#84BD00"/><path d="M21.875 18.958h-.75c0 .236.11.458.3.6l.45-.6zm-8.75 0l.45.6a.75.75 0 00.3-.6h-.75zm3.625 5.834a.75.75 0 001.5 0h-1.5zm1.5-17.5a.75.75 0 00-1.5 0h1.5zM28.416 8.75a.75.75 0 001.5 0h-1.5zm1.5-5.833a.75.75 0 10-1.5 0h1.5zM26.25 5.083a.75.75 0 000 1.5v-1.5zm5.833 1.5a.75.75 0 000-1.5v1.5zm-8.042 18.209a6.542 6.542 0 01-6.541 6.541v1.5a8.04 8.04 0 008.041-8.041h-1.5zM17.5 31.333a6.542 6.542 0 01-6.542-6.541h-1.5c0 4.441 3.6 8.041 8.042 8.041v-1.5zm0-27.666a3.625 3.625 0 013.625 3.625h1.5A5.125 5.125 0 0017.5 2.167v1.5zm0-1.5a5.125 5.125 0 00-5.125 5.125h1.5A3.625 3.625 0 0117.5 3.667v-1.5zm3.625 5.125v11.666h1.5V7.292h-1.5zm.3 12.266a6.53 6.53 0 012.616 5.234h1.5a8.03 8.03 0 00-3.216-6.434l-.9 1.2zm-7.55-.6V7.292h-1.5v11.666h1.5zm-2.917 5.834a6.53 6.53 0 012.617-5.235l-.9-1.199a8.03 8.03 0 00-3.217 6.434h1.5zm7.292 0v-17.5h-1.5v17.5h1.5zM29.916 8.75V2.917h-1.5V8.75h1.5zM26.25 6.583h5.833v-1.5H26.25v1.5z" fill="#84BD00"/></svg>