<svg width="35" height="35" fill="none" xmlns="http://www.w3.org/2000/svg"><path fill-rule="evenodd" clip-rule="evenodd" d="M29.453 13.412l.076.077h-4.737a4.74 4.74 0 01-4.74-4.739V4.012l.078.076 9.323 9.324zM17.865 8.75V2.956a4 4 0 00-.563-.04H8.375a4 4 0 00-4 4v21.167a4 4 0 004 4h18.25a4 4 0 004-4V16.24c0-.19-.013-.377-.04-.563h-5.793a6.927 6.927 0 01-6.927-6.927zm-8.478 17.5v-6.264h2.029c.77 0 1.27.032 1.504.095.359.093.66.299.901.615.242.313.364.719.364 1.217 0 .385-.07.708-.21.97a1.73 1.73 0 01-.534.62 1.834 1.834 0 01-.654.295c-.301.06-.739.09-1.311.09h-.825v2.362H9.387zm1.264-5.204v1.777h.692c.499 0 .832-.032 1-.098a.834.834 0 00.538-.795.81.81 0 00-.2-.564.875.875 0 00-.509-.277c-.15-.029-.454-.043-.91-.043h-.61zm4.568-1.06h2.31c.522 0 .92.04 1.193.12.367.108.682.3.944.577.262.276.462.615.598 1.017.137.399.205.891.205 1.478 0 .516-.064.96-.192 1.333-.157.456-.38.825-.67 1.107-.22.213-.516.38-.89.5-.278.088-.652.132-1.119.132h-2.38v-6.264zm1.264 1.06v4.149h.944c.354 0 .608-.02.765-.06a1.15 1.15 0 00.509-.26c.136-.123.247-.324.333-.603.085-.282.128-.665.128-1.15 0-.484-.043-.855-.128-1.115a1.433 1.433 0 00-.36-.606 1.204 1.204 0 00-.584-.295c-.177-.04-.523-.06-1.039-.06h-.568zm5.072-1.06v6.264h1.264v-2.662h2.615v-1.06h-2.615v-1.482h3.03v-1.06h-4.294z" fill="#84BD00"/></svg>