<svg width="35" height="35" fill="none" xmlns="http://www.w3.org/2000/svg"><path fill-rule="evenodd" clip-rule="evenodd" d="M29.453 11.953c.133.133.255.274.367.422h-5.403a3.25 3.25 0 01-3.25-3.25V3.722c.148.111.289.234.421.366l7.865 7.865zm-9.786-2.828V3.021a3.999 3.999 0 00-.907-.104H8.375a4 4 0 00-4 4v21.166a4 4 0 004 4h18.25a4 4 0 004-4V14.782a3.98 3.98 0 00-.104-.907h-6.104a4.75 4.75 0 01-4.75-4.75zm2.772 8.869a.75.75 0 10-1.128-.988l-4.474 5.113a.25.25 0 01-.345.03l-2.899-2.318a.75.75 0 10-.937 1.171l2.9 2.32a1.75 1.75 0 002.41-.215l4.473-5.113z" fill="#84BD00"/></svg>