<svg width="35" height="35" fill="none" xmlns="http://www.w3.org/2000/svg"><path d="M31.16 14.813l-.512.547.513-.547zm-4.07-3.816l.514-.547-.513.547zM8.75 5.125h5.833v-1.5H8.749v1.5zm10.916 5.083v17.5h1.5v-17.5h-1.5zm-16 11.667V10.208h-1.5v11.667h1.5zm10.917-16.75a5.083 5.083 0 015.083 5.083h1.5a6.583 6.583 0 00-6.583-6.583v1.5zm-5.834-1.5a6.583 6.583 0 00-6.583 6.583h1.5a5.083 5.083 0 015.083-5.083v-1.5zm11.667 7.333h4.68v-1.5h-4.68v1.5zm6.162.586l4.07 3.816 1.026-1.094-4.07-3.816-1.026 1.094zm4.755 5.397v7.85h1.5v-7.85h-1.5zm-.685-1.581c.437.41.685.982.685 1.58h1.5c0-1.013-.42-1.981-1.16-2.674l-1.025 1.094zm-1.482 13.098a3.667 3.667 0 003.667-3.666h-1.5c0 1.196-.97 2.166-2.167 2.166v1.5zm-4.07-17.5c.55 0 1.08.21 1.482.586l1.026-1.094a3.667 3.667 0 00-2.508-.992v1.5zm-12.722 16.75c0 1.197-.97 2.167-2.166 2.167v1.5a3.667 3.667 0 003.666-3.667h-1.5zm-2.166 2.167a2.167 2.167 0 01-2.167-2.167h-1.5a3.667 3.667 0 003.667 3.667v-1.5zm0-4.333c1.196 0 2.166.97 2.166 2.166h1.5a3.667 3.667 0 00-3.666-3.666v1.5zm18.208 2.166c0 1.197-.97 2.167-2.167 2.167v1.5a3.667 3.667 0 003.667-3.667h-1.5zm-2.167 2.167a2.167 2.167 0 01-2.166-2.167h-1.5a3.667 3.667 0 003.666 3.667v-1.5zm-2.166-2.167c0-1.196.97-2.166 2.166-2.166v-1.5a3.667 3.667 0 00-3.666 3.666h1.5zm2.166-2.166c1.197 0 2.167.97 2.167 2.166h1.5a3.667 3.667 0 00-3.667-3.666v1.5zm-5.833 2.916h2.917v-1.5h-2.917v1.5zm-12.375-.75c0-.045.001-.09.004-.136l-1.497-.092a3.719 3.719 0 00-.007.228h1.5zm.004-.136a2.167 2.167 0 012.163-2.03v-1.5a3.667 3.667 0 00-3.66 3.438l1.497.092zm-.562-.773a5.086 5.086 0 01-3.817-4.924h-1.5a6.586 6.586 0 004.944 6.378l.373-1.454zm5.641 1.66h7.292v-1.5h-7.292v1.5z" fill="#84BD00"/></svg>