<svg width="35" height="35" fill="none" xmlns="http://www.w3.org/2000/svg"><path d="M17.5 32.833a.75.75 0 100-1.5v1.5zm13.833-12.416a.75.75 0 001.5 0h-1.5zM6.916 3.667h21.167v-1.5H6.916v1.5zm-3.25 24.416V6.917h-1.5v21.166h1.5zm13.833 3.25H6.916v1.5h10.583v-1.5zM31.333 6.917v13.5h1.5v-13.5h-1.5zM2.166 28.083a4.75 4.75 0 004.75 4.75v-1.5a3.25 3.25 0 01-3.25-3.25h-1.5zM28.083 3.667a3.25 3.25 0 013.25 3.25h1.5a4.75 4.75 0 00-4.75-4.75v1.5zm-21.167-1.5a4.75 4.75 0 00-4.75 4.75h1.5a3.25 3.25 0 013.25-3.25v-1.5z" fill="#84BD00"/><path d="M11.666 2.917v-.75a.75.75 0 00-.75.75h.75zm11.667 0h.75a.75.75 0 00-.75-.75v.75zm-6.54 9.457l-.531-.53.53.53zm-5.127-8.707h11.667v-1.5H11.666v1.5zm10.917-.75v12.169h1.5V2.916h-1.5zM12.416 15.086V2.916h-1.5v12.17h1.5zm9.74.176l-3.42-3.419-1.06 1.061 3.42 3.42 1.06-1.062zm-5.894-3.419l-3.42 3.42 1.061 1.06 3.42-3.419-1.061-1.06zm2.475 0a1.75 1.75 0 00-2.475 0l1.06 1.061a.25.25 0 01.354 0l1.06-1.06zm-7.821 3.243c0 1.559 1.885 2.34 2.987 1.237l-1.06-1.06a.25.25 0 01-.427-.177h-1.5zm11.667 0a.25.25 0 01-.427.176l-1.06 1.061c1.102 1.103 2.987.322 2.987-1.237h-1.5zm-.24 13.495a.75.75 0 00-.936 1.171l.936-1.171zm8.846-1.837a.75.75 0 10-1.128-.988l1.128.988zm-6.415 4.742l-.469.585.469-.585zm-3.367-1.734l2.898 2.32.937-1.172-2.899-2.319-.936 1.171zm5.308 2.105l4.474-5.113-1.128-.988-4.474 5.113 1.128.988zm-2.41.214a1.75 1.75 0 002.41-.214l-1.128-.988a.25.25 0 01-.345.03l-.937 1.172z" fill="#84BD00"/></svg>