<svg width="35" height="35" fill="none" xmlns="http://www.w3.org/2000/svg"><circle cx="17.5" cy="20.417" r="5.833" stroke="#84BD00" stroke-width="1.5"/><path d="M18.958 20.417H17.5v-2.188" stroke="#84BD00" stroke-width="1.5" stroke-linecap="round" stroke-linejoin="round"/><path d="M31.207 9.113l-.585.468.585-.468zm.127 2.498v16.472h1.5V11.612h-1.5zm-3.25 19.722H6.917v1.5h21.167v-1.5zm-24.417-3.25V11.612h-1.5v16.471h1.5zm7.006-24.416h13.655v-1.5H10.673v1.5zm16.193 1.22l3.756 4.694 1.17-.937-3.755-4.695-1.171.937zM4.379 9.58l3.756-4.695-1.171-.937-3.756 4.695 1.171.937zm19.949-5.914a3.25 3.25 0 012.538 1.22l1.171-.938a4.75 4.75 0 00-3.71-1.782v1.5zm-13.655-1.5a4.75 4.75 0 00-3.71 1.782l1.172.937a3.25 3.25 0 012.538-1.22v-1.5zM6.917 31.333a3.25 3.25 0 01-3.25-3.25h-1.5a4.75 4.75 0 004.75 4.75v-1.5zm24.417-3.25a3.25 3.25 0 01-3.25 3.25v1.5a4.75 4.75 0 004.75-4.75h-1.5zm1.5-16.471a4.75 4.75 0 00-1.041-2.968l-1.171.937a3.25 3.25 0 01.712 2.03h1.5zm-29.167 0c0-.739.251-1.454.712-2.03l-1.171-.938a4.75 4.75 0 00-1.041 2.967h1.5z" fill="#84BD00"/><path d="M4.375 10.208h26.25" stroke="#84BD00" stroke-width="1.5" stroke-linecap="round" stroke-linejoin="round"/></svg>