<svg xmlns="http://www.w3.org/2000/svg" viewBox="0 0 279.5 104"><path d="M121.7 23.8v24.8h-2.5V26h-5.9v-2.3l8.4.1zm10.7 23.5c-1.5-1-2.7-2.5-3.5-4.4-.8-1.9-1.3-4.1-1.3-6.7 0-2.6.4-4.8 1.3-6.7s2-3.4 3.5-4.4c1.5-1 3.2-1.5 5.1-1.5s3.6.5 5.1 1.5c1.5 1 2.7 2.5 3.5 4.4s1.3 4.1 1.3 6.7c0 2.6-.4 4.8-1.3 6.7-.8 1.9-2 3.4-3.5 4.4-1.5 1-3.2 1.5-5.1 1.5s-3.6-.5-5.1-1.5zm8.9-2c1.1-.8 2-2 2.5-3.5.6-1.5.9-3.4.9-5.6s-.3-4-.9-5.6c-.6-1.5-1.5-2.7-2.5-3.5-1.1-.8-2.4-1.2-3.8-1.2s-2.7.4-3.8 1.2c-1.1.8-2 2-2.5 3.5-.6 1.5-.9 3.4-.9 5.6s.3 4 .9 5.6c.6 1.5 1.5 2.7 2.5 3.5 1.1.8 2.4 1.2 3.8 1.2s2.7-.5 3.8-1.2zm14.5 2c-1.5-1-2.7-2.5-3.5-4.4-.8-1.9-1.3-4.1-1.3-6.7 0-2.6.4-4.8 1.3-6.7s2-3.4 3.5-4.4c1.5-1 3.2-1.5 5.1-1.5s3.6.5 5.1 1.5c1.5 1 2.7 2.5 3.5 4.4s1.3 4.1 1.3 6.7c0 2.6-.4 4.8-1.3 6.7-.8 1.9-2 3.4-3.5 4.4-1.5 1-3.2 1.5-5.1 1.5s-3.6-.5-5.1-1.5zm8.9-2c1.1-.8 2-2 2.5-3.5.6-1.5.9-3.4.9-5.6s-.3-4-.9-5.6c-.6-1.5-1.5-2.7-2.5-3.5-1.1-.8-2.4-1.2-3.8-1.2s-2.7.4-3.8 1.2c-1.1.8-2 2-2.5 3.5-.6 1.5-.9 3.4-.9 5.6s.3 4 .9 5.6c.6 1.5 1.5 2.7 2.5 3.5 1.1.8 2.4 1.2 3.8 1.2s2.7-.5 3.8-1.2zm10.9-10.1c-1-1.2-1.5-2.8-1.5-4.9 0-2 .5-3.6 1.5-4.9 1-1.2 2.4-1.9 4-1.9s3 .6 4 1.8c1 1.2 1.6 2.8 1.6 4.9s-.5 3.7-1.6 4.9c-1 1.2-2.4 1.8-4 1.8-1.6.2-2.9-.5-4-1.7zm6.9-1.1c.7-.9 1.1-2.2 1.1-3.8s-.3-2.8-1.1-3.8c-.7-.9-1.6-1.4-2.8-1.4-1.2 0-2.1.5-2.8 1.4s-1 2.2-1 3.7c0 1.6.3 2.8 1 3.7.7.9 1.6 1.4 2.8 1.4 1.2.2 2.1-.3 2.8-1.2zm12.2-10.3h2.1l-16.9 24.8h-2.1l16.9-24.8zm-3.9 23.1c-1-1.2-1.6-2.8-1.6-4.9 0-2 .5-3.6 1.6-4.9 1-1.2 2.4-1.9 4-1.9s3 .6 4 1.9c1 1.2 1.5 2.8 1.5 4.9 0 2-.5 3.6-1.5 4.9-1 1.2-2.4 1.9-4 1.9-1.5 0-2.9-.6-4-1.9zm6.9-1.1c.7-.9 1-2.2 1-3.7 0-1.6-.3-2.8-1-3.7-.7-.9-1.6-1.4-2.8-1.4-1.1 0-2.1.5-2.8 1.4s-1.1 2.2-1.1 3.8c0 1.6.3 2.8 1.1 3.8.7.9 1.6 1.4 2.8 1.4 1.2-.2 2.1-.7 2.8-1.6zM96.6 23.6H98V80h-1.4zm-55.5 8l4.4 7.7-6.6 3.8 20.8 5.5 5.6-20.8-6.6 3.8-8.8-15.3c-2-3.4-5.4-5.1-8.8-5.1h-2.2c-.1 0-.3 0-.4.1-.1 0-.2 0-.3.1-.1 0-.3.1-.4.1-.1 0-.2 0-.3.1-.1 0-.3.1-.4.1 0 .3-.1.3-.2.3s-.3.1-.3.2c-.1 0-.2.1-.3.1-.1 0-.3.1-.3.2-.1 0-.1.1-.2.1-.1.1-.3.1-.3.2-.1 0-.1.1-.2.1l-.3.3c-.1 0-.1.1-.2.2l-.3.3-.2.2-.3.3-.2.2-.3.3-.2.2c-.1.1-.2.3-.3.3 0 0-.1.1-.1.2-.1.1-.2.3-.3.4 0 0-.1.1-.1.2s-.1.2-.2.3c0 .1-.1.2-.2.3L19.6 38l13.3 7.6 8.2-14zM23 37l10.7-18.3L39.6 29l-.7 1.2-7 11.9L23 37zm.7 24.6l6.6 3.8-5.6-20.8-20.8 5.6 6.6 3.8-8.8 15.3c-.1.2-.3.4-.3.6 0 .1-.1.2-.1.3s-.2.3-.3.4c0 .1-.1.2-.1.3 0 .1-.1.2-.1.3s0 .2-.1.3c0 .1-.1.2-.1.3 0 .1 0 .2-.1.3 0 .1 0 .2-.1.3v3.3c0 .1 0 .2.1.3 0 .1 0 .2.1.3 0 .1 0 .2.1.3 0 .1 0 .2.1.3 0 .1.1.2.1.3 0 .6.1.7.1.8 0 .1.1.2.1.3 0 .1.1.2.1.3 0 .1.1.2.2.3 0 .1.1.2.1.3 0 .1.1.2.2.3 0 .1.1.2.1.3 0 .1.1.2.2.3 0 .1.1.2.2.2.1.1.1.2.2.3 0 .1.1.1.2.2l.3.3c0 .1.1.1.2.2l.3.3c0 .1.1.1.2.2-.1.1 0 .2.1.2s.1.1.2.2l.3.3c.1 0 .1.1.2.2l.3.3c.1 0 .1.1.2.1.1.1.2.1.3.2.1 0 .1.1.2.1.1.1.3.1.3.2.1 0 .1.1.2.1s.3.1.4.2c.1 0 .2 0 .2.1.1 0 .3.1.4.2.1 0 .2 0 .2.1.1 0 .3.1.4.1h.2c.1 0 .3.1.5.1h.2c.2 0 .3 0 .5.1h1.5l24.9.1V69.4L19 69.3l4.7-7.7zM33 71.9v10.3l-21.2-.1 6-10.3h1.4l13.8.1zm45.5 9.6l.3-.3.1-.1c.1-.1.2-.3.3-.3 0 0 .1-.1.1-.2.1-.1.2-.3.3-.4 0 0 .1-.1.1-.2.1-.1.2-.3.2-.4 0 0 .1-.1.1-.2.1-.1.1-.3.2-.4 0 0 0-.1.1-.2 0-.1.1-.3.2-.4 0-.1 0-.1.1-.2 0-.1.1-.3.2-.4 0-.1 0-.1.1-.2 0-.1.1-.3.1-.4V77c0-.1.1-.3.1-.4v-.2c0-.1 0-.3.1-.4v-2.6c0-.1 0-.3-.1-.4v-.2c0-.1 0-.3-.1-.4v-.2c0-.1-.1-.3-.1-.4 0-.1 0-.2-.1-.2 0-.1-.1-.3-.2-.4 0-.1 0-.2-.1-.2 0-.1-.1-.3-.2-.4 0-.1-.1-.2-.1-.2 0-.1-.1-.2-.1-.3 0-.1-.1-.2-.1-.3L67.6 47.9l-13.3 7.7 8.1 14.2h-8.9v-7.6L38.3 77.4l15.2 15.2V85h18.4c.2 0 .4 0 .6-.1h.1c.2 0 .4 0 .6-.1h.1c.2 0 .3-.1.5-.1h.2c.2 0 .3-.1.5-.2h.1c.2 0 .3-.1.5-.2 0 0 .1 0 .1-.1.2-.1.3-.1.5-.2 0 0 .1 0 .1-.1.1-.1.3-.2.4-.3 0 0 .1 0 .1-.1.1-.1.3-.2.4-.3l.1-.1c.1-.1.3-.2.4-.3l.1-.1c.1-.1.3-.2.3-.3l.1-.1.3-.3c.4-.3.5-.4.5-.5zM64.6 68.3l-6.8-12 8.9-5.1 10.6 18.4h-12l-.7-1.3zm54.9-4.6h3.3v-2.5h.8V67h-.8v-2.7h-3.3V67h-.8v-5.9h.8v2.6zm7.3 3.4c-.3 0-.5 0-.8-.1-.2-.1-.4-.2-.6-.4-.2-.2-.3-.4-.4-.6-.1-.2-.1-.5-.1-.7 0-.3.1-.5.2-.7.1-.2.3-.4.5-.6.2-.2.5-.3.8-.4.3-.1.6-.1 1-.1.3 0 .6 0 .9.1.3.1.6.1.8.2v-.5c0-.5-.1-.9-.4-1.2-.3-.3-.7-.5-1.2-.5-.3 0-.6.1-.9.2-.3.1-.6.3-1 .5l-.3-.5c.8-.5 1.5-.8 2.2-.8.7 0 1.3.2 1.7.6.4.4.6 1 .6 1.7V66c0 .2.1.3.3.3v.7h-.3c-.2 0-.3 0-.5-.1-.1-.1-.2-.2-.2-.4V66c-.3.4-.6.6-1 .8-.4.2-.8.3-1.3.3zm.2-.6c.4 0 .8-.1 1.1-.2.3-.2.6-.4.8-.6l.2-.2c0-.1.1-.2.1-.2v-1c-.3-.1-.5-.2-.8-.2-.3-.1-.6-.1-.8-.1-.5 0-1 .1-1.3.3-.3.2-.5.5-.5.9 0 .2 0 .4.1.5.1.2.2.3.3.4.1.1.3.2.4.3 0 .1.2.1.4.1zm4.5.5v-5.9h.8v5.2h2.2v-5.2h.8v5.2h2.2v-5.2h.8V67h-6.8zm9.2-1.1l3.5-4.8h.6V67h-.8v-4.7l-3.5 4.7h-.7v-5.9h.8v4.8zm6-4.8l1.8 2.3.1.2.1-.2 1.8-2.3h.8l-2.3 3 2.3 2.9h-.8l-1.8-2.3-.1-.2-.1.2-1.8 2.3h-.8l2.3-2.9-2.3-3h.8zm8.6-2.1h6.2v8h-.8v-7.3h-4.6V67h-.8v-8zm10.9 8.1c-.4 0-.7 0-1-.1-.3-.1-.6-.2-.9-.4-.3-.2-.5-.4-.8-.6-.2-.2-.4-.5-.5-.8l.7-.3c.1.3.3.5.5.7.2.2.4.3.6.5.2.1.5.2.7.3.2.1.5.1.7.1.4 0 .8-.1 1.2-.3.4-.2.7-.4 1-.7.3-.3.5-.6.6-1 .2-.4.3-.8.3-1.2h-4.1v-.7h4.1c0-.4-.1-.7-.3-1.1-.1-.4-.3-.7-.6-.9-.3-.3-.6-.5-.9-.7-.4-.2-.8-.2-1.3-.2-.2 0-.5 0-.7.1-.2 0-.5.1-.7.2-.2.1-.4.3-.6.4-.2.2-.4.4-.5.7l-.6-.4c.3-.5.6-.9 1.1-1.3.5-.3 1.1-.5 1.9-.5.6 0 1.2.1 1.7.4.5.2.9.5 1.2.9s.6.8.7 1.3c.2.5.2 1 .2 1.4 0 .5-.1 1-.3 1.5-.2.5-.4.9-.8 1.3-.3.4-.7.7-1.2.9-.3.4-.9.5-1.4.5zm10.6-7.4H174V67h-.8v-7.3h-2.9V59h6.5v.7zm4.7 6.2l3.5-4.8h.6V67h-.8v-4.7l-3.5 4.7h-.7v-5.9h.8v4.8zm8.9-6.9h6.2v8h-.8v-7.3h-4.6V67h-.8v-8zm8.3 0h6.2v8h-.8v-7.3h-4.6V67h-.8v-8zm14.4 2.1h.9l-2.2 2.9 2.4 3h-.9l-2.1-2.7h-.8V67h-.8v-5.9h.8v2.6h.8l1.9-2.6zm4.3 6c-.4 0-.8-.1-1.2-.2-.4-.2-.7-.4-.9-.7-.3-.3-.5-.6-.6-1-.1-.4-.2-.8-.2-1.2 0-.4.1-.8.2-1.2.1-.4.4-.7.6-1 .3-.3.6-.5.9-.7.4-.2.7-.2 1.2-.2.4 0 .8.1 1.2.2.4.2.7.4.9.7.3.3.5.6.6 1 .1.4.2.8.2 1.2 0 .4-.1.8-.2 1.2-.1.4-.3.7-.6 1-.3.3-.6.5-.9.7-.4.2-.8.2-1.2.2zm-2.1-3c0 .3.1.6.2.9.1.3.3.5.5.7.2.2.4.4.7.5.3.1.5.2.8.2s.6-.1.8-.2c.3-.1.5-.3.7-.5.2-.2.4-.5.5-.8.1-.3.2-.6.2-.9 0-.3-.1-.6-.2-.9-.1-.3-.3-.5-.5-.8-.2-.2-.4-.4-.7-.5-.3-.1-.5-.2-.8-.2s-.6.1-.8.2c-.3.1-.5.3-.7.5-.2.2-.4.5-.5.8-.2.4-.2.7-.2 1zm7.1-.4h3.3v-2.5h.8V67h-.8v-2.7h-3.3V67h-.8v-5.9h.8v2.6zm8 3.3h-.7v-5.2h-2.1v-.7h4.9v.7h-2.1V67zm5.4.1c-.4 0-.8-.1-1.2-.2-.4-.2-.7-.4-.9-.7-.3-.3-.5-.6-.6-1-.1-.4-.2-.8-.2-1.2 0-.4.1-.8.2-1.2.1-.4.4-.7.6-1 .3-.3.6-.5.9-.7.4-.2.8-.2 1.2-.2.4 0 .8.1 1.2.2.4.2.7.4.9.7s.5.6.6 1c.1.4.2.7.2 1.2v.3h-5c0 .3.1.6.2.9.1.3.3.5.5.7.2.2.4.3.7.5.3.1.5.2.8.2.2 0 .4 0 .6-.1.2-.1.4-.1.5-.2.2-.1.3-.2.4-.3.1-.1.2-.3.3-.4l.7.2c-.1.2-.2.4-.4.6s-.4.3-.6.5c-.2.1-.5.2-.7.3-.3-.1-.6-.1-.9-.1zm2.2-3.3c0-.3-.1-.6-.2-.9-.1-.3-.3-.5-.5-.7-.2-.2-.4-.3-.7-.4-.3-.1-.5-.2-.8-.2-.3 0-.6.1-.8.2-.3.1-.5.3-.7.4-.2.2-.3.4-.5.7-.1.3-.2.6-.2.9h4.4zm2.7 2.1l3.5-4.8h.6V67h-.8v-4.7l-3.5 4.7h-.7v-5.9h.8v4.8zm3.3-7c0 .4-.2.6-.4.8-.3.2-.7.3-1.1.3-.5 0-.9-.1-1.1-.3-.3-.2-.4-.5-.4-.8h.5c0 .3.1.4.3.5.2.1.4.2.8.2s.6 0 .8-.1c.2-.1.3-.3.3-.5h.3zm3.3 4.8h3.3v-2.5h.8V67h-.8v-2.7h-3.3V67h-.8v-5.9h.8v2.6zm8.3 3.4c-.4 0-.8-.1-1.2-.2-.4-.2-.7-.4-.9-.7-.3-.3-.5-.6-.6-1-.1-.4-.2-.8-.2-1.2 0-.4.1-.8.2-1.2.1-.4.4-.7.6-1 .3-.3.6-.5.9-.7.4-.2.8-.2 1.2-.2.4 0 .8.1 1.2.2.4.2.7.4.9.7s.5.6.6 1c.1.4.2.7.2 1.2v.3h-5c0 .3.1.6.2.9.1.3.3.5.5.7.2.2.4.3.7.5.3.1.5.2.8.2.2 0 .4 0 .6-.1.2-.1.4-.1.5-.2.2-.1.3-.2.4-.3.1-.1.2-.3.3-.4l.7.2c-.1.2-.2.4-.4.6s-.4.3-.6.5c-.2.1-.5.2-.7.3-.3-.1-.6-.1-.9-.1zm2.2-3.3c0-.3-.1-.6-.2-.9-.1-.3-.3-.5-.5-.7-.2-.2-.4-.3-.7-.4-.3-.1-.5-.2-.8-.2-.3 0-.6.1-.8.2-.3.1-.5.3-.7.4-.2.2-.3.4-.5.7-.1.3-.2.6-.2.9h4.4zm4.9 3.3c-.5 0-.9-.1-1.3-.4-.4-.3-.7-.6-.9-1v3.6h-.8V61h.7v1.1c.2-.4.6-.7.9-.9.4-.2.8-.3 1.3-.3.4 0 .8.1 1.1.3.3.2.6.4.9.7.2.3.4.6.6 1 .1.4.2.8.2 1.1 0 .4-.1.8-.2 1.2-.1.4-.3.7-.5 1-.2.3-.5.5-.8.7-.4.2-.8.2-1.2.2zm-.2-.6c.3 0 .6-.1.9-.2.3-.1.5-.3.7-.5.2-.2.3-.5.4-.8.1-.3.1-.6.1-.9 0-.3-.1-.6-.2-.9-.1-.3-.3-.5-.5-.8s-.4-.4-.7-.5c-.3-.1-.6-.2-.9-.2-.2 0-.4 0-.6.1l-.6.3c-.2.1-.3.3-.5.5s-.2.4-.2.6V65l.3.6c.1.2.3.3.5.5l.6.3c.3 0 .5.1.7.1zm6.7.6c-.4 0-.8-.1-1.2-.2-.4-.2-.7-.4-.9-.7-.3-.3-.5-.6-.6-1-.1-.4-.2-.8-.2-1.2 0-.4.1-.8.2-1.2.1-.4.4-.7.6-1 .3-.3.6-.5.9-.7.4-.2.7-.2 1.2-.2.4 0 .8.1 1.2.2.4.2.7.4.9.7.3.3.5.6.6 1 .1.4.2.8.2 1.2 0 .4-.1.8-.2 1.2-.1.4-.3.7-.6 1-.3.3-.6.5-.9.7-.3.2-.7.2-1.2.2zm-2.1-3c0 .3.1.6.2.9.1.3.3.5.5.7.2.2.4.4.7.5.3.1.5.2.8.2s.6-.1.8-.2c.3-.1.5-.3.7-.5.2-.2.4-.5.5-.8.1-.3.2-.6.2-.9 0-.3-.1-.6-.2-.9-.1-.3-.3-.5-.5-.8-.2-.2-.4-.4-.7-.5-.3-.1-.5-.2-.8-.2s-.6.1-.8.2c-.3.1-.5.3-.7.5-.2.2-.4.5-.5.8-.1.4-.2.7-.2 1zm9.3-3c.2 0 .4 0 .6.1.2.1.3.2.5.3.1.1.2.3.3.5.1.2.1.4.1.6 0 .1 0 .3-.1.4 0 .1-.1.3-.2.4l-.3.3c-.1.1-.2.2-.4.2.3.1.6.3.8.5.2.3.3.6.3.9 0 .2 0 .5-.1.7-.1.2-.2.4-.4.5-.2.1-.3.3-.5.3-.2.1-.4.1-.7.1h-2.8V61h2.9zm-.3 2.6c.3 0 .6-.1.7-.3.2-.2.3-.4.3-.7 0-.3-.1-.5-.2-.7s-.4-.3-.7-.3h-1.9v2h1.8zm.2 2.7c.2 0 .3 0 .4-.1.1-.1.2-.1.3-.2.1-.1.2-.2.2-.3.1-.1.1-.3.1-.4 0-.3-.1-.5-.3-.7-.2-.2-.4-.3-.8-.3h-2v2.1h2.1zM123.4 80.6h-.7v-5.2h-3.1v5.2h-.8v-5.9h4.6v5.9zm4.3.1c-.4 0-.8-.1-1.2-.2-.4-.2-.7-.4-.9-.7-.3-.3-.5-.6-.6-1-.1-.4-.2-.8-.2-1.2 0-.4.1-.8.2-1.2.1-.4.4-.7.6-1 .3-.3.6-.5.9-.7.4-.2.7-.2 1.2-.2s.8.1 1.2.2c.4.2.7.4.9.7.3.3.5.6.6 1s.2.8.2 1.2c0 .4-.1.8-.2 1.2-.1.4-.3.7-.6 1-.3.3-.6.5-.9.7-.4.1-.8.2-1.2.2zm-2.2-3c0 .3.1.6.2.9.1.3.3.5.5.7.2.2.4.4.7.5.3.1.5.2.8.2.3 0 .6-.1.8-.2.3-.1.5-.3.7-.5.2-.2.4-.5.5-.8.1-.3.2-.6.2-.9 0-.3-.1-.6-.2-.9-.1-.3-.3-.5-.5-.8-.2-.2-.4-.4-.7-.5-.3-.1-.5-.2-.8-.2-.3 0-.6.1-.8.2-.3.1-.5.3-.7.5-.2.2-.4.5-.5.8-.1.3-.2.7-.2 1zm5.5 2.2h.3c.2 0 .3-.1.4-.3.1-.1.2-.3.3-.6.1-.3.2-.6.3-1.1.1-.4.2-1 .2-1.7l.2-1.6h3.5v5.2h.7v2.5h-.7v-1.8h-4.6v1.8h-.6v-2.4zm4.5 0v-4.6h-2l-.2 1.3c-.1.9-.3 1.7-.4 2.2s-.3.9-.5 1.1h3.1zm1.9.1c.2 0 .4-.1.6-.2.2-.1.3-.3.4-.6.1-.3.2-.6.3-1.1.1-.5.2-1.1.3-1.8l.2-1.6h3.5v5.9h-.8v-5.3h-2l-.2 1.3c-.1.8-.2 1.4-.3 1.9-.1.5-.3.9-.4 1.2-.2.3-.4.5-.6.6-.2.1-.5.2-.8.2l-.2-.5zm9.4.7c-.4 0-.8-.1-1.2-.2-.4-.2-.7-.4-.9-.7-.3-.3-.5-.6-.6-1-.1-.4-.2-.8-.2-1.2 0-.4.1-.8.2-1.2.1-.4.4-.7.6-1 .3-.3.6-.5.9-.7.4-.2.8-.2 1.2-.2.4 0 .8.1 1.2.2.4.2.7.4.9.7.3.3.5.6.6 1 .1.4.2.7.2 1.2v.3h-5c0 .3.1.6.2.9.1.3.3.5.5.7.2.2.4.3.7.5.3.1.5.2.8.2.2 0 .4 0 .6-.1.2-.1.4-.1.5-.2.2-.1.3-.2.4-.3.1-.1.2-.3.3-.4l.7.2c-.1.2-.2.4-.4.6-.2.2-.4.3-.6.5-.2.1-.5.2-.7.3-.3-.1-.6-.1-.9-.1zm2.2-3.4c0-.3-.1-.6-.2-.9-.1-.3-.3-.5-.5-.7-.2-.2-.4-.3-.7-.4-.3-.1-.5-.2-.8-.2-.3 0-.6.1-.8.2-.3.1-.5.3-.7.4s-.3.4-.5.7c-.1.3-.2.6-.2.9h4.4zm2.1-2.6l1.5 2.6h1.1v-2.6h.8v2.6h1.1l1.5-2.6h.8l-1.7 2.9 1.9 3h-.9l-1.6-2.7h-1.2v2.7h-.8v-2.7h-1.3l-1.6 2.7h-.9l1.9-3-1.7-2.9h1.1zm9 4.8l3.5-4.8h.6v5.9h-.8v-4.7l-3.5 4.7h-.7v-5.9h.8v4.8zm8 1.1h-.7v-5.2h-2.1v-.7h4.9v.7h-2.1v5.2zm10.7 0h-.7v-5.2H175v5.2h-.8v-5.9h4.6v5.9zm4.3.1c-.4 0-.8-.1-1.2-.2-.4-.2-.7-.4-.9-.7-.3-.3-.5-.6-.6-1-.1-.4-.2-.8-.2-1.2 0-.4.1-.8.2-1.2.1-.4.4-.7.6-1 .3-.3.6-.5.9-.7.4-.2.8-.2 1.2-.2.4 0 .8.1 1.2.2.4.2.7.4.9.7.3.3.5.6.6 1 .1.4.2.7.2 1.2v.3h-5c0 .3.1.6.2.9.1.3.3.5.5.7.2.2.4.3.7.5.3.1.5.2.8.2.2 0 .4 0 .6-.1.2-.1.4-.1.5-.2.2-.1.3-.2.4-.3.1-.1.2-.3.3-.4l.7.2c-.1.2-.2.4-.4.6-.2.2-.4.3-.6.5-.2.1-.5.2-.7.3-.3-.1-.6-.1-.9-.1zm2.2-3.4c0-.3-.1-.6-.2-.9s-.3-.5-.5-.7c-.2-.2-.4-.3-.7-.4-.3-.1-.5-.2-.8-.2-.3 0-.6.1-.8.2-.3.1-.5.3-.7.4-.2.2-.3.4-.5.7-.1.3-.2.6-.2.9h4.4zm4.9 3.4c-.5 0-.9-.1-1.3-.4-.4-.3-.7-.6-.9-1V83h-.8v-8.3h.7v1.1c.2-.4.6-.7.9-.9.4-.2.8-.3 1.3-.3.4 0 .8.1 1.1.3.3.2.6.4.9.7.2.3.4.6.6 1 .1.4.2.8.2 1.1 0 .4-.1.8-.2 1.2-.1.4-.3.7-.5 1-.2.3-.5.5-.8.7-.4 0-.8.1-1.2.1zm-.2-.7c.3 0 .6-.1.9-.2.3-.1.5-.3.7-.5.2-.2.3-.5.4-.8.1-.3.1-.6.1-.9 0-.3-.1-.6-.2-.9-.1-.3-.3-.5-.5-.8s-.4-.4-.7-.5c-.3-.1-.6-.2-.9-.2-.2 0-.4 0-.6.1l-.6.3c-.2.1-.3.3-.5.5-.1.2-.2.4-.2.6v1.8l.3.6c.1.2.3.3.5.5l.6.3c.3.1.5.1.7.1zm6.8.7c-.4 0-.8-.1-1.2-.2-.4-.2-.7-.4-.9-.7-.3-.3-.5-.6-.6-1-.1-.4-.2-.8-.2-1.2 0-.4.1-.8.2-1.2.1-.4.4-.7.6-1 .3-.3.6-.5.9-.7.4-.2.8-.2 1.2-.2.4 0 .8.1 1.2.2.4.2.7.4.9.7.3.3.5.6.6 1 .1.4.2.7.2 1.2v.3h-5c0 .3.1.6.2.9.1.3.3.5.5.7.2.2.4.3.7.5.3.1.5.2.8.2.2 0 .4 0 .6-.1.2-.1.4-.1.5-.2.2-.1.3-.2.4-.3.1-.1.2-.3.3-.4l.7.2c-.1.2-.2.4-.4.6-.2.2-.4.3-.6.5-.2.1-.5.2-.7.3-.4-.1-.7-.1-.9-.1zm2.1-3.4c0-.3-.1-.6-.2-.9-.1-.3-.3-.5-.5-.7-.2-.2-.4-.3-.7-.4-.3-.1-.5-.2-.8-.2-.3 0-.6.1-.8.2-.3.1-.5.3-.7.4-.2.2-.3.4-.5.7-.1.3-.2.6-.2.9h4.4zm5 3.4c-.5 0-.9-.1-1.3-.4-.4-.3-.7-.6-.9-1V83h-.8v-8.3h.7v1.1c.2-.4.6-.7.9-.9.4-.2.8-.3 1.3-.3.4 0 .8.1 1.1.3.3.2.6.4.9.7.2.3.4.6.6 1 .1.4.2.8.2 1.1 0 .4-.1.8-.2 1.2-.1.4-.3.7-.5 1-.2.3-.5.5-.8.7-.5 0-.8.1-1.2.1zm-.2-.7c.3 0 .6-.1.9-.2.3-.1.5-.3.7-.5.2-.2.3-.5.4-.8.1-.3.1-.6.1-.9 0-.3-.1-.6-.2-.9-.1-.3-.3-.5-.5-.8s-.4-.4-.7-.5c-.3-.1-.6-.2-.9-.2-.2 0-.4 0-.6.1l-.6.3c-.2.1-.3.3-.5.5-.1.2-.2.4-.2.6v1.8l.3.6c.1.2.3.3.5.5l.6.3c.2.1.4.1.7.1zm5.6.7c-.3 0-.5 0-.8-.1-.2-.1-.4-.2-.6-.4-.2-.2-.3-.4-.4-.6-.1-.2-.1-.5-.1-.7 0-.3.1-.5.2-.7.1-.2.3-.4.5-.6.2-.2.5-.3.8-.4.3-.1.6-.1 1-.1.3 0 .6 0 .9.1.3.1.6.1.8.2v-.5c0-.5-.1-.9-.4-1.2-.3-.3-.7-.5-1.2-.5-.3 0-.6.1-.9.2-.3.1-.6.3-1 .5l-.3-.5c.8-.5 1.5-.8 2.2-.8.7 0 1.3.2 1.7.6.4.4.6 1 .6 1.7v2.7c0 .2.1.3.3.3v.7h-.3c-.2 0-.3 0-.5-.1-.1-.1-.2-.2-.2-.4v-.5c-.3.4-.6.6-1 .8-.3.2-.8.3-1.3.3zm.2-.6c.4 0 .8-.1 1.1-.2.3-.2.6-.4.8-.6l.2-.2c0-.1.1-.2.1-.2v-1c-.3-.1-.5-.2-.8-.2-.3-.1-.6-.1-.8-.1-.5 0-1 .1-1.3.3-.3.2-.5.5-.5.9 0 .2 0 .4.1.5.1.2.2.3.3.4.1.1.3.2.4.3 0 .1.2.1.4.1zm7.4-6.8c-.7.2-1.2.5-1.6.9-.4.4-.6 1.1-.7 1.9.2-.4.5-.6.9-.8.3-.2.7-.3 1.2-.3.4 0 .7.1 1.1.2.3.1.6.3.8.6.2.3.4.6.5.9.1.4.2.7.2 1.2 0 .4-.1.8-.2 1.2-.1.4-.3.7-.6.9-.2.2-.5.4-.9.6-.3.1-.7.2-1.2.2-.9 0-1.5-.3-2-.9-.5-.6-.7-1.5-.7-2.6 0-.7.1-1.3.2-1.8s.3-1 .6-1.3c.3-.4.6-.7 1-.9.4-.2.8-.4 1.3-.5l1.8-.4.1.6-1.8.3zm-2.3 4.5c0 .3 0 .6.1.9.1.3.2.5.4.7.2.2.4.4.6.5.2.1.5.2.8.2s.6-.1.8-.2c.2-.1.4-.3.6-.5.2-.2.3-.4.4-.7.1-.3.1-.6.1-.9 0-.7-.2-1.2-.5-1.6-.4-.4-.8-.6-1.4-.6-.3 0-.5 0-.8.1-.2.1-.4.2-.6.4-.2.2-.3.4-.4.7 0 .4-.1.7-.1 1zm8.5 2.9c-.4 0-.8-.1-1.2-.2-.4-.2-.7-.4-.9-.7-.3-.3-.5-.6-.6-1-.1-.4-.2-.8-.2-1.2 0-.4.1-.8.2-1.2.1-.4.4-.7.6-1 .3-.3.6-.5.9-.7.4-.2.7-.2 1.2-.2.4 0 .8.1 1.2.2.4.2.7.4.9.7.3.3.5.6.6 1 .1.4.2.8.2 1.2 0 .4-.1.8-.2 1.2-.1.4-.3.7-.6 1-.3.3-.6.5-.9.7-.3.1-.7.2-1.2.2zm-2.1-3c0 .3.1.6.2.9.1.3.3.5.5.7.2.2.4.4.7.5.3.1.5.2.8.2.3 0 .6-.1.8-.2.3-.1.5-.3.7-.5s.4-.5.5-.8c.1-.3.2-.6.2-.9 0-.3-.1-.6-.2-.9-.1-.3-.3-.5-.5-.8s-.4-.4-.7-.5c-.3-.1-.5-.2-.8-.2-.3 0-.6.1-.8.2-.3.1-.5.3-.7.5s-.4.5-.5.8c-.1.3-.2.7-.2 1zm8.3 2.9h-.7v-5.2h-2.1v-.7h4.9v.7h-2.1v5.2zm6.6-5.9h.9l-2.2 2.9 2.4 3h-.9l-2.1-2.7h-.8v2.7h-.8v-5.9h.8v2.6h.8l1.9-2.6zm4.3 6c-.4 0-.8-.1-1.2-.2-.4-.2-.7-.4-.9-.7-.3-.3-.5-.6-.6-1-.1-.4-.2-.8-.2-1.2 0-.4.1-.8.2-1.2.1-.4.4-.7.6-1 .3-.3.6-.5.9-.7.4-.2.8-.2 1.2-.2.4 0 .8.1 1.2.2.4.2.7.4.9.7.3.3.5.6.6 1 .1.4.2.7.2 1.2v.3h-5c0 .3.1.6.2.9.1.3.3.5.5.7.2.2.4.3.7.5.3.1.5.2.8.2.2 0 .4 0 .6-.1.2-.1.4-.1.5-.2.2-.1.3-.2.4-.3.1-.1.2-.3.3-.4l.7.2c-.1.2-.2.4-.4.6-.2.2-.4.3-.6.5-.2.1-.5.2-.7.3-.3-.1-.6-.1-.9-.1zm2.2-3.4c0-.3-.1-.6-.2-.9-.1-.3-.3-.5-.5-.7-.2-.2-.4-.3-.7-.4-.3-.1-.5-.2-.8-.2-.3 0-.6.1-.8.2-.3.1-.5.3-.7.4s-.3.4-.5.7c-.1.3-.2.6-.2.9h4.4z" fill="#fff"/></svg>