<svg version="1.1" id="Layer_1" xmlns="http://www.w3.org/2000/svg" x="0" y="0" viewBox="0 0 30 30" xml:space="preserve"><style>.st0{fill:#fff}</style><path class="st0" d="M28.6 13.2c0-.2-.2-.3-.4-.4-.1 0-1.7-.5-4-.4-2.1.1-5.2.9-8.1 3.8-2.9 2.9-3.7 6-3.8 8.1-.2 2.3.4 3.9.4 4 .1.2.2.3.3.3.1 0 1.3.4 3.1.4h.9c2.1-.1 5.2-.9 8.1-3.8 5.2-5.1 3.8-10.9 3.5-12zm-4.3.3c1.1-.1 2 0 2.7.1 0 0-.1 0-.1.1L23 17.6v-3.9c.4-.1.9-.2 1.3-.2zm-6.1 8.8v-6.6c1.1-.9 2.4-1.5 3.7-1.9v4.8l-3.7 3.7zm-4.7 2.1c.2-2.8 1.4-5.3 3.5-7.4l.2-.2v6.6L13.6 27c-.1-.6-.2-1.6-.1-2.6zm3.5 3.5c-1.1.1-2 0-2.7-.1l1.7-1.7h6.3c-1.5 1-3.3 1.6-5.3 1.8zm7.4-3.5l-.6.6h-6.6l3.2-3.2h6.1c-.6.9-1.2 1.7-2.1 2.6zm2.6-3.7h-5.5l6.3-6.3.1-.1c.1 1.4.2 3.8-.9 6.4z"/><path class="st0" d="M11.2 21.7v-6.4c.7.4 1.3 1 1.9 1.6.2.2.6.2.8 0 .2-.2.2-.6 0-.8-2.9-2.9-6-3.7-8.1-3.8-2.3-.2-3.9.4-4 .4-.2.1-.3.2-.4.4-.3 1.1-1.7 6.9 3.4 12 1.6 1.6 3.5 2.7 5.5 3.3h.2c.2 0 .5-.2.5-.4.1-.3-.1-.6-.4-.7-1.9-.5-3.5-1.6-5-3.1-1.3-1.3-2.1-2.6-2.7-3.9h5.4l2.6 2.6c.1.1.2.2.4.2s.3-.1.4-.2c.2-.2.2-.6 0-.8l-.5-.4zm-1.1-1.1L7.5 18v-4.3c.9.2 1.8.5 2.6 1v5.9zm-4.5-7.1c.2 0 .5 0 .7.1V17L3 13.7c.6-.2 1.6-.3 2.6-.2zm-3 5.9c-.6-2.1-.5-3.9-.3-5l5 5H2.6z"/><path class="st0" d="M11.3 25.6c-1.1-.3-2.1-.8-3-1.5-.2-.2-.6-.1-.8.1-.2.2-.1.6.1.8 1 .7 2.1 1.3 3.3 1.6h.2c.2 0 .5-.2.5-.4.2-.2 0-.5-.3-.6zm-5-2.6c-.2.2-.2.6 0 .8.1.1.2.2.4.2s.3-.1.4-.2c.2-.2.2-.6 0-.8-.3-.2-.6-.2-.8 0zM4.5 9H8c.3 0 .5-.2.5-.5S8.3 8 8 8H5V5.6h2c.3 0 .5-.2.5-.5s-.1-.6-.4-.6H5V2.1h3c.3 0 .5-.2.5-.5S8.3 1 8 1H4.5c-.3 0-.5.2-.5.5v6.9c0 .4.2.6.5.6zM22 9c2.2 0 4-1.8 4-4s-1.8-4-4-4-4 1.8-4 4 1.8 4 4 4zm0-6.9c1.6 0 2.9 1.3 2.9 2.9S23.6 7.9 22 7.9 19.1 6.6 19.1 5s1.3-2.9 2.9-2.9zM13.8 9c1 0 2.1-.4 2.8-1.2.2-.2.2-.6 0-.8-.2-.2-.6-.2-.8 0-1.1 1.1-3 1.1-4.1 0-1.1-1.1-1.1-3 0-4.1 1.1-1.1 3-1.1 4.1 0 .2.2.6.2.8 0 .2-.2.2-.6 0-.8-1.6-1.6-4.1-1.6-5.7 0-1.6 1.6-1.6 4.1 0 5.7.8.8 1.9 1.2 2.9 1.2zm.7 1.9v1.5c0 .3.2.5.5.5s.5-.2.5-.5v-1.5c0-.3-.2-.5-.5-.5s-.5.2-.5.5zm1.8 2.8c.1.1.2.2.4.2.1 0 .3-.1.4-.2l1.1-1.1c.2-.2.2-.6 0-.8-.2-.2-.6-.2-.8 0l-1.1 1.1c-.2.3-.2.6 0 .8zm-3.7-1.9c-.2-.2-.6-.2-.8 0-.2.2-.2.6 0 .8l1.1 1.1c.1.1.2.2.4.2s.3-.1.4-.2c.2-.2.2-.6 0-.8l-1.1-1.1z"/></svg>