<svg width="100" height="100" fill="none" xmlns="http://www.w3.org/2000/svg"><path fill-rule="evenodd" clip-rule="evenodd" d="M50 91.667c23.012 0 41.667-18.655 41.667-41.667S73.012 8.333 50 8.333 8.333 26.988 8.333 50 26.988 91.667 50 91.667zM39.56 60.15a3.125 3.125 0 00-4.136 4.685l1.146.88a21.52 21.52 0 002.887 1.68A24.126 24.126 0 0050 69.791c4.472 0 8.062-1.194 10.543-2.397a21.513 21.513 0 002.887-1.679c.339-.235.605-.438.797-.59l.35-.29a3.125 3.125 0 00-4.138-4.685l-.578.435a15.29 15.29 0 01-2.045 1.185A17.877 17.877 0 0150 63.541c-3.34 0-6-.889-7.816-1.77a15.29 15.29 0 01-2.045-1.185l-.578-.435zm31.273-18.484a4.167 4.167 0 11-8.333 0 4.167 4.167 0 018.333 0zm-37.5 4.166a4.167 4.167 0 100-8.333 4.167 4.167 0 000 8.333z" fill="#84BD00"/></svg>