<svg width="20" height="20" viewBox="0 0 20 20" fill="none" xmlns="http://www.w3.org/2000/svg">
<path d="M1 2.25C0.585786 2.25 0.25 2.58579 0.25 3C0.25 3.41421 0.585786 3.75 1 3.75V2.25ZM1 9.25C0.585786 9.25 0.25 9.58579 0.25 10C0.25 10.4142 0.585786 10.75 1 10.75V9.25ZM10 10.75C10.4142 10.75 10.75 10.4142 10.75 10C10.75 9.58579 10.4142 9.25 10 9.25V10.75ZM19 10.75C19.4142 10.75 19.75 10.4142 19.75 10C19.75 9.58579 19.4142 9.25 19 9.25V10.75ZM19 3.75C19.4142 3.75 19.75 3.41421 19.75 3C19.75 2.58579 19.4142 2.25 19 2.25V3.75ZM10 16.25C9.58579 16.25 9.25 16.5858 9.25 17C9.25 17.4142 9.58579 17.75 10 17.75V16.25ZM19 17.75C19.4142 17.75 19.75 17.4142 19.75 17C19.75 16.5858 19.4142 16.25 19 16.25V17.75ZM1 16.25C0.585786 16.25 0.25 16.5858 0.25 17C0.25 17.4142 0.585786 17.75 1 17.75V16.25ZM1 3.75H8V2.25H1V3.75ZM1 10.75H10V9.25H1V10.75ZM17 10.75H19V9.25H17V10.75ZM12 3.75H19V2.25H12V3.75ZM10 17.75H19V16.25H10V17.75ZM1 17.75H3V16.25H1V17.75ZM6.25 17C6.25 17.6904 5.69036 18.25 5 18.25V19.75C6.51878 19.75 7.75 18.5188 7.75 17H6.25ZM5 18.25C4.30964 18.25 3.75 17.6904 3.75 17H2.25C2.25 18.5188 3.48122 19.75 5 19.75V18.25ZM3.75 17C3.75 16.3096 4.30964 15.75 5 15.75V14.25C3.48122 14.25 2.25 15.4812 2.25 17H3.75ZM5 15.75C5.69036 15.75 6.25 16.3096 6.25 17H7.75C7.75 15.4812 6.51878 14.25 5 14.25V15.75ZM16.25 10C16.25 10.6904 15.6904 11.25 15 11.25V12.75C16.5188 12.75 17.75 11.5188 17.75 10H16.25ZM15 11.25C14.3096 11.25 13.75 10.6904 13.75 10H12.25C12.25 11.5188 13.4812 12.75 15 12.75V11.25ZM13.75 10C13.75 9.30964 14.3096 8.75 15 8.75V7.25C13.4812 7.25 12.25 8.48122 12.25 10H13.75ZM15 8.75C15.6904 8.75 16.25 9.30964 16.25 10H17.75C17.75 8.48122 16.5188 7.25 15 7.25V8.75ZM11.25 3C11.25 3.69036 10.6904 4.25 10 4.25V5.75C11.5188 5.75 12.75 4.51878 12.75 3H11.25ZM10 4.25C9.30964 4.25 8.75 3.69036 8.75 3H7.25C7.25 4.51878 8.48122 5.75 10 5.75V4.25ZM8.75 3C8.75 2.30964 9.30964 1.75 10 1.75V0.25C8.48122 0.25 7.25 1.48122 7.25 3H8.75ZM10 1.75C10.6904 1.75 11.25 2.30964 11.25 3H12.75C12.75 1.48122 11.5188 0.25 10 0.25V1.75Z" fill="#28303F"/>
</svg>
