<svg width="98" height="34" viewBox="0 0 98 34" fill="none" xmlns="http://www.w3.org/2000/svg">
<g clip-path="url(#clip0_133_3803)">
<path d="M7.84132 7.98874C7.84132 6.29969 8.51072 5.33648 9.9679 4.61521L14.1163 2.55184C14.8394 2.15874 15.648 1.95022 16.4706 1.9447C17.3406 1.92813 18.1992 2.14567 18.9569 2.57467L23.1007 4.63804C24.649 5.40495 25.2546 6.36817 25.2546 8.0983V11.9192C25.2647 12.0693 25.2427 12.2198 25.1899 12.3606C25.1372 12.5014 25.055 12.6293 24.9489 12.7357C24.8428 12.8421 24.7152 12.9244 24.5748 12.9773C24.4343 13.0302 24.2841 13.0523 24.1344 13.0422C23.9853 13.0501 23.8361 13.0264 23.6966 12.9728C23.5571 12.9191 23.4305 12.8367 23.3248 12.7308C23.2192 12.6249 23.137 12.4979 23.0835 12.3581C23.0299 12.2183 23.0064 12.0687 23.0142 11.9192V8.16677C23.0142 7.19899 22.9232 7.04378 22.0716 6.61468L18.2146 4.66086C17.6954 4.36464 17.1089 4.20743 16.5116 4.20436C15.966 4.21833 15.4336 4.37575 14.9678 4.66086L11.0653 6.56903C10.1546 7.02552 10.0817 7.24464 10.0817 8.25807V11.9101C10.0918 12.0601 10.0698 12.2107 10.017 12.3515C9.9643 12.4923 9.88212 12.6202 9.77602 12.7266C9.66992 12.8329 9.54234 12.9153 9.40186 12.9682C9.26138 13.021 9.11124 13.0432 8.96153 13.033C8.81235 13.0409 8.66318 13.0173 8.52371 12.9636C8.38424 12.91 8.25757 12.8275 8.15194 12.7217C8.04631 12.6158 7.96407 12.4888 7.91055 12.349C7.85704 12.2091 7.83345 12.0596 7.84132 11.9101V7.98874Z" fill="#005AAA"/>
<path d="M10.5463 33.3244C9.0891 34.1689 7.9188 34.0685 6.57091 33.16L2.70482 30.5854C2.00067 30.152 1.41534 29.5495 1.00174 28.8324C0.554892 28.0856 0.31296 27.2336 0.300475 26.3628L-6.83162e-05 21.7293C-0.113911 20.0038 0.418871 18.9903 1.91248 18.1321L5.21391 16.2239C5.3385 16.1402 5.47953 16.0841 5.62753 16.0595C5.77552 16.0348 5.92706 16.0422 6.07198 16.0811C6.21689 16.12 6.35182 16.1896 6.46772 16.2851C6.58362 16.3806 6.6778 16.4998 6.74395 16.6348C6.82462 16.7606 6.87818 16.9018 6.90119 17.0496C6.9242 17.1973 6.91615 17.3482 6.87756 17.4926C6.83897 17.637 6.77069 17.7718 6.67711 17.8882C6.58352 18.0046 6.46669 18.1001 6.33412 18.1686L3.10555 20.0403C2.27678 20.5424 2.18115 20.6839 2.23579 21.6335L2.49991 26.0204C2.50177 26.6209 2.65865 27.2106 2.95528 27.7323C3.24446 28.1994 3.65123 28.582 4.13468 28.8416L7.72299 31.2473C8.56998 31.8225 8.79766 31.7677 9.67197 31.2473L12.8596 29.4213C12.9839 29.3368 13.125 29.2801 13.2731 29.255C13.4213 29.23 13.5731 29.2372 13.7182 29.2762C13.8634 29.3152 13.9985 29.385 14.1143 29.4809C14.2301 29.5768 14.324 29.6966 14.3896 29.8322C14.471 29.9577 14.5251 30.099 14.5485 30.2469C14.5719 30.3948 14.564 30.5459 14.5254 30.6906C14.4867 30.8352 14.4182 30.9701 14.3242 31.0864C14.2302 31.2028 14.1128 31.298 13.9798 31.366L10.5463 33.3244Z" fill="#005AAA"/>
<path d="M31.0788 18.3056C32.536 19.1455 33.0323 20.2137 32.9276 21.8389L32.6271 26.4769C32.6054 27.3008 32.3817 28.1066 31.9759 28.8233C31.5514 29.5802 30.9337 30.2104 30.1863 30.6493L26.3293 33.2148C24.8949 34.178 23.761 34.2191 22.2674 33.3518L18.966 31.4436C18.8312 31.3774 18.7121 31.283 18.6169 31.1667C18.5217 31.0504 18.4525 30.9149 18.4141 30.7694C18.3756 30.624 18.3688 30.4719 18.3941 30.3236C18.4194 30.1753 18.4762 30.0342 18.5607 29.9098C18.628 29.7765 18.7226 29.6589 18.8383 29.5647C18.9539 29.4705 19.0881 29.4018 19.232 29.3631C19.3759 29.3243 19.5264 29.3164 19.6735 29.3398C19.8207 29.3632 19.9613 29.4174 20.0862 29.4989L23.3284 31.3751C24.1618 31.859 24.3439 31.859 25.1499 31.334L28.7929 28.9283C29.3084 28.6341 29.742 28.2151 30.0542 27.7094C30.3083 27.2245 30.4338 26.6821 30.4185 26.1345L30.7054 21.8115C30.7783 20.7935 30.6143 20.62 29.7446 20.1133L26.557 18.2873C26.4225 18.2215 26.3036 18.1275 26.2084 18.0118C26.1131 17.896 26.0438 17.7611 26.0049 17.6162C25.9661 17.4713 25.9587 17.3197 25.9832 17.1717C26.0078 17.0236 26.0637 16.8826 26.1472 16.758C26.215 16.6241 26.3102 16.506 26.4265 16.4112C26.5428 16.3165 26.6776 16.2473 26.8223 16.2082C26.967 16.169 27.1182 16.1607 27.2663 16.1839C27.4143 16.2071 27.5559 16.2611 27.6818 16.3426L31.0743 18.3101" fill="#005AAA"/>
<path d="M24.1893 15.2973C24.0382 15.0383 23.7907 14.8501 23.5013 14.7739C23.2118 14.6978 22.9041 14.7399 22.6456 14.891L16.489 18.4882L10.3324 14.891C10.0747 14.7526 9.77355 14.7197 9.49221 14.7993C9.21087 14.8789 8.97129 15.0648 8.82385 15.3179C8.6764 15.5709 8.63259 15.8714 8.70161 16.1562C8.77064 16.441 8.94713 16.6878 9.19396 16.8448L15.3597 20.4466V27.7095C15.3597 28.0121 15.4796 28.3024 15.6931 28.5164C15.9066 28.7305 16.1962 28.8507 16.4981 28.8507C16.8 28.8507 17.0896 28.7305 17.3031 28.5164C17.5166 28.3024 17.6365 28.0121 17.6365 27.7095V20.4466L23.784 16.8448C24.0423 16.6933 24.23 16.4453 24.306 16.1551C24.382 15.8649 24.34 15.5564 24.1893 15.2973Z" fill="#005AAA"/>
<path d="M20.4461 7.47744C20.3717 7.34938 20.2729 7.23728 20.1552 7.14754C20.0376 7.05781 19.9035 6.9922 19.7605 6.95446C19.6176 6.91673 19.4686 6.90761 19.3221 6.92764C19.1757 6.94766 19.0346 6.99643 18.9069 7.07115L16.4889 8.48173L14.0709 7.07115C13.8138 6.94065 13.5167 6.91359 13.2404 6.99552C12.9641 7.07744 12.7295 7.26216 12.5846 7.51184C12.4397 7.76153 12.3955 8.0573 12.461 8.33859C12.5265 8.61989 12.6968 8.86544 12.937 9.02497L15.3551 10.4401V13.2476C15.355 13.5475 15.4733 13.8352 15.6839 14.0481C15.8946 14.261 16.1807 14.3818 16.4798 14.3843C16.6289 14.3837 16.7764 14.3535 16.9138 14.2955C17.0512 14.2375 17.1757 14.1527 17.2803 14.0462C17.3848 13.9397 17.4673 13.8135 17.523 13.6748C17.5787 13.5362 17.6064 13.3879 17.6046 13.2384V10.4264L20.0363 9.02497C20.2945 8.87348 20.4823 8.62542 20.5583 8.33527C20.6343 8.04511 20.5923 7.73658 20.4415 7.47744" fill="#ED1C24"/>
<path d="M11.8395 22.5556C11.7662 22.4264 11.6682 22.313 11.5511 22.2219C11.434 22.1308 11.3001 22.0638 11.157 22.0248C11.014 21.9857 10.8647 21.9754 10.7176 21.9944C10.5706 22.0135 10.4288 22.0614 10.3003 22.1356L7.8641 23.5325L5.42788 22.1356C5.16948 22.0039 4.87048 21.9769 4.59276 22.0601C4.31504 22.1434 4.07988 22.3304 3.93594 22.5827C3.79201 22.8349 3.75032 23.1329 3.81952 23.4151C3.88871 23.6973 4.06349 23.942 4.30767 24.0985L6.73479 25.4909V28.2938C6.73478 28.5937 6.85299 28.8814 7.06366 29.0943C7.27434 29.3072 7.56041 29.428 7.85955 29.4304C8.15633 29.4269 8.43987 29.3068 8.64932 29.096C8.85876 28.8852 8.9774 28.6004 8.97976 28.3029V25.4954L11.4114 24.0985C11.5411 24.0259 11.6551 23.9282 11.7469 23.8111C11.8386 23.6941 11.9064 23.5599 11.9462 23.4165C11.986 23.273 11.997 23.1231 11.9787 22.9753C11.9604 22.8276 11.9131 22.6849 11.8395 22.5556Z" fill="#50B848"/>
<path d="M29.089 22.5556C28.9402 22.2956 28.6946 22.1053 28.406 22.0266C28.1175 21.9479 27.8096 21.9871 27.5498 22.1356L25.1182 23.5051L22.6956 22.0945C22.5674 22.0094 22.4231 21.9514 22.2717 21.9241C22.1203 21.8968 21.9649 21.9008 21.8151 21.9359C21.6653 21.9709 21.5243 22.0363 21.4006 22.128C21.2769 22.2197 21.1732 22.3357 21.0958 22.469C21.0184 22.6023 20.9691 22.7501 20.9507 22.9032C20.9323 23.0563 20.9454 23.2115 20.989 23.3594C21.0326 23.5073 21.1059 23.6447 21.2044 23.7632C21.3029 23.8816 21.4245 23.9787 21.5617 24.0483L23.9843 25.4635V28.2801C23.9855 28.5795 24.105 28.8663 24.3167 29.0776C24.5283 29.289 24.8149 29.4076 25.1136 29.4076C25.4105 29.4101 25.6965 29.2958 25.9102 29.0893C26.1239 28.8827 26.2483 28.6004 26.2566 28.3029V25.5L28.6883 24.0985C28.8171 24.0251 28.9303 23.9269 29.0212 23.8095C29.112 23.692 29.1788 23.5578 29.2178 23.4144C29.2567 23.271 29.267 23.1213 29.248 22.9739C29.229 22.8265 29.1812 22.6844 29.1072 22.5556" fill="#00AEEF"/>
<path d="M36.8849 7.55962L34.5398 12.6496C34.493 12.7633 34.4144 12.8609 34.3133 12.9306C34.2123 13.0003 34.0932 13.0391 33.9706 13.0422C33.7934 13.0473 33.6212 12.9838 33.4896 12.8647C33.3581 12.7456 33.2776 12.5802 33.2647 12.4031C33.2683 12.2992 33.2915 12.197 33.333 12.1018L33.8476 10.956L32.2037 7.55049C32.1552 7.45427 32.1303 7.34787 32.1309 7.24008C32.1448 7.0625 32.2264 6.89711 32.3586 6.77814C32.4908 6.65917 32.6636 6.59574 32.8412 6.60098C32.963 6.60285 33.0815 6.64065 33.1819 6.70966C33.2824 6.77868 33.3603 6.87584 33.4059 6.989L34.5716 9.37649L35.66 6.989C35.7081 6.87296 35.7898 6.77401 35.8945 6.70487C35.9991 6.63572 36.1221 6.59954 36.2474 6.60098C36.4224 6.59717 36.5919 6.66173 36.7203 6.781C36.8486 6.90027 36.9256 7.0649 36.935 7.24008C36.9327 7.34409 36.9095 7.44658 36.8667 7.54136" fill="#005AAA"/>
<path d="M43.26 7.36333V12.3483C43.2676 12.4402 43.2561 12.5326 43.2263 12.6198C43.1964 12.7069 43.1489 12.787 43.0866 12.8548C43.0243 12.9226 42.9487 12.9767 42.8645 13.0138C42.7803 13.0508 42.6894 13.0699 42.5974 13.0699C42.5055 13.0699 42.4146 13.0508 42.3304 13.0138C42.2462 12.9767 42.1705 12.9226 42.1083 12.8548C42.046 12.787 41.9984 12.7069 41.9686 12.6198C41.9388 12.5326 41.9273 12.4402 41.9349 12.3483V7.84266H39.1617V12.3483C39.1617 12.5251 39.0916 12.6946 38.9669 12.8196C38.8423 12.9446 38.6732 13.0148 38.4968 13.0148C38.3205 13.0148 38.1514 12.9446 38.0267 12.8196C37.902 12.6946 37.832 12.5251 37.832 12.3483V7.36333C37.8241 7.27256 37.8357 7.18115 37.8659 7.09522C37.8961 7.0093 37.9444 6.93085 38.0073 6.86514C38.0703 6.79943 38.1465 6.74797 38.231 6.71422C38.3154 6.68047 38.406 6.66521 38.4968 6.66946H42.5952C42.6859 6.66521 42.7766 6.68047 42.861 6.71422C42.9454 6.74797 43.0217 6.79943 43.0847 6.86514C43.1476 6.93085 43.1958 7.0093 43.2261 7.09522C43.2563 7.18115 43.2679 7.27256 43.26 7.36333Z" fill="#005AAA"/>
<path d="M45.6734 7.30399C45.7368 7.09876 45.8618 6.9181 46.0313 6.78659C46.2007 6.65508 46.4065 6.57912 46.6206 6.56903C46.8364 6.57292 47.0451 6.64655 47.2158 6.77898C47.3865 6.91141 47.5099 7.09555 47.5678 7.30399L49.3027 12.1337C49.3448 12.237 49.3694 12.3465 49.3756 12.4579C49.3744 12.5372 49.3575 12.6155 49.3259 12.6882C49.2942 12.7609 49.2484 12.8266 49.1912 12.8814C49.134 12.9362 49.0665 12.979 48.9926 13.0074C48.9187 13.0358 48.8399 13.0492 48.7608 13.0467C48.6174 13.058 48.4747 13.0184 48.3574 12.935C48.24 12.8516 48.1556 12.7296 48.1188 12.5902L47.8501 11.7594H45.3911L45.127 12.5857C45.0895 12.7238 45.0056 12.8446 44.8894 12.9278C44.7732 13.011 44.6319 13.0514 44.4895 13.0422C44.4057 13.0446 44.3224 13.0305 44.2441 13.0006C44.1658 12.9707 44.0942 12.9256 44.0333 12.868C43.9724 12.8103 43.9234 12.7412 43.8892 12.6646C43.8549 12.5879 43.8361 12.5053 43.8337 12.4213C43.8338 12.3205 43.8556 12.2209 43.8975 12.1292L45.6734 7.30399ZM45.7736 10.5269H47.4539L46.6297 7.95222L45.7736 10.5269Z" fill="#005AAA"/>
<path d="M50.0905 7.27201C50.0885 7.18458 50.1045 7.09768 50.1374 7.01669C50.1703 6.9357 50.2194 6.86233 50.2818 6.80114C50.3441 6.73995 50.4183 6.69223 50.4997 6.66094C50.5812 6.62965 50.6682 6.61545 50.7553 6.61922C50.8459 6.60774 50.9378 6.61632 51.0247 6.64434C51.1115 6.67236 51.1912 6.71914 51.2581 6.78139C51.3249 6.84364 51.3774 6.91983 51.4117 7.0046C51.446 7.08937 51.4613 7.18065 51.4566 7.27201V9.1893L53.615 6.84747C53.6784 6.77209 53.7571 6.71112 53.8458 6.66861C53.9346 6.62611 54.0313 6.60304 54.1296 6.60096C54.2143 6.59975 54.2984 6.61536 54.3771 6.64688C54.4557 6.6784 54.5274 6.72521 54.5879 6.78462C54.6484 6.84402 54.6966 6.91485 54.7298 6.99301C54.7629 7.07118 54.7802 7.15514 54.7808 7.24005C54.7808 7.4683 54.6396 7.65547 54.3254 7.94763L52.6542 9.59559L54.6988 11.7366C54.8024 11.8186 54.8884 11.9207 54.9518 12.0368C55.0151 12.1528 55.0546 12.2805 55.0677 12.4122C55.0676 12.4993 55.0492 12.5853 55.0136 12.6648C54.9779 12.7442 54.9259 12.8151 54.861 12.8729C54.796 12.9307 54.7195 12.974 54.6367 13.0001C54.5538 13.0261 54.4663 13.0342 54.3801 13.0239C54.1205 13.0239 53.9566 12.8687 53.7061 12.6039L51.4293 10.1206V12.4031C51.4287 12.4891 51.4109 12.5743 51.377 12.6533C51.343 12.7324 51.2936 12.8039 51.2316 12.8635C51.1696 12.9231 51.0963 12.9696 51.0161 13.0003C50.9358 13.031 50.8503 13.0452 50.7644 13.0421C50.678 13.0479 50.5913 13.0355 50.5098 13.0058C50.4284 12.976 50.354 12.9296 50.2915 12.8695C50.2289 12.8094 50.1796 12.7369 50.1465 12.6565C50.1135 12.5762 50.0975 12.4899 50.0996 12.4031V7.27201" fill="#005AAA"/>
<path d="M55.2681 9.82842C55.2681 8.00242 56.5112 6.56445 58.3145 6.56445C60.1177 6.56445 61.3609 8.02525 61.3609 9.82842C61.3609 11.6316 60.1269 13.0924 58.3145 13.0924C56.5021 13.0924 55.2681 11.6635 55.2681 9.82842ZM59.9766 9.82842C59.9766 8.75565 59.421 7.78787 58.3145 7.78787C57.2079 7.78787 56.6524 8.75565 56.6524 9.82842C56.6524 10.9012 57.1897 11.869 58.3145 11.869C59.4392 11.869 59.9766 10.9103 59.9766 9.82842Z" fill="#005AAA"/>
<path d="M62.2261 7.33593C62.2217 7.24407 62.2371 7.15235 62.2713 7.06701C62.3055 6.98167 62.3577 6.90474 62.4242 6.84147C62.4908 6.7782 62.5702 6.73007 62.6571 6.70039C62.7439 6.6707 62.8361 6.66014 62.9273 6.66945H64.6259C64.8377 6.65579 65.0501 6.68557 65.2501 6.75697C65.4501 6.82837 65.6335 6.93989 65.7891 7.08472C65.9446 7.22955 66.0691 7.40465 66.1549 7.59933C66.2406 7.794 66.2859 8.00416 66.288 8.21698C66.306 8.49342 66.2364 8.76849 66.0892 9.00295C65.942 9.23741 65.7247 9.41926 65.4683 9.52256C65.8355 9.56973 66.1734 9.748 66.4202 10.0247C66.6669 10.3014 66.8059 10.6579 66.8116 11.029C66.8116 12.2798 65.9783 12.9554 64.7579 12.9554H62.9365C62.8481 12.9629 62.7592 12.9523 62.675 12.9244C62.5909 12.8964 62.5133 12.8516 62.4469 12.7928C62.3805 12.7339 62.3267 12.6621 62.2887 12.5818C62.2508 12.5015 62.2295 12.4143 62.2261 12.3255V7.33593ZM63.5558 9.16193H64.2479C64.3426 9.17154 64.4382 9.16022 64.5281 9.12879C64.6179 9.09735 64.6998 9.04655 64.768 8.97997C64.8361 8.91338 64.8889 8.83263 64.9226 8.7434C64.9562 8.65417 64.97 8.55862 64.9628 8.46349C64.9622 8.37338 64.9426 8.28442 64.9053 8.20245C64.8679 8.12048 64.8137 8.04735 64.7462 7.98786C64.6787 7.92837 64.5994 7.88387 64.5135 7.85727C64.4277 7.83067 64.3371 7.82257 64.2479 7.83352H63.5558V9.16193ZM63.5558 11.8096H64.5986C64.7057 11.8207 64.8139 11.8087 64.9161 11.7745C65.0182 11.7403 65.1119 11.6845 65.1908 11.611C65.2697 11.5376 65.332 11.448 65.3736 11.3484C65.4152 11.2488 65.435 11.1415 65.4319 11.0336C65.4319 10.6182 65.1131 10.3351 64.4938 10.3351H63.5558V11.8096Z" fill="#005AAA"/>
<path d="M67.3945 9.82842C67.3945 8.00242 68.6331 6.56445 70.4364 6.56445C72.2397 6.56445 73.4828 8.02525 73.4828 9.82842C73.4828 11.6316 72.2533 13.0924 70.4364 13.0924C68.6195 13.0924 67.3945 11.6635 67.3945 9.82842ZM72.103 9.82842C72.103 8.75565 71.5429 7.78787 70.4364 7.78787C69.3298 7.78787 68.7606 8.75565 68.7606 9.82842C68.7606 10.9012 69.298 11.869 70.4227 11.869C71.5475 11.869 72.0894 10.9103 72.0894 9.82842H72.103Z" fill="#005AAA"/>
<path d="M77.7906 7.30397C77.783 7.21211 77.7945 7.11968 77.8243 7.0325C77.8541 6.94532 77.9017 6.8653 77.964 6.79748C78.0262 6.72967 78.1019 6.67554 78.1861 6.63851C78.2703 6.60148 78.3612 6.58237 78.4531 6.58237C78.5451 6.58237 78.636 6.60148 78.7202 6.63851C78.8044 6.67554 78.88 6.72967 78.9423 6.79748C79.0046 6.8653 79.0521 6.94532 79.082 7.0325C79.1118 7.11968 79.1233 7.21211 79.1157 7.30397V12.3254C79.1233 12.4173 79.1118 12.5097 79.082 12.5969C79.0521 12.6841 79.0046 12.7641 78.9423 12.8319C78.88 12.8997 78.8044 12.9539 78.7202 12.9909C78.636 13.0279 78.5451 13.047 78.4531 13.047C78.3612 13.047 78.2703 13.0279 78.1861 12.9909C78.1019 12.9539 78.0262 12.8997 77.964 12.8319C77.9017 12.7641 77.8541 12.6841 77.8243 12.5969C77.7945 12.5097 77.783 12.4173 77.7906 12.3254V10.8053H76.7114C75.3179 10.8053 74.2478 9.94709 74.2478 8.67803V7.30397C74.2478 7.12539 74.3186 6.95412 74.4445 6.82785C74.5705 6.70157 74.7413 6.63063 74.9195 6.63063C75.0976 6.63063 75.2684 6.70157 75.3944 6.82785C75.5204 6.95412 75.5911 7.12539 75.5911 7.30397V8.60042C75.5911 9.21213 76.1285 9.57733 76.8115 9.57733H77.8042V7.30397" fill="#005AAA"/>
<path d="M80.2314 7.30397C80.2314 7.21644 80.2486 7.12978 80.2821 7.04892C80.3155 6.96805 80.3644 6.89458 80.4262 6.83269C80.4879 6.7708 80.5612 6.72171 80.6419 6.68821C80.7225 6.65472 80.809 6.63748 80.8963 6.63748C80.9836 6.63748 81.07 6.65472 81.1507 6.68821C81.2314 6.72171 81.3047 6.7708 81.3664 6.83269C81.4281 6.89458 81.4771 6.96805 81.5105 7.04892C81.5439 7.12978 81.5611 7.21644 81.5611 7.30397V9.18474H84.3389V7.30397C84.3389 7.21644 84.3561 7.12978 84.3895 7.04892C84.4229 6.96805 84.4719 6.89458 84.5336 6.83269C84.5953 6.7708 84.6686 6.72171 84.7493 6.68821C84.83 6.65472 84.9164 6.63748 85.0037 6.63748C85.091 6.63748 85.1775 6.65472 85.2581 6.68821C85.3388 6.72171 85.4121 6.7708 85.4738 6.83269C85.5356 6.89458 85.5845 6.96805 85.6179 7.04892C85.6514 7.12978 85.6686 7.21644 85.6686 7.30397V12.3255C85.6686 12.413 85.6514 12.4996 85.6179 12.5805C85.5845 12.6614 85.5356 12.7348 85.4738 12.7967C85.4121 12.8586 85.3388 12.9077 85.2581 12.9412C85.1775 12.9747 85.091 12.9919 85.0037 12.9919C84.9164 12.9919 84.83 12.9747 84.7493 12.9412C84.6686 12.9077 84.5953 12.8586 84.5336 12.7967C84.4719 12.7348 84.4229 12.6614 84.3895 12.5805C84.3561 12.4996 84.3389 12.413 84.3389 12.3255V10.4127H81.5611V12.3483C81.5611 12.4358 81.5439 12.5225 81.5105 12.6033C81.4771 12.6842 81.4281 12.7577 81.3664 12.8196C81.3047 12.8814 81.2314 12.9305 81.1507 12.964C81.07 12.9975 80.9836 13.0148 80.8963 13.0148C80.809 13.0148 80.7225 12.9975 80.6419 12.964C80.5612 12.9305 80.4879 12.8814 80.4262 12.8196C80.3644 12.7577 80.3155 12.6842 80.2821 12.6033C80.2486 12.5225 80.2314 12.4358 80.2314 12.3483V7.30397Z" fill="#005AAA"/>
<path d="M89.0247 9.08431C90.3088 9.08431 91.2332 9.68689 91.2332 11.0153C91.2332 12.2707 90.4044 12.9874 89.1841 12.9874H87.4901C87.3995 12.9943 87.3084 12.9823 87.2227 12.9521C87.1369 12.922 87.0584 12.8742 86.992 12.812C86.9256 12.7497 86.8729 12.6744 86.8371 12.5906C86.8014 12.5068 86.7834 12.4165 86.7843 12.3254V7.30397C86.7767 7.21211 86.7881 7.11968 86.818 7.0325C86.8478 6.94532 86.8954 6.8653 86.9577 6.79748C87.0199 6.72967 87.0955 6.67554 87.1797 6.63851C87.2639 6.60148 87.3549 6.58237 87.4468 6.58237C87.5388 6.58237 87.6297 6.60148 87.7139 6.63851C87.7981 6.67554 87.8737 6.72967 87.936 6.79748C87.9982 6.8653 88.0458 6.94532 88.0757 7.0325C88.1055 7.11968 88.117 7.21211 88.1094 7.30397V9.08431H89.0201M88.1094 11.8233H89.0201C89.1293 11.8291 89.2385 11.812 89.3407 11.7732C89.443 11.7343 89.5361 11.6746 89.614 11.5977C89.692 11.5208 89.7531 11.4286 89.7936 11.3267C89.834 11.2249 89.8528 11.1157 89.8489 11.0062C89.8489 10.5862 89.5301 10.2575 88.9382 10.2575H88.1276L88.1094 11.8233ZM92.6221 6.61922C92.7122 6.61437 92.8024 6.6289 92.8865 6.66185C92.9706 6.6948 93.0466 6.7454 93.1096 6.81026C93.1726 6.87512 93.221 6.95272 93.2516 7.03788C93.2821 7.12303 93.2942 7.21376 93.2869 7.30397V12.3254C93.2945 12.4173 93.283 12.5097 93.2532 12.5969C93.2234 12.6841 93.1758 12.7641 93.1135 12.8319C93.0513 12.8997 92.9756 12.9539 92.8914 12.9909C92.8073 13.0279 92.7163 13.047 92.6244 13.047C92.5324 13.047 92.4415 13.0279 92.3573 12.9909C92.2731 12.9539 92.1975 12.8997 92.1352 12.8319C92.0729 12.7641 92.0254 12.6841 91.9955 12.5969C91.9657 12.5097 91.9542 12.4173 91.9618 12.3254V7.30397C91.9546 7.21416 91.9665 7.12384 91.9969 7.03902C92.0272 6.95421 92.0752 6.87683 92.1376 6.81205C92.2001 6.74727 92.2756 6.69657 92.3591 6.66332C92.4427 6.63007 92.5323 6.61504 92.6221 6.61922Z" fill="#005AAA"/>
<path d="M94.4072 7.44094C94.4072 6.98444 94.6257 6.66946 95.0948 6.66946H97.2896C97.373 6.6653 97.4564 6.67902 97.534 6.70969C97.6117 6.74037 97.682 6.78729 97.7402 6.84733C97.7984 6.90738 97.8431 6.97917 97.8714 7.05791C97.8997 7.13666 97.911 7.22055 97.9044 7.30399C97.9064 7.38643 97.8914 7.46839 97.8603 7.54473C97.8291 7.62107 97.7826 7.69013 97.7236 7.74758C97.6646 7.80503 97.5944 7.84962 97.5173 7.87855C97.4403 7.90748 97.3581 7.92013 97.276 7.9157H95.7186V9.21215H97.1712C97.2547 9.20578 97.3386 9.21695 97.4175 9.24495C97.4964 9.27295 97.5685 9.31715 97.6294 9.37474C97.6903 9.43232 97.7385 9.50202 97.7709 9.57935C97.8034 9.65669 97.8194 9.73997 97.8179 9.82386C97.818 9.90736 97.8011 9.99 97.7682 10.0667C97.7353 10.1434 97.687 10.2125 97.6265 10.2698C97.5659 10.3272 97.4942 10.3714 97.416 10.3999C97.3377 10.4284 97.2544 10.4406 97.1712 10.4356H95.7186V11.8051H97.3579C97.4404 11.7992 97.5232 11.8109 97.6009 11.8393C97.6785 11.8677 97.7493 11.9123 97.8086 11.97C97.868 12.0277 97.9145 12.0974 97.9451 12.1744C97.9757 12.2514 97.9898 12.334 97.9864 12.4168C97.9877 12.499 97.9722 12.5807 97.9408 12.6567C97.9095 12.7327 97.863 12.8015 97.8041 12.8588C97.7452 12.9161 97.6753 12.9608 97.5985 12.9899C97.5218 13.0191 97.4399 13.0322 97.3579 13.0285H95.0811C94.9891 13.0327 94.8973 13.0172 94.8118 12.983C94.7262 12.9488 94.649 12.8967 94.5852 12.8301C94.5214 12.7635 94.4725 12.6841 94.4418 12.5971C94.4111 12.51 94.3993 12.4174 94.4072 12.3255V7.44094Z" fill="#005AAA"/>
<path d="M41.894 19.9216H40.9377C40.857 19.9256 40.7762 19.9125 40.7009 19.8831C40.6255 19.8536 40.5572 19.8085 40.5005 19.7508C40.4437 19.693 40.3998 19.6239 40.3715 19.5479C40.3433 19.4719 40.3314 19.3908 40.3367 19.3099C40.3372 19.2314 40.3533 19.1537 40.3838 19.0814C40.4143 19.0091 40.4588 18.9435 40.5146 18.8884C40.5704 18.8333 40.6365 18.7897 40.7091 18.7602C40.7817 18.7307 40.8594 18.7158 40.9377 18.7164H44.1936C44.2743 18.7152 44.3544 18.7303 44.429 18.7609C44.5037 18.7916 44.5714 18.8371 44.628 18.8947C44.6846 18.9523 44.729 19.0208 44.7584 19.0961C44.7878 19.1714 44.8017 19.2519 44.7993 19.3327C44.8046 19.414 44.7926 19.4955 44.7641 19.5719C44.7356 19.6482 44.6912 19.7176 44.634 19.7754C44.5767 19.8332 44.5078 19.8782 44.4319 19.9073C44.356 19.9365 44.2748 19.9491 44.1936 19.9444H43.2328V24.3953C43.2328 24.4828 43.2156 24.5695 43.1822 24.6503C43.1488 24.7312 43.0998 24.8047 43.0381 24.8666C42.9763 24.9285 42.903 24.9775 42.8224 25.011C42.7417 25.0445 42.6553 25.0618 42.568 25.0618C42.4807 25.0618 42.3942 25.0445 42.3135 25.011C42.2329 24.9775 42.1596 24.9285 42.0978 24.8666C42.0361 24.8047 41.9871 24.7312 41.9537 24.6503C41.9203 24.5695 41.9031 24.4828 41.9031 24.3953V19.9216" fill="#005AAA"/>
<path d="M45.4094 19.4696C45.4094 19.0131 45.6326 18.6936 46.1016 18.6936H48.2965C48.3792 18.6884 48.462 18.7007 48.5397 18.7297C48.6174 18.7586 48.6881 18.8036 48.7473 18.8617C48.8066 18.9198 48.853 18.9897 48.8836 19.0669C48.9142 19.1441 48.9282 19.2269 48.9249 19.3099C48.9262 19.3921 48.9107 19.4738 48.8794 19.5498C48.848 19.6258 48.8015 19.6946 48.7426 19.7519C48.6837 19.8092 48.6138 19.8539 48.537 19.883C48.4603 19.9122 48.3784 19.9253 48.2965 19.9216H46.7391V21.2135H48.1917C48.275 21.2071 48.3586 21.2182 48.4373 21.2463C48.516 21.2743 48.5879 21.3186 48.6484 21.3762C48.7089 21.4339 48.7567 21.5036 48.7886 21.581C48.8206 21.6583 48.836 21.7415 48.8338 21.8252C48.8352 21.9088 48.8193 21.9919 48.7872 22.0691C48.7551 22.1464 48.7074 22.2161 48.6471 22.274C48.5868 22.3318 48.5152 22.3766 48.4369 22.4054C48.3585 22.4342 48.275 22.4465 48.1917 22.4414H46.7391V23.8109H48.3739C48.4564 23.8051 48.5391 23.8168 48.6168 23.8452C48.6945 23.8736 48.7653 23.9181 48.8246 23.9759C48.8839 24.0336 48.9304 24.1033 48.961 24.1802C48.9916 24.2572 49.0057 24.3398 49.0023 24.4227C49.0043 24.5051 48.9893 24.5871 48.9582 24.6634C48.927 24.7397 48.8805 24.8088 48.8215 24.8662C48.7625 24.9237 48.6922 24.9683 48.6152 24.9972C48.5382 25.0261 48.456 25.0388 48.3739 25.0344H46.097C46.0075 25.0395 45.918 25.0259 45.834 24.9944C45.7501 24.963 45.6735 24.9144 45.6093 24.8517C45.5451 24.789 45.4945 24.7137 45.4609 24.6304C45.4273 24.5471 45.4113 24.4577 45.414 24.3679V19.4696" fill="#005AAA"/>
<path d="M51.689 21.6335L50.2546 19.6797C50.1644 19.5704 50.1146 19.4334 50.1134 19.2916C50.1113 19.2036 50.1276 19.1161 50.1611 19.0347C50.1946 18.9532 50.2446 18.8797 50.308 18.8187C50.3714 18.7578 50.4467 18.7107 50.5293 18.6805C50.6118 18.6503 50.6997 18.6377 50.7874 18.6434C50.9014 18.652 51.012 18.686 51.1112 18.7429C51.2105 18.7997 51.2959 18.878 51.3611 18.9721L52.4586 20.5424L53.556 18.9812C53.6203 18.8862 53.7055 18.8072 53.8049 18.7502C53.9044 18.6933 54.0155 18.6599 54.1298 18.6525C54.2175 18.6468 54.3053 18.6594 54.3879 18.6896C54.4704 18.7198 54.5458 18.7669 54.6092 18.8279C54.6726 18.8888 54.7226 18.9624 54.7561 19.0438C54.7896 19.1252 54.8058 19.2127 54.8037 19.3008C54.8005 19.4421 54.7509 19.5785 54.6626 19.6888L53.2282 21.6426L54.9813 24.0027C55.0759 24.1363 55.1283 24.2954 55.1316 24.4592C55.1312 24.5453 55.1131 24.6305 55.0784 24.7093C55.0437 24.7881 54.9931 24.8589 54.9299 24.9171C54.8666 24.9754 54.792 25.02 54.7107 25.048C54.6295 25.0761 54.5433 25.0869 54.4576 25.08C54.3488 25.0814 54.2413 25.0554 54.145 25.0043C54.0488 24.9533 53.9668 24.8789 53.9067 24.7879L52.4586 22.7656L51.0014 24.7742C50.9422 24.8661 50.8604 24.9412 50.7639 24.9924C50.6675 25.0435 50.5595 25.069 50.4504 25.0663C50.365 25.0733 50.279 25.0624 50.198 25.0343C50.117 25.0062 50.0427 24.9616 49.9797 24.9032C49.9168 24.8449 49.8667 24.7741 49.8325 24.6953C49.7982 24.6165 49.7807 24.5314 49.781 24.4455C49.782 24.2813 49.8345 24.1215 49.9313 23.989L51.6845 21.6289" fill="#005AAA"/>
<path d="M55.8828 19.3327C55.8828 19.156 55.9529 18.9864 56.0775 18.8614C56.2022 18.7364 56.3713 18.6662 56.5477 18.6662C56.724 18.6662 56.8931 18.7364 57.0178 18.8614C57.1424 18.9864 57.2125 19.156 57.2125 19.3327V21.2135H59.9902V19.3327C59.9826 19.2409 59.9941 19.1484 60.024 19.0612C60.0538 18.9741 60.1014 18.894 60.1636 18.8262C60.2259 18.7584 60.3015 18.7043 60.3857 18.6673C60.4699 18.6302 60.5609 18.6111 60.6528 18.6111C60.7447 18.6111 60.8357 18.6302 60.9199 18.6673C61.0041 18.7043 61.0797 18.7584 61.142 18.8262C61.2042 18.894 61.2518 18.9741 61.2816 19.0612C61.3115 19.1484 61.323 19.2409 61.3154 19.3327V24.3542C61.323 24.446 61.3115 24.5385 61.2816 24.6257C61.2518 24.7128 61.2042 24.7929 61.142 24.8607C61.0797 24.9285 61.0041 24.9826 60.9199 25.0197C60.8357 25.0567 60.7447 25.0758 60.6528 25.0758C60.5609 25.0758 60.4699 25.0567 60.3857 25.0197C60.3015 24.9826 60.2259 24.9285 60.1636 24.8607C60.1014 24.7929 60.0538 24.7128 60.024 24.6257C59.9941 24.5385 59.9826 24.446 59.9902 24.3542V22.4415H57.2125V24.3725C57.2125 24.5492 57.1424 24.7187 57.0178 24.8437C56.8931 24.9687 56.724 25.0389 56.5477 25.0389C56.3713 25.0389 56.2022 24.9687 56.0775 24.8437C55.9529 24.7187 55.8828 24.5492 55.8828 24.3725V19.351" fill="#005AAA"/>
<path d="M62.1851 21.8526C62.1851 20.0266 63.4282 18.5886 65.2315 18.5886C67.0347 18.5886 68.2733 20.054 68.2733 21.8526C68.2733 23.6512 67.0438 25.1074 65.2315 25.1074C63.4191 25.1074 62.1851 23.6786 62.1851 21.8389M66.8936 21.8389C66.8936 20.7661 66.338 19.7983 65.2315 19.7983C64.1249 19.7983 63.5694 20.7661 63.5694 21.8389C63.5694 22.9117 64.1067 23.8794 65.2315 23.8794C66.3562 23.8794 66.8936 22.9345 66.8936 21.8526V21.8389Z" fill="#005AAA"/>
<path d="M73.2733 25.0663C73.1827 25.0707 73.0922 25.0554 73.008 25.0216C72.9238 24.9879 72.8478 24.9363 72.7852 24.8705C72.7226 24.8047 72.6748 24.7262 72.6451 24.6403C72.6154 24.5543 72.6045 24.463 72.6131 24.3725V19.8668H70.8599V21.8526C70.8599 22.8569 70.5867 23.9936 69.8672 24.6144C69.5849 24.8917 69.2102 25.0543 68.8153 25.0709C68.7343 25.0757 68.6533 25.0631 68.5776 25.0339C68.5019 25.0047 68.4333 24.9596 68.3764 24.9017C68.3194 24.8438 68.2755 24.7743 68.2476 24.698C68.2196 24.6217 68.2082 24.5403 68.2142 24.4592C68.2142 24.1488 68.3645 24.0027 68.7105 23.8384C69.0566 23.674 69.5302 23.1171 69.5302 22.1265V19.3875C69.5264 19.2987 69.5409 19.2102 69.5729 19.1273C69.6049 19.0445 69.6537 18.9691 69.7161 18.9061C69.7786 18.8431 69.8534 18.7937 69.9358 18.761C70.0182 18.7284 70.1065 18.7132 70.195 18.7165H73.2733C73.3639 18.7129 73.4543 18.7287 73.5383 18.7627C73.6224 18.7967 73.6984 18.8482 73.7612 18.9138C73.824 18.9793 73.8722 19.0574 73.9027 19.143C73.9332 19.2286 73.9453 19.3197 73.9382 19.4103V24.3725C73.9461 24.4632 73.9345 24.5547 73.9043 24.6406C73.874 24.7265 73.8258 24.8049 73.7628 24.8707C73.6999 24.9364 73.6236 24.9878 73.5392 25.0216C73.4548 25.0553 73.3641 25.0706 73.2733 25.0663Z" fill="#005AAA"/>
<path d="M74.8081 21.8526C74.8081 20.0266 76.0467 18.5886 77.85 18.5886C79.6532 18.5886 80.8964 20.054 80.8964 21.8526C80.8964 23.6512 79.6897 25.1074 77.8682 25.1074C76.0467 25.1074 74.8263 23.6786 74.8263 21.8389M79.5348 21.8389C79.5348 20.7661 78.9747 19.7983 77.8682 19.7983C76.7616 19.7983 76.2061 20.7661 76.2061 21.8389C76.2061 22.9117 76.748 23.8794 77.8682 23.8794C78.9884 23.8794 79.5166 22.9345 79.5166 21.8526L79.5348 21.8389Z" fill="#005AAA"/>
<path d="M81.7661 19.3875C81.7654 19.2972 81.783 19.2078 81.8179 19.1245C81.8527 19.0413 81.904 18.966 81.9688 18.9033C82.0335 18.8405 82.1103 18.7916 82.1944 18.7595C82.2786 18.7274 82.3683 18.7127 82.4583 18.7164H84.7351C84.8885 18.7297 85.0312 18.8001 85.1353 18.9138C85.2393 19.0275 85.297 19.1762 85.297 19.3304C85.297 19.4847 85.2393 19.6334 85.1353 19.747C85.0312 19.8607 84.8885 19.9312 84.7351 19.9444H83.1049V24.3953C83.1125 24.4871 83.101 24.5796 83.0712 24.6668C83.0413 24.7539 82.9938 24.834 82.9315 24.9018C82.8693 24.9696 82.7936 25.0237 82.7094 25.0607C82.6252 25.0978 82.5343 25.1169 82.4424 25.1169C82.3504 25.1169 82.2595 25.0978 82.1753 25.0607C82.0911 25.0237 82.0155 24.9696 81.9532 24.9018C81.8909 24.834 81.8434 24.7539 81.8135 24.6668C81.7837 24.5796 81.7722 24.4871 81.7798 24.3953V19.3875" fill="#005AAA"/>
<path d="M90.7824 25.0663C90.6918 25.0707 90.6013 25.0554 90.5171 25.0216C90.4329 24.9878 90.3569 24.9363 90.2943 24.8705C90.2317 24.8047 90.1839 24.7262 90.1542 24.6402C90.1245 24.5543 90.1136 24.463 90.1221 24.3724V21.0628L87.2533 24.7742C87.1866 24.8595 87.1025 24.9296 87.0068 24.98C86.911 25.0303 86.8057 25.0598 86.6978 25.0663C86.607 25.0706 86.5163 25.0553 86.4319 25.0216C86.3475 24.9878 86.2712 24.9364 86.2083 24.8706C86.1453 24.8049 86.0971 24.7265 86.0668 24.6406C86.0366 24.5546 86.025 24.4632 86.0329 24.3724V19.351C86.0253 19.2591 86.0368 19.1667 86.0667 19.0795C86.0965 18.9923 86.1441 18.9123 86.2063 18.8445C86.2686 18.7767 86.3442 18.7225 86.4284 18.6855C86.5126 18.6485 86.6035 18.6294 86.6955 18.6294C86.7874 18.6294 86.8784 18.6485 86.9626 18.6855C87.0468 18.7225 87.1224 18.7767 87.1847 18.8445C87.2469 18.9123 87.2945 18.9923 87.3243 19.0795C87.3542 19.1667 87.3657 19.2591 87.358 19.351V22.688L90.2269 18.9355C90.2932 18.8498 90.3771 18.7794 90.473 18.729C90.5688 18.6786 90.6744 18.6494 90.7824 18.6434C90.873 18.6385 90.9636 18.6531 91.048 18.6863C91.1324 18.7195 91.2087 18.7706 91.2718 18.8359C91.3348 18.9013 91.3831 18.9795 91.4134 19.0652C91.4437 19.1509 91.4552 19.2421 91.4473 19.3327V24.3542C91.4552 24.445 91.4436 24.5364 91.4134 24.6223C91.3831 24.7082 91.3349 24.7867 91.2719 24.8524C91.209 24.9181 91.1327 24.9696 91.0483 25.0033C90.9639 25.037 90.8732 25.0523 90.7824 25.0481" fill="#005AAA"/>
<path d="M97.3351 25.0663C97.2445 25.0707 97.154 25.0554 97.0698 25.0216C96.9856 24.9878 96.9096 24.9363 96.8469 24.8705C96.7843 24.8047 96.7365 24.7262 96.7069 24.6402C96.6772 24.5543 96.6662 24.463 96.6748 24.3724V21.0628H96.652L93.806 24.7742C93.7384 24.8596 93.6535 24.9297 93.557 24.9801C93.4605 25.0304 93.3545 25.0598 93.2459 25.0663C93.1553 25.0707 93.0648 25.0554 92.9806 25.0216C92.8963 24.9878 92.8203 24.9363 92.7577 24.8705C92.6951 24.8047 92.6473 24.7262 92.6176 24.6402C92.5879 24.5543 92.577 24.463 92.5856 24.3724V19.351C92.578 19.2591 92.5895 19.1667 92.6193 19.0795C92.6492 18.9923 92.6967 18.9123 92.759 18.8445C92.8213 18.7767 92.8969 18.7225 92.9811 18.6855C93.0653 18.6485 93.1562 18.6294 93.2482 18.6294C93.3401 18.6294 93.431 18.6485 93.5152 18.6855C93.5994 18.7225 93.6751 18.7767 93.7373 18.8445C93.7996 18.9123 93.8472 18.9923 93.877 19.0795C93.9068 19.1667 93.9183 19.2591 93.9107 19.351V22.688L96.7796 18.9355C96.8457 18.8496 96.9296 18.779 97.0255 18.7286C97.1213 18.6781 97.227 18.6491 97.3351 18.6434C97.4257 18.6385 97.5162 18.6531 97.6007 18.6863C97.6851 18.7195 97.7614 18.7706 97.8245 18.8359C97.8875 18.9013 97.9358 18.9795 97.9661 19.0652C97.9964 19.1509 98.0079 19.2421 97.9999 19.3327V24.3542C98.0078 24.445 97.9963 24.5364 97.966 24.6223C97.9358 24.7082 97.8876 24.7867 97.8246 24.8524C97.7616 24.9181 97.6854 24.9696 97.601 25.0033C97.5165 25.037 97.4259 25.0523 97.3351 25.0481" fill="#005AAA"/>
<path fill-rule="evenodd" clip-rule="evenodd" d="M28.5926 4.95673e-06H28.5562C27.9901 -0.00121396 27.4466 0.222419 27.0447 0.621959C26.6427 1.0215 26.415 1.5644 26.4114 2.13185C26.415 2.69693 26.6408 3.23777 27.0398 3.63693C27.4388 4.03608 27.9788 4.26131 28.5425 4.2637H28.5789C29.1399 4.25656 29.6757 4.02937 30.0715 3.63086C30.4674 3.23234 30.6917 2.69421 30.6964 2.13185C30.6929 1.57146 30.4709 1.03469 30.0777 0.636297C29.6846 0.237908 29.1515 0.00953275 28.5926 4.95673e-06ZM28.5926 3.92589C28.3521 3.93811 28.1117 3.90118 27.8859 3.81734C27.6601 3.7335 27.4536 3.6045 27.2791 3.43819C27.1046 3.27188 26.9656 3.07173 26.8707 2.84991C26.7757 2.62808 26.7268 2.38922 26.7268 2.14783C26.7268 1.90644 26.7757 1.66758 26.8707 1.44575C26.9656 1.22393 27.1046 1.02378 27.2791 0.857467C27.4536 0.691157 27.6601 0.562162 27.8859 0.478322C28.1117 0.394482 28.3521 0.357549 28.5926 0.369769C28.8331 0.357549 29.0735 0.394482 29.2993 0.478322C29.5251 0.562162 29.7316 0.691157 29.9061 0.857467C30.0806 1.02378 30.2196 1.22393 30.3145 1.44575C30.4095 1.66758 30.4584 1.90644 30.4584 2.14783C30.4584 2.38922 30.4095 2.62808 30.3145 2.84991C30.2196 3.07173 30.0806 3.27188 29.9061 3.43819C29.7316 3.6045 29.5251 3.7335 29.2993 3.81734C29.0735 3.90118 28.8331 3.93811 28.5926 3.92589Z" fill="#005AAA"/>
<path fill-rule="evenodd" clip-rule="evenodd" d="M29.2164 2.48791C29.1408 2.4103 29.0568 2.3414 28.966 2.28249C29.1391 2.26345 29.3002 2.18433 29.4213 2.0588C29.5318 1.95036 29.5955 1.8029 29.5989 1.64796C29.5955 1.51641 29.5595 1.38778 29.4942 1.27363C29.4257 1.17628 29.3286 1.10286 29.2164 1.06364C29.0422 1.00435 28.8582 0.979543 28.6745 0.990598H27.6909V3.31874H28.1463V2.34183H28.2328C28.3142 2.33855 28.3956 2.34778 28.4742 2.36922C28.5161 2.38862 28.5546 2.41484 28.588 2.44683H28.6153L28.8612 2.7892L29.1936 3.30048H29.7537L29.476 2.84398C29.4005 2.70793 29.312 2.57951 29.2119 2.46052M28.5925 1.9675H28.1372V1.39688H28.843C28.9133 1.40217 28.9787 1.43497 29.0251 1.48818C29.0474 1.51265 29.0642 1.54159 29.0744 1.57308C29.0846 1.60457 29.088 1.63787 29.0843 1.67078C29.0854 1.73259 29.0713 1.79371 29.0434 1.84882C29.0045 1.89041 28.956 1.92177 28.9022 1.94011C28.8 1.95877 28.6964 1.96793 28.5925 1.9675Z" fill="#005AAA"/>
</g>
<defs>
<clipPath id="clip0_133_3803">
<rect width="98" height="34" fill="white"/>
</clipPath>
</defs>
</svg>
