<svg width="213" height="74" fill="none" xmlns="http://www.w3.org/2000/svg"><g clip-path="url(#clip0_1_4)"><path d="M17.043 17.387c0-3.676 1.455-5.772 4.622-7.342l9.017-4.491a10.854 10.854 0 015.117-1.321 10.548 10.548 0 015.404 1.37l9.006 4.492c3.365 1.669 4.681 3.765 4.681 7.53v8.317a2.304 2.304 0 01-.664 1.777 2.286 2.286 0 01-1.77.667 2.309 2.309 0 01-1.76-.678 2.325 2.325 0 01-.675-1.766v-8.167c0-2.107-.198-2.444-2.049-3.378l-8.383-4.253a7.539 7.539 0 00-3.701-.993 6.75 6.75 0 00-3.355.993l-8.483 4.153c-1.979.994-2.137 1.47-2.137 3.676v7.949a2.302 2.302 0 01-.665 1.777 2.284 2.284 0 01-1.77.667 2.307 2.307 0 01-1.76-.678 2.326 2.326 0 01-.675-1.766v-8.535zm5.879 55.143c-3.167 1.838-5.71 1.619-8.64-.358l-8.403-5.604a10.83 10.83 0 01-3.702-3.815 10.78 10.78 0 01-1.524-5.375L0 47.293c-.247-3.755.91-5.961 4.157-7.829l7.175-4.153a2.28 2.28 0 013.326.894 2.34 2.34 0 01-.89 3.339L6.75 43.617c-1.801 1.093-2.01 1.401-1.89 3.468l.574 9.548a7.594 7.594 0 00.99 3.725 6.8 6.8 0 002.563 2.415l7.799 5.236c1.84 1.252 2.336 1.132 4.236 0l6.928-3.974a2.272 2.272 0 013.326.894 2.331 2.331 0 01-.891 3.338l-7.463 4.263zM67.55 39.842c3.166 1.828 4.245 4.153 4.017 7.69l-.653 10.094a10.96 10.96 0 01-1.415 5.107 10.642 10.642 0 01-3.89 3.974l-8.383 5.584c-3.117 2.097-5.582 2.186-8.828.298l-7.176-4.153a2.278 2.278 0 01-1.2-1.467 2.294 2.294 0 01.32-1.871 2.313 2.313 0 011.458-1.19 2.296 2.296 0 011.857.296l7.047 4.083c1.811 1.053 2.207 1.053 3.959-.09l7.918-5.235a7.723 7.723 0 002.741-2.653 6.977 6.977 0 00.792-3.428l.624-9.409c.158-2.216-.198-2.593-2.089-3.696l-6.928-3.974a2.275 2.275 0 01-1.2-1.46 2.294 2.294 0 01.31-1.869 2.335 2.335 0 011.467-1.196 2.318 2.318 0 011.868.292l7.373 4.282m-14.964-6.557a2.446 2.446 0 00-3.355-.884l-13.382 7.829-13.381-7.83a2.446 2.446 0 00-3.279.93 2.472 2.472 0 00.805 3.323l13.4 7.84v15.807c0 .659.261 1.29.725 1.756a2.47 2.47 0 003.5 0 2.489 2.489 0 00.724-1.756V44.5l13.362-7.839a2.472 2.472 0 00.88-3.368" fill="#005AAA"/><path d="M44.439 16.274a2.451 2.451 0 00-1.49-1.138 2.436 2.436 0 00-1.855.254l-5.256 3.07-5.255-3.07a2.445 2.445 0 00-3.23.96 2.472 2.472 0 00.765 3.293l5.256 3.08v6.11c0 .653.257 1.279.715 1.742a2.46 2.46 0 001.73.732 2.446 2.446 0 001.74-.736 2.465 2.465 0 00.704-1.758v-6.12l5.285-3.05a2.472 2.472 0 00.88-3.368" fill="#ED1C24"/><path d="M25.733 49.092a2.45 2.45 0 00-1.483-1.156 2.437 2.437 0 00-1.862.242l-5.295 3.04-5.295-3.04a2.445 2.445 0 00-3.243.973 2.472 2.472 0 00.808 3.299l5.275 3.03v6.1c0 .653.257 1.28.715 1.743a2.46 2.46 0 001.73.732 2.46 2.46 0 001.716-.729 2.479 2.479 0 00.718-1.726v-6.11l5.286-3.04a2.449 2.449 0 001.162-1.485 2.464 2.464 0 00-.232-1.873" fill="#50B848"/><path d="M63.224 49.092a2.447 2.447 0 00-3.345-.914l-5.285 2.98-5.266-3.07a2.45 2.45 0 00-3.477.815 2.47 2.47 0 001.013 3.438l5.265 3.08v6.13a2.47 2.47 0 00.723 1.736 2.45 2.45 0 001.732.718 2.459 2.459 0 001.73-.693c.465-.45.736-1.064.754-1.712v-6.1l5.285-3.05a2.447 2.447 0 001.15-1.49 2.462 2.462 0 00-.24-1.868" fill="#00AEEF"/><path d="M80.168 16.453l-5.097 11.078a1.38 1.38 0 01-1.237.855A1.491 1.491 0 0172.789 28a1.503 1.503 0 01-.49-1.005 1.81 1.81 0 01.15-.656l1.118-2.494-3.573-7.412a1.485 1.485 0 01-.159-.675c.03-.387.208-.747.495-1.006a1.501 1.501 0 011.05-.385 1.343 1.343 0 011.227.844l2.533 5.197 2.366-5.197a1.37 1.37 0 011.277-.844 1.465 1.465 0 011.494 1.391c-.005.226-.055.45-.148.655m13.895-.387v10.85a1.454 1.454 0 01-.86 1.448 1.44 1.44 0 01-1.946-.858 1.46 1.46 0 01-.074-.59v-9.807h-6.027v9.807c0 .384-.152.753-.423 1.025a1.442 1.442 0 01-2.467-1.025v-10.85a1.397 1.397 0 01.38-1.084 1.385 1.385 0 011.065-.426h8.907a1.381 1.381 0 011.372.927c.065.187.09.386.073.583m5.246-.129a2.274 2.274 0 012.059-1.6 2.182 2.182 0 012.058 1.6l3.771 10.512c.092.224.145.463.159.705a1.31 1.31 0 01-.833 1.196 1.29 1.29 0 01-.504.086 1.334 1.334 0 01-1.395-.994l-.584-1.808h-5.345l-.574 1.798a1.351 1.351 0 01-1.385.994 1.381 1.381 0 01-1.305-.822 1.395 1.395 0 01-.12-.53c0-.219.047-.436.138-.635l3.86-10.502zm.218 7.014h3.652l-1.792-5.603-1.86 5.603zm9.382-7.084a1.407 1.407 0 01.416-1.025 1.391 1.391 0 011.029-.396 1.355 1.355 0 011.427.84c.075.184.108.383.098.581V20l4.691-5.097a1.508 1.508 0 011.118-.536 1.393 1.393 0 011.305.853c.072.17.109.353.111.538 0 .497-.307.904-.99 1.54l-3.632 3.587 4.443 4.66a2.138 2.138 0 01.802 1.47 1.351 1.351 0 01-.449 1.002 1.33 1.33 0 01-1.045.33c-.564 0-.921-.339-1.465-.915l-4.949-5.405v4.968a1.415 1.415 0 01-.429 1.002 1.394 1.394 0 01-1.016.389 1.35 1.35 0 01-1.028-.376 1.362 1.362 0 01-.417-1.015V15.827m11.234 5.564c0-3.974 2.702-7.104 6.621-7.104 3.919 0 6.621 3.18 6.621 7.104 0 3.925-2.682 7.104-6.621 7.104-3.939 0-6.621-3.11-6.621-7.104zm10.233 0c0-2.335-1.207-4.44-3.612-4.44-2.405 0-3.613 2.105-3.613 4.44 0 2.335 1.168 4.441 3.613 4.441 2.445 0 3.612-2.086 3.612-4.44zm4.89-5.425a1.394 1.394 0 01.936-1.383c.189-.064.39-.087.588-.067h3.692a3.379 3.379 0 012.528.904 3.417 3.417 0 011.084 2.464 2.87 2.87 0 01-.432 1.71c-.32.51-.792.907-1.349 1.132.798.102 1.532.49 2.068 1.092a3.36 3.36 0 01.851 2.186c0 2.723-1.811 4.193-4.463 4.193h-3.959a1.423 1.423 0 01-1.544-1.371v-10.86zm2.89 3.975h1.504a1.41 1.41 0 001.466-.911 1.41 1.41 0 00.088-.61 1.392 1.392 0 00-.977-1.319 1.378 1.378 0 00-.577-.052h-1.504v2.892zm0 5.762h2.266a1.636 1.636 0 001.287-.432 1.653 1.653 0 00.524-1.257c0-.904-.692-1.52-2.038-1.52h-2.039v3.21zm8.343-4.312c0-3.974 2.692-7.104 6.612-7.104 3.919 0 6.621 3.18 6.621 7.104 0 3.925-2.672 7.104-6.621 7.104-3.949 0-6.612-3.11-6.612-7.104zm10.234 0c0-2.335-1.217-4.44-3.622-4.44s-3.643 2.105-3.643 4.44c0 2.335 1.168 4.441 3.613 4.441 2.444 0 3.622-2.086 3.622-4.44h.03zm12.362-5.494a1.446 1.446 0 01.377-1.103 1.44 1.44 0 012.126 0 1.46 1.46 0 01.377 1.103v10.929a1.46 1.46 0 01-.86 1.448 1.437 1.437 0 01-1.643-.346 1.444 1.444 0 01-.377-1.102v-3.309h-2.346c-3.029 0-5.354-1.867-5.354-4.63v-2.99c0-.389.153-.761.427-1.036a1.457 1.457 0 012.492 1.036v2.822c0 1.33 1.168 2.126 2.653 2.126h2.157v-4.948m5.276 0a1.448 1.448 0 011.998-1.34 1.443 1.443 0 01.782.785c.072.176.11.364.11.555v4.093h6.037v-4.093a1.448 1.448 0 011.998-1.34 1.447 1.447 0 01.892 1.34v10.929a1.448 1.448 0 01-1.998 1.34 1.447 1.447 0 01-.892-1.34v-4.163h-6.037v4.213a1.446 1.446 0 01-2.467 1.026 1.443 1.443 0 01-.423-1.026v-10.98zm19.111 3.875c2.791 0 4.801 1.311 4.801 4.203 0 2.732-1.802 4.292-4.454 4.292h-3.682a1.417 1.417 0 01-1.083-.382 1.436 1.436 0 01-.451-1.059v-10.93a1.446 1.446 0 01.377-1.102 1.44 1.44 0 012.126 0 1.46 1.46 0 01.377 1.103v3.875h1.979m-1.979 5.961h1.979a1.704 1.704 0 001.291-.49 1.716 1.716 0 00.511-1.288c0-.914-.693-1.63-1.98-1.63h-1.761l-.04 3.408zm9.808-11.327a1.374 1.374 0 011.445 1.49v10.93a1.445 1.445 0 01-.377 1.102 1.44 1.44 0 01-2.126 0 1.46 1.46 0 01-.377-1.102v-10.93a1.379 1.379 0 011.435-1.49zm3.88 1.789c0-.994.475-1.68 1.495-1.68h4.77a1.274 1.274 0 011.264.846c.062.172.086.354.072.536a1.305 1.305 0 01-.841 1.25c-.168.063-.346.09-.525.081h-3.385v2.822h3.158a1.305 1.305 0 011.405 1.331 1.333 1.333 0 01-.873 1.254 1.328 1.328 0 01-.532.078h-3.158v2.98h3.563a1.27 1.27 0 01.98.36 1.288 1.288 0 01.386.972 1.308 1.308 0 01-1.366 1.331h-4.948a1.405 1.405 0 01-1.465-1.53V16.195zM91.055 43.359h-2.078a1.243 1.243 0 01-1.23-.814 1.255 1.255 0 01-.077-.518 1.308 1.308 0 01.387-.917 1.297 1.297 0 01.92-.374h7.076a1.291 1.291 0 011.228.826c.064.164.094.34.089.515a1.256 1.256 0 01-.799 1.25 1.22 1.22 0 01-.518.081h-2.088v9.688a1.456 1.456 0 01-.892 1.34 1.44 1.44 0 01-1.888-.785 1.456 1.456 0 01-.11-.555v-9.737m7.621-.984c0-.993.485-1.689 1.504-1.689h4.771a1.282 1.282 0 011.276.813c.066.168.097.348.09.528a1.316 1.316 0 01-.843 1.248 1.303 1.303 0 01-.523.084h-3.385v2.811h3.157a1.293 1.293 0 011.298.8c.069.169.102.35.098.532a1.325 1.325 0 01-1.396 1.341h-3.157v2.98h3.553a1.275 1.275 0 011.276.805c.067.167.097.347.09.527a1.306 1.306 0 01-.841 1.25 1.289 1.289 0 01-.525.082h-4.949a1.399 1.399 0 01-1.06-.398 1.411 1.411 0 01-.424-1.053v-10.66m13.638 4.709l-3.117-4.253a1.342 1.342 0 01-.307-.844 1.39 1.39 0 01.423-1.03 1.372 1.372 0 011.042-.381 1.672 1.672 0 011.247.715l2.385 3.418 2.385-3.398a1.64 1.64 0 011.247-.715 1.368 1.368 0 011.042.381 1.384 1.384 0 01.423 1.03 1.403 1.403 0 01-.307.844l-3.117 4.252 3.81 5.137c.206.29.32.637.327.994a1.36 1.36 0 01-1.465 1.35 1.414 1.414 0 01-1.198-.635l-3.147-4.401-3.167 4.371a1.384 1.384 0 01-1.198.636 1.34 1.34 0 01-1.023-.355 1.372 1.372 0 01-.32-.453 1.372 1.372 0 01-.112-.543c.002-.358.117-.705.327-.994l3.81-5.136m9.126-4.998a1.443 1.443 0 112.89 0v4.093h6.037v-4.093a1.46 1.46 0 01.86-1.448 1.437 1.437 0 011.643.346 1.445 1.445 0 01.377 1.102v10.93a1.445 1.445 0 01-.377 1.102 1.44 1.44 0 01-2.126 0 1.46 1.46 0 01-.377-1.103v-4.163h-6.037v4.203c0 .385-.152.754-.423 1.026a1.443 1.443 0 01-2.467-1.026v-10.93m13.698 5.446c0-3.975 2.702-7.104 6.621-7.104 3.919 0 6.611 3.189 6.611 7.104 0 3.914-2.672 7.084-6.611 7.084-3.939 0-6.621-3.11-6.621-7.114m10.233 0c0-2.335-1.207-4.441-3.612-4.441-2.405 0-3.613 2.106-3.613 4.44 0 2.336 1.168 4.442 3.613 4.442 2.445 0 3.612-2.057 3.612-4.411v-.03zm13.867 7.024a1.37 1.37 0 01-1.061-.426 1.39 1.39 0 01-.375-1.084V43.24h-3.81v4.322c0 2.185-.594 4.66-2.158 6.01a3.467 3.467 0 01-2.286.994 1.237 1.237 0 01-1.306-1.331c0-.676.326-.994 1.078-1.352.753-.357 1.782-1.57 1.782-3.725v-5.962a1.403 1.403 0 01.882-1.363 1.39 1.39 0 01.563-.097h6.691a1.39 1.39 0 011.368.928c.066.186.092.385.077.582v10.8a1.394 1.394 0 01-.868 1.413c-.183.073-.38.106-.577.097m3.335-6.994c0-3.975 2.692-7.104 6.611-7.104 3.92 0 6.622 3.189 6.622 7.104 0 3.914-2.623 7.084-6.582 7.084-3.959 0-6.611-3.11-6.611-7.114m10.233 0c0-2.335-1.217-4.441-3.622-4.441s-3.613 2.106-3.613 4.44c0 2.336 1.178 4.442 3.613 4.442s3.583-2.057 3.583-4.411l.039-.03zm4.85-5.336a1.46 1.46 0 01.44-1.054 1.448 1.448 0 011.064-.406h4.949a1.335 1.335 0 011.221 1.336 1.335 1.335 0 01-1.221 1.336h-3.543v9.688a1.46 1.46 0 01-.86 1.448 1.437 1.437 0 01-1.643-.346 1.444 1.444 0 01-.377-1.102v-10.9m19.567 12.36a1.372 1.372 0 01-1.366-.927 1.39 1.39 0 01-.069-.583v-7.203l-6.236 8.077a1.661 1.661 0 01-1.207.636 1.384 1.384 0 01-1.371-.927 1.394 1.394 0 01-.074-.583v-10.93a1.445 1.445 0 01.377-1.102 1.438 1.438 0 012.126 0 1.46 1.46 0 01.377 1.103v7.263l6.235-8.167a1.647 1.647 0 011.208-.636 1.371 1.371 0 011.371.918c.066.186.091.385.074.582v10.93a1.394 1.394 0 01-.867 1.412 1.384 1.384 0 01-.578.097m14.242.04a1.372 1.372 0 01-1.366-.927 1.39 1.39 0 01-.069-.583v-7.203h-.05l-6.185 8.077a1.682 1.682 0 01-1.218.636 1.367 1.367 0 01-1.061-.426 1.375 1.375 0 01-.374-1.084v-10.93a1.46 1.46 0 01.86-1.448 1.437 1.437 0 011.643.346 1.444 1.444 0 01.377 1.103v7.263l6.236-8.167a1.629 1.629 0 011.207-.636 1.369 1.369 0 011.064.419 1.388 1.388 0 01.381 1.081v10.93a1.394 1.394 0 01-.867 1.412 1.384 1.384 0 01-.578.097" fill="#005AAA"/><path fill-rule="evenodd" clip-rule="evenodd" d="M62.145 0h-.079a4.643 4.643 0 00-3.285 1.354 4.679 4.679 0 00-1.377 3.286 4.679 4.679 0 001.366 3.276 4.643 4.643 0 003.266 1.364h.08a4.653 4.653 0 003.244-1.378 4.689 4.689 0 001.358-3.262 4.679 4.679 0 00-1.345-3.255A4.643 4.643 0 0062.145 0m0 8.545a3.846 3.846 0 01-2.855-1.062 3.874 3.874 0 01-1.2-2.808 3.887 3.887 0 011.2-2.809A3.857 3.857 0 0162.145.805 3.847 3.847 0 0165 1.866a3.874 3.874 0 011.2 2.809A3.887 3.887 0 0165 7.483a3.858 3.858 0 01-2.855 1.062z" fill="#005AAA"/><path fill-rule="evenodd" clip-rule="evenodd" d="M63.501 5.415a3.159 3.159 0 00-.544-.447 1.62 1.62 0 00.99-.487c.24-.236.378-.557.385-.894a1.734 1.734 0 00-.227-.815 1.238 1.238 0 00-.604-.457 3.077 3.077 0 00-1.178-.159h-2.138v5.067h.99V5.097h.188c.177-.007.354.013.525.06a.91.91 0 01.247.168h.06l.534.746.723 1.112h1.217l-.604-.993a5.257 5.257 0 00-.574-.835m-1.346-1.073h-.99V3.04h1.535a.583.583 0 01.503.384c.022.068.029.14.021.212a.827.827 0 01-.089.388.751.751 0 01-.307.199c-.222.04-.447.06-.673.06z" fill="#005AAA"/></g><defs><clipPath id="clip0_1_4"><path fill="#fff" d="M0 0h213v74H0z"/></clipPath></defs></svg>