<svg width="35" height="35" viewBox="0 0 35 35" fill="none" xmlns="http://www.w3.org/2000/svg">
<path fill-rule="evenodd" clip-rule="evenodd" d="M29.4534 11.9534C29.586 12.086 29.7083 12.2269 29.8199 12.375L24.4167 12.375C22.6217 12.375 21.1667 10.9199 21.1667 9.12496L21.1667 3.72176C21.3147 3.8333 21.4557 3.95561 21.5882 4.0882L29.4534 11.9534ZM19.6667 9.12496L19.6667 3.02077C19.3717 2.95209 19.0676 2.91663 18.7598 2.91663L8.375 2.91663C6.16586 2.91663 4.375 4.70749 4.375 6.91663L4.375 28.0833C4.375 30.2924 6.16586 32.0833 8.375 32.0833L26.625 32.0833C28.8341 32.0833 30.625 30.2924 30.625 28.0833L30.625 14.7818C30.625 14.4741 30.5895 14.1699 30.5209 13.875L24.4167 13.875C21.7933 13.875 19.6667 11.7483 19.6667 9.12496ZM22.4394 17.9938C22.7122 17.6821 22.6806 17.2083 22.3689 16.9355C22.0572 16.6628 21.5833 16.6944 21.3106 17.0061L16.8365 22.1193C16.7484 22.22 16.5966 22.2335 16.4922 22.1499L13.5935 19.831C13.2701 19.5722 12.7981 19.6247 12.5393 19.9481C12.2806 20.2716 12.333 20.7435 12.6565 21.0023L15.5551 23.3212C16.2864 23.9062 17.3487 23.8119 17.9654 23.1071L22.4394 17.9938Z" fill="#84BD00"/>
</svg>
