<svg width="35" height="35" viewBox="0 0 35 35" fill="none" xmlns="http://www.w3.org/2000/svg">
<path fill-rule="evenodd" clip-rule="evenodd" d="M29.4534 13.4117C29.4791 13.4374 29.5043 13.4633 29.5292 13.4895H24.7917C22.1741 13.4895 20.0521 11.3676 20.0521 8.74996V4.01246C20.0783 4.03732 20.1043 4.06257 20.1299 4.0882L29.4534 13.4117ZM17.8646 8.74996L17.8646 2.95644C17.6791 2.93007 17.491 2.91663 17.3015 2.91663L8.375 2.91663C6.16586 2.91663 4.375 4.70749 4.375 6.91663L4.375 28.0833C4.375 30.2924 6.16586 32.0833 8.375 32.0833L26.625 32.0833C28.8341 32.0833 30.625 30.2924 30.625 28.0833V16.2401C30.625 16.0506 30.6116 15.8625 30.5852 15.677H24.7917C20.9659 15.677 17.8646 12.5757 17.8646 8.74996ZM9.3866 26.25V19.9865H11.416C12.1851 19.9865 12.6864 20.0179 12.9199 20.0805C13.2788 20.1745 13.5793 20.3796 13.8214 20.6958C14.0635 21.0091 14.1846 21.415 14.1846 21.9134C14.1846 22.2979 14.1148 22.6212 13.9752 22.8833C13.8357 23.1453 13.6576 23.3518 13.4412 23.5028C13.2275 23.6509 13.0096 23.7491 12.7875 23.7976C12.4856 23.8574 12.0483 23.8873 11.4758 23.8873H10.6512V26.25H9.3866ZM10.6512 21.0461V22.8234H11.3434C11.8418 22.8234 12.1751 22.7907 12.3431 22.7252C12.5112 22.6597 12.6422 22.5571 12.7362 22.4176C12.833 22.278 12.8815 22.1156 12.8815 21.9305C12.8815 21.7026 12.8145 21.5146 12.6807 21.3665C12.5468 21.2184 12.3773 21.1259 12.1722 21.0888C12.0213 21.0603 11.7179 21.0461 11.2622 21.0461H10.6512ZM15.2185 19.9865H17.5299C18.0511 19.9865 18.4485 20.0264 18.7219 20.1062C19.0894 20.2144 19.4041 20.4067 19.6661 20.6829C19.9282 20.9592 20.1276 21.2982 20.2643 21.6998C20.401 22.0986 20.4694 22.5913 20.4694 23.1781C20.4694 23.6936 20.4053 24.1379 20.2771 24.5111C20.1204 24.9668 19.8969 25.3357 19.6063 25.6176C19.387 25.8313 19.0908 25.9979 18.7177 26.1175C18.4385 26.2058 18.0654 26.25 17.5983 26.25H15.2185V19.9865ZM16.4832 21.0461V25.1947H17.4274C17.7806 25.1947 18.0355 25.1747 18.1921 25.1348C18.3972 25.0836 18.5667 24.9967 18.7006 24.8742C18.8373 24.7517 18.9484 24.5509 19.0338 24.2718C19.1193 23.9898 19.162 23.6067 19.162 23.1225C19.162 22.6383 19.1193 22.2666 19.0338 22.0074C18.9484 21.7482 18.8287 21.546 18.6749 21.4007C18.5211 21.2555 18.326 21.1572 18.0896 21.1059C17.913 21.066 17.5669 21.0461 17.0514 21.0461H16.4832ZM21.5546 19.9865V26.25H22.8192V23.5882H25.434V22.5286H22.8192V21.0461H25.8484V19.9865H21.5546Z" fill="#84BD00"/>
</svg>
