<svg width="35" height="35" viewBox="0 0 35 35" fill="none" xmlns="http://www.w3.org/2000/svg">
<path d="M20.4163 24.7916C20.4163 23.1808 19.1105 21.875 17.4997 21.875C15.8888 21.875 14.583 23.1808 14.583 24.7916C14.583 26.4025 15.8888 27.7083 17.4997 27.7083C19.1105 27.7083 20.4163 26.4025 20.4163 24.7916Z" fill="#84BD00"/>
<path d="M21.8747 18.9578H21.1247C21.1247 19.1937 21.2356 19.4158 21.4242 19.5575L21.8747 18.9578ZM13.1247 18.9578L13.5751 19.5575C13.7637 19.4158 13.8747 19.1937 13.8747 18.9578H13.1247ZM16.7497 24.7917C16.7497 25.2059 17.0855 25.5417 17.4997 25.5417C17.9139 25.5417 18.2497 25.2059 18.2497 24.7917H16.7497ZM18.2497 7.29169C18.2497 6.87747 17.9139 6.54169 17.4997 6.54169C17.0855 6.54169 16.7497 6.87747 16.7497 7.29169H18.2497ZM28.4163 8.75002C28.4163 9.16423 28.7521 9.50002 29.1663 9.50002C29.5806 9.50002 29.9163 9.16423 29.9163 8.75002H28.4163ZM29.9163 2.91669C29.9163 2.50247 29.5806 2.16669 29.1663 2.16669C28.7521 2.16669 28.4163 2.50247 28.4163 2.91669H29.9163ZM26.2497 5.08335C25.8355 5.08335 25.4997 5.41914 25.4997 5.83335C25.4997 6.24757 25.8355 6.58335 26.2497 6.58335V5.08335ZM32.083 6.58335C32.4972 6.58335 32.833 6.24757 32.833 5.83335C32.833 5.41914 32.4972 5.08335 32.083 5.08335V6.58335ZM24.0413 24.7917C24.0413 28.4046 21.1125 31.3334 17.4997 31.3334V32.8334C21.941 32.8334 25.5413 29.233 25.5413 24.7917H24.0413ZM17.4997 31.3334C13.8868 31.3334 10.958 28.4046 10.958 24.7917H9.45801C9.45801 29.233 13.0584 32.8334 17.4997 32.8334V31.3334ZM17.4997 3.66669C19.5017 3.66669 21.1247 5.28965 21.1247 7.29169H22.6247C22.6247 4.46123 20.3301 2.16669 17.4997 2.16669V3.66669ZM17.4997 2.16669C14.6692 2.16669 12.3747 4.46123 12.3747 7.29169H13.8747C13.8747 5.28965 15.4976 3.66669 17.4997 3.66669V2.16669ZM21.1247 7.29169V18.9578H22.6247V7.29169H21.1247ZM21.4242 19.5575C23.0148 20.7522 24.0413 22.652 24.0413 24.7917H25.5413C25.5413 22.1603 24.2767 19.824 22.3251 18.3581L21.4242 19.5575ZM13.8747 18.9578V7.29169H12.3747V18.9578H13.8747ZM10.958 24.7917C10.958 22.652 11.9845 20.7522 13.5751 19.5575L12.6742 18.3581C10.7227 19.824 9.45801 22.1603 9.45801 24.7917H10.958ZM18.2497 24.7917V7.29169H16.7497V24.7917H18.2497ZM29.9163 8.75002V2.91669H28.4163V8.75002H29.9163ZM26.2497 6.58335L32.083 6.58335V5.08335L26.2497 5.08335V6.58335Z" fill="#84BD00"/>
</svg>
