<svg width="35" height="35" viewBox="0 0 35 35" fill="none" xmlns="http://www.w3.org/2000/svg">
<circle cx="17.5003" cy="20.4166" r="5.83333" stroke="#84BD00" stroke-width="1.5"/>
<path d="M18.9583 20.4167H17.5V18.2292" stroke="#84BD00" stroke-width="1.5" stroke-linecap="round" stroke-linejoin="round"/>
<path d="M31.2071 9.1127L30.6215 9.58122L31.2071 9.1127ZM31.3337 11.6115V28.0834H32.8337V11.6115H31.3337ZM28.0837 31.3334H6.91699V32.8334H28.0837V31.3334ZM3.66699 28.0834V11.6115H2.16699V28.0834H3.66699ZM10.6728 3.66669H24.3278V2.16669H10.6728V3.66669ZM26.8656 4.88643L30.6215 9.58122L31.7928 8.64418L28.037 3.94939L26.8656 4.88643ZM4.37917 9.58122L8.135 4.88643L6.9637 3.94939L3.20787 8.64418L4.37917 9.58122ZM24.3278 3.66669C25.3151 3.66669 26.2489 4.11548 26.8656 4.88643L28.037 3.94939C27.1355 2.82261 25.7708 2.16669 24.3278 2.16669V3.66669ZM10.6728 2.16669C9.22985 2.16669 7.86512 2.82261 6.9637 3.94939L8.135 4.88643C8.75176 4.11548 9.68553 3.66669 10.6728 3.66669V2.16669ZM6.91699 31.3334C5.12206 31.3334 3.66699 29.8783 3.66699 28.0834H2.16699C2.16699 30.7067 4.29364 32.8334 6.91699 32.8334V31.3334ZM31.3337 28.0834C31.3337 29.8783 29.8786 31.3334 28.0837 31.3334V32.8334C30.707 32.8334 32.8337 30.7067 32.8337 28.0834H31.3337ZM32.8337 11.6115C32.8337 10.5329 32.4666 9.48641 31.7928 8.64418L30.6215 9.58122C31.0825 10.1575 31.3337 10.8735 31.3337 11.6115H32.8337ZM3.66699 11.6115C3.66699 10.8735 3.91815 10.1575 4.37917 9.58122L3.20787 8.64418C2.53408 9.48641 2.16699 10.5329 2.16699 11.6115H3.66699Z" fill="#84BD00"/>
<path d="M4.375 10.2083H30.625" stroke="#84BD00" stroke-width="1.5" stroke-linecap="round" stroke-linejoin="round"/>
</svg>
