<svg width="35" height="35" viewBox="0 0 35 35" fill="none" xmlns="http://www.w3.org/2000/svg">
<path d="M31.1608 14.8129L30.6479 15.36L31.1608 14.8129ZM27.0908 10.9972L27.6037 10.45L27.0908 10.9972ZM8.74935 5.125H14.5827V3.625H8.74935V5.125ZM19.666 10.2083V27.7083H21.166V10.2083H19.666ZM3.66602 21.875V10.2083H2.16602V21.875H3.66602ZM14.5827 5.125C17.3901 5.125 19.666 7.40089 19.666 10.2083H21.166C21.166 6.57246 18.2186 3.625 14.5827 3.625V5.125ZM8.74935 3.625C5.11347 3.625 2.16602 6.57246 2.16602 10.2083H3.66602C3.66602 7.40089 5.9419 5.125 8.74935 5.125V3.625ZM20.416 10.9583H25.096V9.45833H20.416V10.9583ZM26.5778 11.5443L30.6479 15.36L31.6738 14.2657L27.6037 10.45L26.5778 11.5443ZM31.3327 16.9407V24.7917H32.8327V16.9407H31.3327ZM30.6479 15.36C31.0848 15.7696 31.3327 16.3418 31.3327 16.9407H32.8327C32.8327 15.9272 32.4132 14.9589 31.6738 14.2657L30.6479 15.36ZM29.166 28.4583C31.1911 28.4583 32.8327 26.8167 32.8327 24.7917H31.3327C31.3327 25.9883 30.3626 26.9583 29.166 26.9583V28.4583ZM25.096 10.9583C25.6464 10.9583 26.1763 11.1679 26.5778 11.5443L27.6037 10.45C26.9241 9.8129 26.0275 9.45833 25.096 9.45833V10.9583ZM12.3743 27.7083C12.3743 28.905 11.4043 29.875 10.2077 29.875V31.375C12.2327 31.375 13.8743 29.7334 13.8743 27.7083H12.3743ZM10.2077 29.875C9.01107 29.875 8.04102 28.905 8.04102 27.7083H6.54102C6.54102 29.7334 8.18264 31.375 10.2077 31.375V29.875ZM10.2077 25.5417C11.4043 25.5417 12.3743 26.5117 12.3743 27.7083H13.8743C13.8743 25.6833 12.2327 24.0417 10.2077 24.0417V25.5417ZM28.416 27.7083C28.416 28.905 27.446 29.875 26.2493 29.875V31.375C28.2744 31.375 29.916 29.7334 29.916 27.7083H28.416ZM26.2493 29.875C25.0527 29.875 24.0827 28.905 24.0827 27.7083H22.5827C22.5827 29.7334 24.2243 31.375 26.2493 31.375V29.875ZM24.0827 27.7083C24.0827 26.5117 25.0527 25.5417 26.2493 25.5417V24.0417C24.2243 24.0417 22.5827 25.6833 22.5827 27.7083H24.0827ZM26.2493 25.5417C27.446 25.5417 28.416 26.5117 28.416 27.7083H29.916C29.916 25.6833 28.2744 24.0417 26.2493 24.0417V25.5417ZM20.416 28.4583H23.3327V26.9583H20.416V28.4583ZM8.04102 27.7083C8.04102 27.6625 8.04243 27.6171 8.0452 27.5722L6.54804 27.4798C6.54338 27.5555 6.54102 27.6317 6.54102 27.7083H8.04102ZM8.0452 27.5722C8.11507 26.4394 9.05683 25.5417 10.2077 25.5417V24.0417C8.25934 24.0417 6.66641 25.5609 6.54804 27.4798L8.0452 27.5722ZM7.48284 26.7995C5.28773 26.2368 3.66602 24.2444 3.66602 21.875H2.16602C2.16602 24.9459 4.26791 27.5239 7.1104 28.2525L7.48284 26.7995ZM13.1243 28.4583H20.416V26.9583H13.1243V28.4583Z" fill="#84BD00"/>
</svg>
