<svg width="35" height="35" viewBox="0 0 35 35" fill="none" xmlns="http://www.w3.org/2000/svg">
<path d="M17.4993 32.8333C17.9136 32.8333 18.2493 32.4975 18.2493 32.0833C18.2493 31.6691 17.9136 31.3333 17.4993 31.3333V32.8333ZM31.3327 20.4166C31.3327 20.8308 31.6685 21.1666 32.0827 21.1666C32.4969 21.1666 32.8327 20.8308 32.8327 20.4166H31.3327ZM6.91602 3.66663H28.0827V2.16663H6.91602V3.66663ZM3.66602 28.0833V6.91662H2.16602V28.0833H3.66602ZM17.4993 31.3333H6.91601V32.8333H17.4993V31.3333ZM31.3327 6.91663V20.4166H32.8327V6.91663H31.3327ZM2.16602 28.0833C2.16602 30.7066 4.29266 32.8333 6.91601 32.8333V31.3333C5.12109 31.3333 3.66602 29.8782 3.66602 28.0833H2.16602ZM28.0827 3.66663C29.8776 3.66663 31.3327 5.1217 31.3327 6.91663H32.8327C32.8327 4.29327 30.706 2.16663 28.0827 2.16663V3.66663ZM6.91602 2.16663C4.29266 2.16663 2.16602 4.29327 2.16602 6.91662H3.66602C3.66602 5.1217 5.12109 3.66663 6.91602 3.66663V2.16663Z" fill="#84BD00"/>
<path d="M11.666 2.91663V2.16663C11.2518 2.16663 10.916 2.50241 10.916 2.91663H11.666ZM23.3327 2.91663H24.0827C24.0827 2.50241 23.7469 2.16663 23.3327 2.16663V2.91663ZM16.7922 12.3737L16.2619 11.8434L16.7922 12.3737ZM11.666 3.66663H23.3327V2.16663H11.666V3.66663ZM22.5827 2.91663V15.0857H24.0827V2.91663H22.5827ZM12.416 15.0857V2.91663H10.916V15.0857H12.416ZM22.1559 15.2625L18.7368 11.8434L17.6761 12.9041L21.0952 16.3232L22.1559 15.2625ZM16.2619 11.8434L12.8428 15.2625L13.9035 16.3232L17.3226 12.9041L16.2619 11.8434ZM18.7368 11.8434C18.0534 11.16 16.9453 11.16 16.2619 11.8434L17.3226 12.9041C17.4202 12.8064 17.5785 12.8064 17.6761 12.9041L18.7368 11.8434ZM10.916 15.0857C10.916 16.6448 12.801 17.4256 13.9035 16.3232L12.8428 15.2625C12.6853 15.42 12.416 15.3085 12.416 15.0857H10.916ZM22.5827 15.0857C22.5827 15.3085 22.3134 15.42 22.1559 15.2625L21.0952 16.3232C22.1977 17.4256 24.0827 16.6448 24.0827 15.0857H22.5827Z" fill="#84BD00"/>
<path d="M22.3435 28.581C22.0201 28.3223 21.5481 28.3747 21.2893 28.6981C21.0306 29.0216 21.083 29.4936 21.4065 29.7523L22.3435 28.581ZM31.1894 26.7439C31.4622 26.4322 31.4306 25.9583 31.1189 25.6856C30.8072 25.4128 30.3333 25.4444 30.0606 25.7561L31.1894 26.7439ZM24.7737 31.4856L24.3051 32.0712L24.7737 31.4856ZM21.4065 29.7523L24.3051 32.0712L25.2422 30.8999L22.3435 28.581L21.4065 29.7523ZM26.7154 31.8571L31.1894 26.7439L30.0606 25.7561L25.5865 30.8693L26.7154 31.8571ZM24.3051 32.0712C25.0364 32.6563 26.0987 32.5619 26.7154 31.8571L25.5865 30.8693C25.4984 30.97 25.3466 30.9835 25.2422 30.8999L24.3051 32.0712Z" fill="#84BD00"/>
</svg>
