<?xml version="1.0" encoding="utf-8"?>
<!-- Generator: Adobe Illustrator 25.4.1, SVG Export Plug-In . SVG Version: 6.00 Build 0)  -->
<svg version="1.1" id="Layer_1" xmlns="http://www.w3.org/2000/svg" xmlns:xlink="http://www.w3.org/1999/xlink" x="0px" y="0px"
	 viewBox="0 0 30 30" style="enable-background:new 0 0 30 30;" xml:space="preserve">
<style type="text/css">
	.st0{fill:#FFF;}
</style>
<g>
	<path class="st0" d="M28.6,13.2L28.6,13.2c0-0.2-0.2-0.3-0.4-0.4c-0.1,0-1.7-0.5-4-0.4c-2.1,0.1-5.2,0.9-8.1,3.8
		c-2.9,2.9-3.7,6-3.8,8.1c-0.2,2.3,0.4,3.9,0.4,4c0.1,0.2,0.2,0.3,0.3,0.3c0.1,0,1.3,0.4,3.1,0.4c0.3,0,0.6,0,0.9,0
		c2.1-0.1,5.2-0.9,8.1-3.8C30.3,20.1,28.9,14.3,28.6,13.2z M24.3,13.5c1.1-0.1,2,0,2.7,0.1c0,0-0.1,0-0.1,0.1L23,17.6v-3.9
		C23.4,13.6,23.9,13.5,24.3,13.5z M18.2,22.3v-6.5c0,0,0,0,0-0.1c1.1-0.9,2.4-1.5,3.7-1.9v4.8L18.2,22.3z M13.5,24.4
		c0.2-2.8,1.4-5.3,3.5-7.4c0.1-0.1,0.1-0.1,0.2-0.2v6.6c0,0,0,0,0,0L13.6,27C13.5,26.4,13.4,25.4,13.5,24.4z M17,27.9
		c-1.1,0.1-2,0-2.7-0.1l1.7-1.7c0,0,0,0,0,0h6.3C20.8,27.1,19,27.7,17,27.9z M24.4,24.4c-0.2,0.2-0.4,0.4-0.6,0.6h-6.6l3.2-3.2h6.1
		C25.9,22.7,25.3,23.5,24.4,24.4z M27,20.7h-5.5l6.3-6.3c0,0,0,0,0.1-0.1C28,15.7,28.1,18.1,27,20.7z"/>
	<path class="st0" d="M11.2,21.7v-6.4c0.7,0.4,1.3,1,1.9,1.6c0.2,0.2,0.6,0.2,0.8,0c0.2-0.2,0.2-0.6,0-0.8c-2.9-2.9-6-3.7-8.1-3.8
		c-2.3-0.2-3.9,0.4-4,0.4c-0.2,0.1-0.3,0.2-0.4,0.4l0,0c-0.3,1.1-1.7,6.9,3.4,12c1.6,1.6,3.5,2.7,5.5,3.3c0.1,0,0.1,0,0.2,0
		c0.2,0,0.5-0.2,0.5-0.4c0.1-0.3-0.1-0.6-0.4-0.7c-1.9-0.5-3.5-1.6-5-3.1c-1.3-1.3-2.1-2.6-2.7-3.9h5.4l2.6,2.6
		c0.1,0.1,0.2,0.2,0.4,0.2s0.3-0.1,0.4-0.2c0.2-0.2,0.2-0.6,0-0.8L11.2,21.7z M10.1,20.6L7.5,18v-4.3c0.9,0.2,1.8,0.5,2.6,1V20.6z
		 M5.6,13.5c0.2,0,0.5,0,0.7,0.1v3.4l-3.3-3.3c0,0,0,0,0,0C3.6,13.5,4.6,13.4,5.6,13.5z M2.6,19.4c-0.6-2.1-0.5-3.9-0.3-5
		c0,0,0,0,0,0l5,5L2.6,19.4L2.6,19.4z"/>
	<path class="st0" d="M11.3,25.6c-1.1-0.3-2.1-0.8-3-1.5c-0.2-0.2-0.6-0.1-0.8,0.1c-0.2,0.2-0.1,0.6,0.1,0.8c1,0.7,2.1,1.3,3.3,1.6
		c0.1,0,0.1,0,0.2,0c0.2,0,0.5-0.2,0.5-0.4C11.8,26,11.6,25.7,11.3,25.6z"/>
	<path class="st0" d="M6.3,23c-0.2,0.2-0.2,0.6,0,0.8c0.1,0.1,0.2,0.2,0.4,0.2s0.3-0.1,0.4-0.2c0.2-0.2,0.2-0.6,0-0.8l0,0
		C6.8,22.8,6.5,22.8,6.3,23z"/>
	<path class="st0" d="M4.5,9H8c0.3,0,0.5-0.2,0.5-0.5c0-0.3-0.2-0.5-0.5-0.5H5V5.6h2c0.3,0,0.5-0.2,0.5-0.5S7.4,4.5,7.1,4.5H5V2.1h3
		c0.3,0,0.5-0.2,0.5-0.5S8.3,1,8,1H4.5C4.2,1,4,1.2,4,1.5v6.9C4,8.8,4.2,9,4.5,9z"/>
	<path class="st0" d="M22,9c2.2,0,4-1.8,4-4s-1.8-4-4-4s-4,1.8-4,4S19.8,9,22,9z M22,2.1c1.6,0,2.9,1.3,2.9,2.9S23.6,7.9,22,7.9
		S19.1,6.6,19.1,5S20.4,2.1,22,2.1z"/>
	<path class="st0" d="M13.8,9c1,0,2.1-0.4,2.8-1.2c0.2-0.2,0.2-0.6,0-0.8c-0.2-0.2-0.6-0.2-0.8,0c-1.1,1.1-3,1.1-4.1,0
		c-1.1-1.1-1.1-3,0-4.1c1.1-1.1,3-1.1,4.1,0c0.2,0.2,0.6,0.2,0.8,0c0.2-0.2,0.2-0.6,0-0.8c-1.6-1.6-4.1-1.6-5.7,0
		c-1.6,1.6-1.6,4.1,0,5.7C11.7,8.6,12.8,9,13.8,9z"/>
	<path class="st0" d="M14.5,10.9v1.5c0,0.3,0.2,0.5,0.5,0.5s0.5-0.2,0.5-0.5v-1.5c0-0.3-0.2-0.5-0.5-0.5S14.5,10.6,14.5,10.9z"/>
	<path class="st0" d="M16.3,13.7c0.1,0.1,0.2,0.2,0.4,0.2c0.1,0,0.3-0.1,0.4-0.2l1.1-1.1c0.2-0.2,0.2-0.6,0-0.8
		c-0.2-0.2-0.6-0.2-0.8,0l-1.1,1.1C16.1,13.2,16.1,13.5,16.3,13.7z"/>
	<path class="st0" d="M12.6,11.8c-0.2-0.2-0.6-0.2-0.8,0c-0.2,0.2-0.2,0.6,0,0.8l1.1,1.1c0.1,0.1,0.2,0.2,0.4,0.2s0.3-0.1,0.4-0.2
		c0.2-0.2,0.2-0.6,0-0.8L12.6,11.8z"/>
</g>
</svg>
