<?xml version="1.0" encoding="utf-8"?>
<!-- Generator: Adobe Illustrator 25.2.1, SVG Export Plug-In . SVG Version: 6.00 Build 0)  -->
<svg version="1.1" id="Layer_1" xmlns="http://www.w3.org/2000/svg" xmlns:xlink="http://www.w3.org/1999/xlink" x="0px" y="0px"
	 viewBox="0 0 279.5 104" style="enable-background:new 0 0 279.5 104;" xml:space="preserve">
<style type="text/css">
	.st0{fill:#FFFFFF;}
</style>
<g>
	<g>
		<g>
			<path class="st0" d="M121.7,23.8v24.8h-2.5V26h-5.9v-2.3L121.7,23.8z"/>
			<path class="st0" d="M132.4,47.3c-1.5-1-2.7-2.5-3.5-4.4c-0.8-1.9-1.3-4.1-1.3-6.7c0-2.6,0.4-4.8,1.3-6.7s2-3.4,3.5-4.4
				c1.5-1,3.2-1.5,5.1-1.5s3.6,0.5,5.1,1.5c1.5,1,2.7,2.5,3.5,4.4s1.3,4.1,1.3,6.7c0,2.6-0.4,4.8-1.3,6.7c-0.8,1.9-2,3.4-3.5,4.4
				c-1.5,1-3.2,1.5-5.1,1.5S133.9,48.3,132.4,47.3z M141.3,45.3c1.1-0.8,2-2,2.5-3.5c0.6-1.5,0.9-3.4,0.9-5.6s-0.3-4-0.9-5.6
				c-0.6-1.5-1.5-2.7-2.5-3.5c-1.1-0.8-2.4-1.2-3.8-1.2s-2.7,0.4-3.8,1.2c-1.1,0.8-2,2-2.5,3.5c-0.6,1.5-0.9,3.4-0.9,5.6
				s0.3,4,0.9,5.6c0.6,1.5,1.5,2.7,2.5,3.5c1.1,0.8,2.4,1.2,3.8,1.2S140.2,46,141.3,45.3z"/>
			<path class="st0" d="M155.8,47.3c-1.5-1-2.7-2.5-3.5-4.4c-0.8-1.9-1.3-4.1-1.3-6.7c0-2.6,0.4-4.8,1.3-6.7s2-3.4,3.5-4.4
				c1.5-1,3.2-1.5,5.1-1.5s3.6,0.5,5.1,1.5c1.5,1,2.7,2.5,3.5,4.4s1.3,4.1,1.3,6.7c0,2.6-0.4,4.8-1.3,6.7c-0.8,1.9-2,3.4-3.5,4.4
				c-1.5,1-3.2,1.5-5.1,1.5S157.3,48.3,155.8,47.3z M164.7,45.3c1.1-0.8,2-2,2.5-3.5c0.6-1.5,0.9-3.4,0.9-5.6s-0.3-4-0.9-5.6
				c-0.6-1.5-1.5-2.7-2.5-3.5c-1.1-0.8-2.4-1.2-3.8-1.2s-2.7,0.4-3.8,1.2c-1.1,0.8-2,2-2.5,3.5c-0.6,1.5-0.9,3.4-0.9,5.6
				s0.3,4,0.9,5.6c0.6,1.5,1.5,2.7,2.5,3.5c1.1,0.8,2.4,1.2,3.8,1.2S163.6,46,164.7,45.3z"/>
			<path class="st0" d="M175.6,35.2c-1-1.2-1.5-2.8-1.5-4.9c0-2,0.5-3.6,1.5-4.9c1-1.2,2.4-1.9,4-1.9s3,0.6,4,1.8
				c1,1.2,1.6,2.8,1.6,4.9s-0.5,3.7-1.6,4.9c-1,1.2-2.4,1.8-4,1.8C178,37.1,176.7,36.4,175.6,35.2z M182.5,34.1
				c0.7-0.9,1.1-2.2,1.1-3.8s-0.3-2.8-1.1-3.8c-0.7-0.9-1.6-1.4-2.8-1.4c-1.2,0-2.1,0.5-2.8,1.4s-1,2.2-1,3.7c0,1.6,0.3,2.8,1,3.7
				c0.7,0.9,1.6,1.4,2.8,1.4C180.9,35.5,181.8,35,182.5,34.1z M194.7,23.8h2.1l-16.9,24.8h-2.1L194.7,23.8z M190.8,46.9
				c-1-1.2-1.6-2.8-1.6-4.9c0-2,0.5-3.6,1.6-4.9c1-1.2,2.4-1.9,4-1.9s3,0.6,4,1.9c1,1.2,1.5,2.8,1.5,4.9c0,2-0.5,3.6-1.5,4.9
				c-1,1.2-2.4,1.9-4,1.9C193.3,48.8,191.9,48.2,190.8,46.9z M197.7,45.8c0.7-0.9,1-2.2,1-3.7c0-1.6-0.3-2.8-1-3.7
				c-0.7-0.9-1.6-1.4-2.8-1.4c-1.1,0-2.1,0.5-2.8,1.4s-1.1,2.2-1.1,3.8c0,1.6,0.3,2.8,1.1,3.8c0.7,0.9,1.6,1.4,2.8,1.4
				C196.1,47.2,197,46.7,197.7,45.8z"/>
		</g>
		<g>
			<rect x="96.6" y="23.6" class="st0" width="1.4" height="56.4"/>
		</g>
	</g>
	<g>
		<path class="st0" d="M41.1,31.6l4.4,7.7l-6.6,3.8l20.8,5.5l5.6-20.8l-6.6,3.8l-8.8-15.3c-2-3.4-5.4-5.1-8.8-5.1
			c-0.2,0-0.4,0-0.6,0c-0.1,0-0.1,0-0.2,0c-0.1,0-0.3,0-0.4,0c-0.1,0-0.2,0-0.3,0c-0.1,0-0.3,0-0.4,0c-0.1,0-0.2,0-0.3,0
			c-0.1,0-0.3,0-0.4,0.1c-0.1,0-0.2,0-0.3,0.1c-0.1,0-0.3,0.1-0.4,0.1c-0.1,0-0.2,0-0.3,0.1c-0.1,0-0.3,0.1-0.4,0.1
			C37.1,12,37,12,36.9,12c-0.1,0-0.3,0.1-0.3,0.2c-0.1,0-0.2,0.1-0.3,0.1c-0.1,0-0.3,0.1-0.3,0.2c-0.1,0-0.1,0.1-0.2,0.1
			c-0.1,0.1-0.3,0.1-0.3,0.2c-0.1,0-0.1,0.1-0.2,0.1c-0.1,0.1-0.2,0.2-0.3,0.3c-0.1,0-0.1,0.1-0.2,0.2c-0.1,0.1-0.2,0.2-0.3,0.3
			c0,0-0.1,0.1-0.2,0.2c-0.1,0.1-0.2,0.2-0.3,0.3c0,0-0.1,0.1-0.2,0.2c-0.1,0.1-0.2,0.2-0.3,0.3c0,0-0.1,0.1-0.2,0.2
			c-0.1,0.1-0.2,0.3-0.3,0.3c0,0-0.1,0.1-0.1,0.2c-0.1,0.1-0.2,0.3-0.3,0.4c0,0-0.1,0.1-0.1,0.2c0,0.1-0.1,0.2-0.2,0.3l0,0
			c0,0.1-0.1,0.2-0.2,0.3L19.6,38l13.3,7.6L41.1,31.6z M23,37l10.7-18.3L39.6,29l-0.7,1.2l-7,11.9L23,37z"/>
		<path class="st0" d="M23.7,61.6l6.6,3.8l-5.6-20.8L3.9,50.2l6.6,3.8L1.7,69.3c-0.1,0.2-0.3,0.4-0.3,0.6c0,0.1-0.1,0.2-0.1,0.3
			S1.1,70.5,1,70.6c0,0.1-0.1,0.2-0.1,0.3c0,0.1-0.1,0.2-0.1,0.3s0,0.2-0.1,0.3c0,0.1-0.1,0.2-0.1,0.3c0,0.1,0,0.2-0.1,0.3
			c0,0.1,0,0.2-0.1,0.3c0,0.1,0,0.2,0,0.3s0,0.2,0,0.3c0,0.1,0,0.2,0,0.3c0,0.1,0,0.2,0,0.3c0,0.1,0,0.2,0,0.3c0,0.1,0,0.2,0,0.3
			c0,0.1,0,0.2,0,0.3c0,0.1,0,0.2,0,0.3c0,0.1,0,0.2,0,0.3c0,0.1,0,0.2,0,0.3c0,0.1,0,0.2,0,0.3c0,0.1,0,0.2,0.1,0.3
			c0,0.1,0,0.2,0.1,0.3c0,0.1,0,0.2,0.1,0.3c0,0.1,0,0.2,0.1,0.3c0,0.1,0.1,0.2,0.1,0.3C0.9,77.8,1,77.9,1,78c0,0.1,0.1,0.2,0.1,0.3
			c0,0.1,0.1,0.2,0.1,0.3c0,0.1,0.1,0.2,0.2,0.3c0,0.1,0.1,0.2,0.1,0.3c0,0.1,0.1,0.2,0.2,0.3c0,0.1,0.1,0.2,0.1,0.3
			c0,0.1,0.1,0.2,0.2,0.3c0,0.1,0.1,0.2,0.2,0.2c0.1,0.1,0.1,0.2,0.2,0.3c0,0.1,0.1,0.1,0.2,0.2c0.1,0.1,0.2,0.2,0.3,0.3
			c0,0.1,0.1,0.1,0.2,0.2c0.1,0.1,0.2,0.2,0.3,0.3c0,0.1,0.1,0.1,0.2,0.2C3.5,81.9,3.6,82,3.7,82c0.1,0,0.1,0.1,0.2,0.2
			c0.1,0.1,0.2,0.2,0.3,0.3c0.1,0,0.1,0.1,0.2,0.2c0.1,0.1,0.2,0.2,0.3,0.3c0.1,0,0.1,0.1,0.2,0.1c0.1,0.1,0.2,0.1,0.3,0.2
			c0.1,0,0.1,0.1,0.2,0.1c0.1,0.1,0.3,0.1,0.3,0.2c0.1,0,0.1,0.1,0.2,0.1c0.1,0,0.3,0.1,0.4,0.2c0.1,0,0.2,0,0.2,0.1
			c0.1,0,0.3,0.1,0.4,0.2c0.1,0,0.2,0,0.2,0.1c0.1,0,0.3,0.1,0.4,0.1c0.1,0,0.1,0,0.2,0c0.1,0,0.3,0.1,0.5,0.1c0.1,0,0.1,0,0.2,0
			c0.2,0,0.3,0,0.5,0.1c0.1,0,0.1,0,0.2,0c0.2,0,0.3,0,0.5,0c0.1,0,0.1,0,0.2,0c0.1,0,0.2,0,0.3,0l0,0c0.1,0,0.2,0,0.3,0l24.9,0.1
			V69.4l-16.3-0.1L23.7,61.6z M33,71.9v10.3l-21.2-0.1l6-10.3h1.4L33,71.9z"/>
		<path class="st0" d="M78.5,81.5c0.1-0.1,0.2-0.2,0.3-0.3c0,0,0.1-0.1,0.1-0.1c0.1-0.1,0.2-0.3,0.3-0.3c0,0,0.1-0.1,0.1-0.2
			c0.1-0.1,0.2-0.3,0.3-0.4c0,0,0.1-0.1,0.1-0.2c0.1-0.1,0.2-0.3,0.2-0.4c0,0,0.1-0.1,0.1-0.2c0.1-0.1,0.1-0.3,0.2-0.4
			c0,0,0-0.1,0.1-0.2c0-0.1,0.1-0.3,0.2-0.4c0-0.1,0-0.1,0.1-0.2c0-0.1,0.1-0.3,0.2-0.4c0-0.1,0-0.1,0.1-0.2c0-0.1,0.1-0.3,0.1-0.4
			c0-0.1,0-0.1,0-0.2c0-0.1,0.1-0.3,0.1-0.4c0-0.1,0-0.1,0-0.2c0-0.1,0-0.3,0.1-0.4c0-0.1,0-0.1,0-0.2c0-0.1,0-0.3,0-0.4
			c0-0.1,0-0.1,0-0.2c0-0.1,0-0.3,0-0.4c0-0.1,0-0.1,0-0.2c0-0.1,0-0.3,0-0.4c0-0.1,0-0.1,0-0.2c0-0.1,0-0.3,0-0.4
			c0-0.1,0-0.2,0-0.2c0-0.1,0-0.3-0.1-0.4c0-0.1,0-0.2,0-0.2c0-0.1,0-0.3-0.1-0.4c0-0.1,0-0.1,0-0.2c0-0.1-0.1-0.3-0.1-0.4
			c0-0.1,0-0.2-0.1-0.2c0-0.1-0.1-0.3-0.2-0.4c0-0.1,0-0.2-0.1-0.2c0-0.1-0.1-0.3-0.2-0.4c0-0.1-0.1-0.2-0.1-0.2
			c0-0.1-0.1-0.2-0.1-0.3l0,0c0-0.1-0.1-0.2-0.1-0.3L67.6,47.9l-13.3,7.7l8.1,14.2h-8.9v-7.6L38.3,77.4l15.2,15.2V85h17.6l0,0
			c0.3,0,0.5,0,0.7,0c0,0,0,0,0.1,0c0.2,0,0.4,0,0.6-0.1c0,0,0.1,0,0.1,0c0.2,0,0.4,0,0.6-0.1c0,0,0.1,0,0.1,0
			c0.2,0,0.3-0.1,0.5-0.1c0,0,0.1,0,0.2,0c0.2,0,0.3-0.1,0.5-0.2c0,0,0.1,0,0.1,0c0.2,0,0.3-0.1,0.5-0.2c0,0,0.1,0,0.1-0.1
			c0.2-0.1,0.3-0.1,0.5-0.2c0,0,0.1,0,0.1-0.1c0.1-0.1,0.3-0.2,0.4-0.3c0,0,0.1,0,0.1-0.1c0.1-0.1,0.3-0.2,0.4-0.3
			c0,0,0.1-0.1,0.1-0.1c0.1-0.1,0.3-0.2,0.4-0.3c0,0,0.1-0.1,0.1-0.1c0.1-0.1,0.3-0.2,0.3-0.3c0,0,0.1-0.1,0.1-0.1
			c0.1-0.1,0.2-0.2,0.3-0.3C78.4,81.7,78.5,81.6,78.5,81.5z M64.6,68.3l-6.8-12l8.9-5.1l10.6,18.4H65.3L64.6,68.3z"/>
	</g>
	<g>
		<path class="st0" d="M119.5,63.7h3.3v-2.5h0.8V67h-0.8v-2.7h-3.3V67h-0.8v-5.9h0.8V63.7z"/>
		<path class="st0" d="M126.8,67.1c-0.3,0-0.5,0-0.8-0.1c-0.2-0.1-0.4-0.2-0.6-0.4c-0.2-0.2-0.3-0.4-0.4-0.6
			c-0.1-0.2-0.1-0.5-0.1-0.7c0-0.3,0.1-0.5,0.2-0.7c0.1-0.2,0.3-0.4,0.5-0.6c0.2-0.2,0.5-0.3,0.8-0.4c0.3-0.1,0.6-0.1,1-0.1
			c0.3,0,0.6,0,0.9,0.1c0.3,0.1,0.6,0.1,0.8,0.2v-0.5c0-0.5-0.1-0.9-0.4-1.2c-0.3-0.3-0.7-0.5-1.2-0.5c-0.3,0-0.6,0.1-0.9,0.2
			c-0.3,0.1-0.6,0.3-1,0.5l-0.3-0.5c0.8-0.5,1.5-0.8,2.2-0.8c0.7,0,1.3,0.2,1.7,0.6c0.4,0.4,0.6,1,0.6,1.7V66c0,0.2,0.1,0.3,0.3,0.3
			V67c-0.1,0-0.2,0-0.3,0c-0.2,0-0.3,0-0.5-0.1c-0.1-0.1-0.2-0.2-0.2-0.4l0-0.5c-0.3,0.4-0.6,0.6-1,0.8
			C127.7,67,127.3,67.1,126.8,67.1z M127,66.5c0.4,0,0.8-0.1,1.1-0.2c0.3-0.2,0.6-0.4,0.8-0.6c0.1-0.1,0.1-0.1,0.2-0.2
			c0-0.1,0.1-0.2,0.1-0.2v-1c-0.3-0.1-0.5-0.2-0.8-0.2c-0.3-0.1-0.6-0.1-0.8-0.1c-0.5,0-1,0.1-1.3,0.3c-0.3,0.2-0.5,0.5-0.5,0.9
			c0,0.2,0,0.4,0.1,0.5c0.1,0.2,0.2,0.3,0.3,0.4c0.1,0.1,0.3,0.2,0.4,0.3C126.6,66.5,126.8,66.5,127,66.5z"/>
		<path class="st0" d="M131.5,67v-5.9h0.8v5.2h2.2v-5.2h0.8v5.2h2.2v-5.2h0.8V67H131.5z"/>
		<path class="st0" d="M140.7,65.9l3.5-4.8h0.6V67h-0.8v-4.7l-3.5,4.7h-0.7v-5.9h0.8V65.9z"/>
		<path class="st0" d="M146.7,61.1l1.8,2.3l0.1,0.2l0.1-0.2l1.8-2.3h0.8l-2.3,3l2.3,2.9h-0.8l-1.8-2.3l-0.1-0.2l-0.1,0.2l-1.8,2.3
			h-0.8l2.3-2.9l-2.3-3H146.7z"/>
		<path class="st0" d="M155.3,59h6.2v8h-0.8v-7.3h-4.6V67h-0.8V59z"/>
		<path class="st0" d="M166.2,67.1c-0.4,0-0.7,0-1-0.1c-0.3-0.1-0.6-0.2-0.9-0.4c-0.3-0.2-0.5-0.4-0.8-0.6c-0.2-0.2-0.4-0.5-0.5-0.8
			l0.7-0.3c0.1,0.3,0.3,0.5,0.5,0.7c0.2,0.2,0.4,0.3,0.6,0.5c0.2,0.1,0.5,0.2,0.7,0.3c0.2,0.1,0.5,0.1,0.7,0.1
			c0.4,0,0.8-0.1,1.2-0.3c0.4-0.2,0.7-0.4,1-0.7c0.3-0.3,0.5-0.6,0.6-1c0.2-0.4,0.3-0.8,0.3-1.2h-4.1v-0.7h4.1
			c0-0.4-0.1-0.7-0.3-1.1c-0.1-0.4-0.3-0.7-0.6-0.9c-0.3-0.3-0.6-0.5-0.9-0.7c-0.4-0.2-0.8-0.2-1.3-0.2c-0.2,0-0.5,0-0.7,0.1
			c-0.2,0-0.5,0.1-0.7,0.2c-0.2,0.1-0.4,0.3-0.6,0.4c-0.2,0.2-0.4,0.4-0.5,0.7l-0.6-0.4c0.3-0.5,0.6-0.9,1.1-1.3
			c0.5-0.3,1.1-0.5,1.9-0.5c0.6,0,1.2,0.1,1.7,0.4c0.5,0.2,0.9,0.5,1.2,0.9s0.6,0.8,0.7,1.3c0.2,0.5,0.2,1,0.2,1.4
			c0,0.5-0.1,1-0.3,1.5c-0.2,0.5-0.4,0.9-0.8,1.3c-0.3,0.4-0.7,0.7-1.2,0.9C167.3,67,166.7,67.1,166.2,67.1z"/>
		<path class="st0" d="M176.8,59.7H174V67h-0.8v-7.3h-2.9V59h6.5V59.7z"/>
		<path class="st0" d="M181.5,65.9l3.5-4.8h0.6V67h-0.8v-4.7l-3.5,4.7h-0.7v-5.9h0.8V65.9z"/>
		<path class="st0" d="M190.4,59h6.2v8h-0.8v-7.3h-4.6V67h-0.8V59z"/>
		<path class="st0" d="M198.7,59h6.2v8h-0.8v-7.3h-4.6V67h-0.8V59z"/>
		<path class="st0" d="M213.1,61.1h0.9l-2.2,2.9l2.4,3h-0.9l-2.1-2.7h-0.8V67h-0.8v-5.9h0.8v2.6h0.8L213.1,61.1z"/>
		<path class="st0" d="M217.4,67.1c-0.4,0-0.8-0.1-1.2-0.2c-0.4-0.2-0.7-0.4-0.9-0.7c-0.3-0.3-0.5-0.6-0.6-1
			c-0.1-0.4-0.2-0.8-0.2-1.2c0-0.4,0.1-0.8,0.2-1.2c0.1-0.4,0.4-0.7,0.6-1c0.3-0.3,0.6-0.5,0.9-0.7c0.4-0.2,0.7-0.2,1.2-0.2
			c0.4,0,0.8,0.1,1.2,0.2c0.4,0.2,0.7,0.4,0.9,0.7c0.3,0.3,0.5,0.6,0.6,1c0.1,0.4,0.2,0.8,0.2,1.2c0,0.4-0.1,0.8-0.2,1.2
			c-0.1,0.4-0.3,0.7-0.6,1c-0.3,0.3-0.6,0.5-0.9,0.7C218.2,67.1,217.8,67.1,217.4,67.1z M215.3,64.1c0,0.3,0.1,0.6,0.2,0.9
			c0.1,0.3,0.3,0.5,0.5,0.7c0.2,0.2,0.4,0.4,0.7,0.5c0.3,0.1,0.5,0.2,0.8,0.2s0.6-0.1,0.8-0.2c0.3-0.1,0.5-0.3,0.7-0.5
			c0.2-0.2,0.4-0.5,0.5-0.8c0.1-0.3,0.2-0.6,0.2-0.9c0-0.3-0.1-0.6-0.2-0.9c-0.1-0.3-0.3-0.5-0.5-0.8c-0.2-0.2-0.4-0.4-0.7-0.5
			c-0.3-0.1-0.5-0.2-0.8-0.2s-0.6,0.1-0.8,0.2c-0.3,0.1-0.5,0.3-0.7,0.5c-0.2,0.2-0.4,0.5-0.5,0.8C215.3,63.5,215.3,63.8,215.3,64.1
			z"/>
		<path class="st0" d="M222.4,63.7h3.3v-2.5h0.8V67h-0.8v-2.7h-3.3V67h-0.8v-5.9h0.8V63.7z"/>
		<path class="st0" d="M230.4,67h-0.7v-5.2h-2.1v-0.7h4.9v0.7h-2.1V67z"/>
		<path class="st0" d="M235.8,67.1c-0.4,0-0.8-0.1-1.2-0.2c-0.4-0.2-0.7-0.4-0.9-0.7c-0.3-0.3-0.5-0.6-0.6-1
			c-0.1-0.4-0.2-0.8-0.2-1.2c0-0.4,0.1-0.8,0.2-1.2c0.1-0.4,0.4-0.7,0.6-1c0.3-0.3,0.6-0.5,0.9-0.7c0.4-0.2,0.8-0.2,1.2-0.2
			c0.4,0,0.8,0.1,1.2,0.2c0.4,0.2,0.7,0.4,0.9,0.7s0.5,0.6,0.6,1c0.1,0.4,0.2,0.7,0.2,1.2c0,0.1,0,0.1,0,0.2s0,0.1,0,0.1h-5
			c0,0.3,0.1,0.6,0.2,0.9c0.1,0.3,0.3,0.5,0.5,0.7c0.2,0.2,0.4,0.3,0.7,0.5c0.3,0.1,0.5,0.2,0.8,0.2c0.2,0,0.4,0,0.6-0.1
			c0.2-0.1,0.4-0.1,0.5-0.2c0.2-0.1,0.3-0.2,0.4-0.3c0.1-0.1,0.2-0.3,0.3-0.4l0.7,0.2c-0.1,0.2-0.2,0.4-0.4,0.6s-0.4,0.3-0.6,0.5
			c-0.2,0.1-0.5,0.2-0.7,0.3C236.4,67.1,236.1,67.1,235.8,67.1z M238,63.8c0-0.3-0.1-0.6-0.2-0.9c-0.1-0.3-0.3-0.5-0.5-0.7
			c-0.2-0.2-0.4-0.3-0.7-0.4c-0.3-0.1-0.5-0.2-0.8-0.2c-0.3,0-0.6,0.1-0.8,0.2c-0.3,0.1-0.5,0.3-0.7,0.4c-0.2,0.2-0.3,0.4-0.5,0.7
			c-0.1,0.3-0.2,0.6-0.2,0.9H238z"/>
		<path class="st0" d="M240.7,65.9l3.5-4.8h0.6V67h-0.8v-4.7l-3.5,4.7h-0.7v-5.9h0.8V65.9z M244,58.9c0,0.4-0.2,0.6-0.4,0.8
			c-0.3,0.2-0.7,0.3-1.1,0.3c-0.5,0-0.9-0.1-1.1-0.3c-0.3-0.2-0.4-0.5-0.4-0.8h0.5c0,0.3,0.1,0.4,0.3,0.5c0.2,0.1,0.4,0.2,0.8,0.2
			c0.4,0,0.6,0,0.8-0.1c0.2-0.1,0.3-0.3,0.3-0.5H244z"/>
		<path class="st0" d="M247.3,63.7h3.3v-2.5h0.8V67h-0.8v-2.7h-3.3V67h-0.8v-5.9h0.8V63.7z"/>
		<path class="st0" d="M255.6,67.1c-0.4,0-0.8-0.1-1.2-0.2c-0.4-0.2-0.7-0.4-0.9-0.7c-0.3-0.3-0.5-0.6-0.6-1
			c-0.1-0.4-0.2-0.8-0.2-1.2c0-0.4,0.1-0.8,0.2-1.2c0.1-0.4,0.4-0.7,0.6-1c0.3-0.3,0.6-0.5,0.9-0.7c0.4-0.2,0.8-0.2,1.2-0.2
			c0.4,0,0.8,0.1,1.2,0.2c0.4,0.2,0.7,0.4,0.9,0.7s0.5,0.6,0.6,1c0.1,0.4,0.2,0.7,0.2,1.2c0,0.1,0,0.1,0,0.2s0,0.1,0,0.1h-5
			c0,0.3,0.1,0.6,0.2,0.9c0.1,0.3,0.3,0.5,0.5,0.7c0.2,0.2,0.4,0.3,0.7,0.5c0.3,0.1,0.5,0.2,0.8,0.2c0.2,0,0.4,0,0.6-0.1
			c0.2-0.1,0.4-0.1,0.5-0.2c0.2-0.1,0.3-0.2,0.4-0.3c0.1-0.1,0.2-0.3,0.3-0.4l0.7,0.2c-0.1,0.2-0.2,0.4-0.4,0.6s-0.4,0.3-0.6,0.5
			c-0.2,0.1-0.5,0.2-0.7,0.3C256.2,67.1,255.9,67.1,255.6,67.1z M257.8,63.8c0-0.3-0.1-0.6-0.2-0.9c-0.1-0.3-0.3-0.5-0.5-0.7
			c-0.2-0.2-0.4-0.3-0.7-0.4c-0.3-0.1-0.5-0.2-0.8-0.2c-0.3,0-0.6,0.1-0.8,0.2c-0.3,0.1-0.5,0.3-0.7,0.4c-0.2,0.2-0.3,0.4-0.5,0.7
			c-0.1,0.3-0.2,0.6-0.2,0.9H257.8z"/>
		<path class="st0" d="M262.7,67.1c-0.5,0-0.9-0.1-1.3-0.4c-0.4-0.3-0.7-0.6-0.9-1v3.6h-0.8v-8.3h0.7v1.1c0.2-0.4,0.6-0.7,0.9-0.9
			c0.4-0.2,0.8-0.3,1.3-0.3c0.4,0,0.8,0.1,1.1,0.3c0.3,0.2,0.6,0.4,0.9,0.7c0.2,0.3,0.4,0.6,0.6,1c0.1,0.4,0.2,0.8,0.2,1.1
			c0,0.4-0.1,0.8-0.2,1.2c-0.1,0.4-0.3,0.7-0.5,1c-0.2,0.3-0.5,0.5-0.8,0.7C263.5,67.1,263.1,67.1,262.7,67.1z M262.5,66.5
			c0.3,0,0.6-0.1,0.9-0.2c0.3-0.1,0.5-0.3,0.7-0.5c0.2-0.2,0.3-0.5,0.4-0.8c0.1-0.3,0.1-0.6,0.1-0.9c0-0.3-0.1-0.6-0.2-0.9
			c-0.1-0.3-0.3-0.5-0.5-0.8s-0.4-0.4-0.7-0.5c-0.3-0.1-0.6-0.2-0.9-0.2c-0.2,0-0.4,0-0.6,0.1c-0.2,0.1-0.4,0.2-0.6,0.3
			c-0.2,0.1-0.3,0.3-0.5,0.5s-0.2,0.4-0.2,0.6V65c0.1,0.2,0.2,0.4,0.3,0.6c0.1,0.2,0.3,0.3,0.5,0.5c0.2,0.1,0.4,0.2,0.6,0.3
			C262.1,66.4,262.3,66.5,262.5,66.5z"/>
		<path class="st0" d="M269.2,67.1c-0.4,0-0.8-0.1-1.2-0.2c-0.4-0.2-0.7-0.4-0.9-0.7c-0.3-0.3-0.5-0.6-0.6-1
			c-0.1-0.4-0.2-0.8-0.2-1.2c0-0.4,0.1-0.8,0.2-1.2c0.1-0.4,0.4-0.7,0.6-1c0.3-0.3,0.6-0.5,0.9-0.7c0.4-0.2,0.7-0.2,1.2-0.2
			c0.4,0,0.8,0.1,1.2,0.2c0.4,0.2,0.7,0.4,0.9,0.7c0.3,0.3,0.5,0.6,0.6,1c0.1,0.4,0.2,0.8,0.2,1.2c0,0.4-0.1,0.8-0.2,1.2
			c-0.1,0.4-0.3,0.7-0.6,1c-0.3,0.3-0.6,0.5-0.9,0.7C270.1,67.1,269.7,67.1,269.2,67.1z M267.1,64.1c0,0.3,0.1,0.6,0.2,0.9
			c0.1,0.3,0.3,0.5,0.5,0.7c0.2,0.2,0.4,0.4,0.7,0.5c0.3,0.1,0.5,0.2,0.8,0.2s0.6-0.1,0.8-0.2c0.3-0.1,0.5-0.3,0.7-0.5
			c0.2-0.2,0.4-0.5,0.5-0.8c0.1-0.3,0.2-0.6,0.2-0.9c0-0.3-0.1-0.6-0.2-0.9c-0.1-0.3-0.3-0.5-0.5-0.8c-0.2-0.2-0.4-0.4-0.7-0.5
			c-0.3-0.1-0.5-0.2-0.8-0.2s-0.6,0.1-0.8,0.2c-0.3,0.1-0.5,0.3-0.7,0.5c-0.2,0.2-0.4,0.5-0.5,0.8C267.2,63.5,267.1,63.8,267.1,64.1
			z"/>
		<path class="st0" d="M276.4,61.1c0.2,0,0.4,0,0.6,0.1c0.2,0.1,0.3,0.2,0.5,0.3c0.1,0.1,0.2,0.3,0.3,0.5c0.1,0.2,0.1,0.4,0.1,0.6
			c0,0.1,0,0.3-0.1,0.4c0,0.1-0.1,0.3-0.2,0.4c-0.1,0.1-0.2,0.2-0.3,0.3c-0.1,0.1-0.2,0.2-0.4,0.2c0.3,0.1,0.6,0.3,0.8,0.5
			c0.2,0.3,0.3,0.6,0.3,0.9c0,0.2,0,0.5-0.1,0.7c-0.1,0.2-0.2,0.4-0.4,0.5c-0.2,0.1-0.3,0.3-0.5,0.3c-0.2,0.1-0.4,0.1-0.7,0.1h-2.8
			v-5.9H276.4z M276.1,63.7c0.3,0,0.6-0.1,0.7-0.3c0.2-0.2,0.3-0.4,0.3-0.7c0-0.3-0.1-0.5-0.2-0.7s-0.4-0.3-0.7-0.3h-1.9v2H276.1z
			 M276.3,66.4c0.2,0,0.3,0,0.4-0.1c0.1-0.1,0.2-0.1,0.3-0.2c0.1-0.1,0.2-0.2,0.2-0.3c0.1-0.1,0.1-0.3,0.1-0.4
			c0-0.3-0.1-0.5-0.3-0.7c-0.2-0.2-0.4-0.3-0.8-0.3h-2v2.1H276.3z"/>
		<path class="st0" d="M123.4,80.6h-0.7v-5.2h-3.1v5.2h-0.8v-5.9h4.6V80.6z"/>
		<path class="st0" d="M127.7,80.7c-0.4,0-0.8-0.1-1.2-0.2c-0.4-0.2-0.7-0.4-0.9-0.7c-0.3-0.3-0.5-0.6-0.6-1
			c-0.1-0.4-0.2-0.8-0.2-1.2c0-0.4,0.1-0.8,0.2-1.2c0.1-0.4,0.4-0.7,0.6-1c0.3-0.3,0.6-0.5,0.9-0.7c0.4-0.2,0.7-0.2,1.2-0.2
			s0.8,0.1,1.2,0.2c0.4,0.2,0.7,0.4,0.9,0.7c0.3,0.3,0.5,0.6,0.6,1s0.2,0.8,0.2,1.2c0,0.4-0.1,0.8-0.2,1.2c-0.1,0.4-0.3,0.7-0.6,1
			c-0.3,0.3-0.6,0.5-0.9,0.7C128.5,80.6,128.1,80.7,127.7,80.7z M125.5,77.7c0,0.3,0.1,0.6,0.2,0.9c0.1,0.3,0.3,0.5,0.5,0.7
			c0.2,0.2,0.4,0.4,0.7,0.5c0.3,0.1,0.5,0.2,0.8,0.2c0.3,0,0.6-0.1,0.8-0.2c0.3-0.1,0.5-0.3,0.7-0.5c0.2-0.2,0.4-0.5,0.5-0.8
			c0.1-0.3,0.2-0.6,0.2-0.9c0-0.3-0.1-0.6-0.2-0.9c-0.1-0.3-0.3-0.5-0.5-0.8c-0.2-0.2-0.4-0.4-0.7-0.5c-0.3-0.1-0.5-0.2-0.8-0.2
			c-0.3,0-0.6,0.1-0.8,0.2c-0.3,0.1-0.5,0.3-0.7,0.5c-0.2,0.2-0.4,0.5-0.5,0.8C125.6,77,125.5,77.4,125.5,77.7z"/>
		<path class="st0" d="M131,79.9h0.3c0.2,0,0.3-0.1,0.4-0.3c0.1-0.1,0.2-0.3,0.3-0.6c0.1-0.3,0.2-0.6,0.3-1.1c0.1-0.4,0.2-1,0.2-1.7
			l0.2-1.6h3.5v5.2h0.7v2.5h-0.7v-1.8h-4.6v1.8H131V79.9z M135.5,79.9v-4.6h-2l-0.2,1.3c-0.1,0.9-0.3,1.7-0.4,2.2s-0.3,0.9-0.5,1.1
			H135.5z"/>
		<path class="st0" d="M137.4,80c0.2,0,0.4-0.1,0.6-0.2c0.2-0.1,0.3-0.3,0.4-0.6c0.1-0.3,0.2-0.6,0.3-1.1c0.1-0.5,0.2-1.1,0.3-1.8
			l0.2-1.6h3.5v5.9h-0.8v-5.3h-2l-0.2,1.3c-0.1,0.8-0.2,1.4-0.3,1.9c-0.1,0.5-0.3,0.9-0.4,1.2c-0.2,0.3-0.4,0.5-0.6,0.6
			c-0.2,0.1-0.5,0.2-0.8,0.2L137.4,80z"/>
		<path class="st0" d="M146.8,80.7c-0.4,0-0.8-0.1-1.2-0.2c-0.4-0.2-0.7-0.4-0.9-0.7c-0.3-0.3-0.5-0.6-0.6-1
			c-0.1-0.4-0.2-0.8-0.2-1.2c0-0.4,0.1-0.8,0.2-1.2c0.1-0.4,0.4-0.7,0.6-1c0.3-0.3,0.6-0.5,0.9-0.7c0.4-0.2,0.8-0.2,1.2-0.2
			c0.4,0,0.8,0.1,1.2,0.2c0.4,0.2,0.7,0.4,0.9,0.7c0.3,0.3,0.5,0.6,0.6,1c0.1,0.4,0.2,0.7,0.2,1.2c0,0.1,0,0.1,0,0.2s0,0.1,0,0.1h-5
			c0,0.3,0.1,0.6,0.2,0.9c0.1,0.3,0.3,0.5,0.5,0.7c0.2,0.2,0.4,0.3,0.7,0.5c0.3,0.1,0.5,0.2,0.8,0.2c0.2,0,0.4,0,0.6-0.1
			c0.2-0.1,0.4-0.1,0.5-0.2c0.2-0.1,0.3-0.2,0.4-0.3c0.1-0.1,0.2-0.3,0.3-0.4l0.7,0.2c-0.1,0.2-0.2,0.4-0.4,0.6
			c-0.2,0.2-0.4,0.3-0.6,0.5c-0.2,0.1-0.5,0.2-0.7,0.3C147.4,80.7,147.1,80.7,146.8,80.7z M149,77.3c0-0.3-0.1-0.6-0.2-0.9
			c-0.1-0.3-0.3-0.5-0.5-0.7c-0.2-0.2-0.4-0.3-0.7-0.4c-0.3-0.1-0.5-0.2-0.8-0.2c-0.3,0-0.6,0.1-0.8,0.2c-0.3,0.1-0.5,0.3-0.7,0.4
			s-0.3,0.4-0.5,0.7c-0.1,0.3-0.2,0.6-0.2,0.9H149z"/>
		<path class="st0" d="M151.1,74.7l1.5,2.6h1.1v-2.6h0.8v2.6h1.1l1.5-2.6h0.8l-1.7,2.9l1.9,3h-0.9l-1.6-2.7h-1.2v2.7h-0.8v-2.7h-1.3
			l-1.6,2.7h-0.9l1.9-3l-1.7-2.9H151.1z"/>
		<path class="st0" d="M160.1,79.5l3.5-4.8h0.6v5.9h-0.8v-4.7l-3.5,4.7h-0.7v-5.9h0.8V79.5z"/>
		<path class="st0" d="M168.1,80.6h-0.7v-5.2h-2.1v-0.7h4.9v0.7h-2.1V80.6z"/>
		<path class="st0" d="M178.8,80.6h-0.7v-5.2H175v5.2h-0.8v-5.9h4.6V80.6z"/>
		<path class="st0" d="M183.1,80.7c-0.4,0-0.8-0.1-1.2-0.2c-0.4-0.2-0.7-0.4-0.9-0.7c-0.3-0.3-0.5-0.6-0.6-1
			c-0.1-0.4-0.2-0.8-0.2-1.2c0-0.4,0.1-0.8,0.2-1.2c0.1-0.4,0.4-0.7,0.6-1c0.3-0.3,0.6-0.5,0.9-0.7c0.4-0.2,0.8-0.2,1.2-0.2
			c0.4,0,0.8,0.1,1.2,0.2c0.4,0.2,0.7,0.4,0.9,0.7c0.3,0.3,0.5,0.6,0.6,1c0.1,0.4,0.2,0.7,0.2,1.2c0,0.1,0,0.1,0,0.2s0,0.1,0,0.1h-5
			c0,0.3,0.1,0.6,0.2,0.9c0.1,0.3,0.3,0.5,0.5,0.7c0.2,0.2,0.4,0.3,0.7,0.5c0.3,0.1,0.5,0.2,0.8,0.2c0.2,0,0.4,0,0.6-0.1
			c0.2-0.1,0.4-0.1,0.5-0.2c0.2-0.1,0.3-0.2,0.4-0.3c0.1-0.1,0.2-0.3,0.3-0.4l0.7,0.2c-0.1,0.2-0.2,0.4-0.4,0.6
			c-0.2,0.2-0.4,0.3-0.6,0.5c-0.2,0.1-0.5,0.2-0.7,0.3C183.7,80.7,183.4,80.7,183.1,80.7z M185.3,77.3c0-0.3-0.1-0.6-0.2-0.9
			s-0.3-0.5-0.5-0.7c-0.2-0.2-0.4-0.3-0.7-0.4c-0.3-0.1-0.5-0.2-0.8-0.2c-0.3,0-0.6,0.1-0.8,0.2c-0.3,0.1-0.5,0.3-0.7,0.4
			c-0.2,0.2-0.3,0.4-0.5,0.7c-0.1,0.3-0.2,0.6-0.2,0.9H185.3z"/>
		<path class="st0" d="M190.2,80.7c-0.5,0-0.9-0.1-1.3-0.4c-0.4-0.3-0.7-0.6-0.9-1V83h-0.8v-8.3h0.7v1.1c0.2-0.4,0.6-0.7,0.9-0.9
			c0.4-0.2,0.8-0.3,1.3-0.3c0.4,0,0.8,0.1,1.1,0.3c0.3,0.2,0.6,0.4,0.9,0.7c0.2,0.3,0.4,0.6,0.6,1c0.1,0.4,0.2,0.8,0.2,1.1
			c0,0.4-0.1,0.8-0.2,1.2c-0.1,0.4-0.3,0.7-0.5,1c-0.2,0.3-0.5,0.5-0.8,0.7C191,80.6,190.6,80.7,190.2,80.7z M190,80
			c0.3,0,0.6-0.1,0.9-0.2c0.3-0.1,0.5-0.3,0.7-0.5c0.2-0.2,0.3-0.5,0.4-0.8c0.1-0.3,0.1-0.6,0.1-0.9c0-0.3-0.1-0.6-0.2-0.9
			c-0.1-0.3-0.3-0.5-0.5-0.8s-0.4-0.4-0.7-0.5c-0.3-0.1-0.6-0.2-0.9-0.2c-0.2,0-0.4,0-0.6,0.1c-0.2,0.1-0.4,0.2-0.6,0.3
			c-0.2,0.1-0.3,0.3-0.5,0.5c-0.1,0.2-0.2,0.4-0.2,0.6v1.8c0.1,0.2,0.2,0.4,0.3,0.6c0.1,0.2,0.3,0.3,0.5,0.5
			c0.2,0.1,0.4,0.2,0.6,0.3C189.6,80,189.8,80,190,80z"/>
		<path class="st0" d="M196.8,80.7c-0.4,0-0.8-0.1-1.2-0.2c-0.4-0.2-0.7-0.4-0.9-0.7c-0.3-0.3-0.5-0.6-0.6-1
			c-0.1-0.4-0.2-0.8-0.2-1.2c0-0.4,0.1-0.8,0.2-1.2c0.1-0.4,0.4-0.7,0.6-1c0.3-0.3,0.6-0.5,0.9-0.7c0.4-0.2,0.8-0.2,1.2-0.2
			c0.4,0,0.8,0.1,1.2,0.2c0.4,0.2,0.7,0.4,0.9,0.7c0.3,0.3,0.5,0.6,0.6,1c0.1,0.4,0.2,0.7,0.2,1.2c0,0.1,0,0.1,0,0.2s0,0.1,0,0.1h-5
			c0,0.3,0.1,0.6,0.2,0.9c0.1,0.3,0.3,0.5,0.5,0.7c0.2,0.2,0.4,0.3,0.7,0.5c0.3,0.1,0.5,0.2,0.8,0.2c0.2,0,0.4,0,0.6-0.1
			c0.2-0.1,0.4-0.1,0.5-0.2c0.2-0.1,0.3-0.2,0.4-0.3c0.1-0.1,0.2-0.3,0.3-0.4l0.7,0.2c-0.1,0.2-0.2,0.4-0.4,0.6
			c-0.2,0.2-0.4,0.3-0.6,0.5c-0.2,0.1-0.5,0.2-0.7,0.3C197.3,80.7,197,80.7,196.8,80.7z M198.9,77.3c0-0.3-0.1-0.6-0.2-0.9
			c-0.1-0.3-0.3-0.5-0.5-0.7c-0.2-0.2-0.4-0.3-0.7-0.4c-0.3-0.1-0.5-0.2-0.8-0.2c-0.3,0-0.6,0.1-0.8,0.2c-0.3,0.1-0.5,0.3-0.7,0.4
			c-0.2,0.2-0.3,0.4-0.5,0.7c-0.1,0.3-0.2,0.6-0.2,0.9H198.9z"/>
		<path class="st0" d="M203.9,80.7c-0.5,0-0.9-0.1-1.3-0.4c-0.4-0.3-0.7-0.6-0.9-1V83h-0.8v-8.3h0.7v1.1c0.2-0.4,0.6-0.7,0.9-0.9
			c0.4-0.2,0.8-0.3,1.3-0.3c0.4,0,0.8,0.1,1.1,0.3c0.3,0.2,0.6,0.4,0.9,0.7c0.2,0.3,0.4,0.6,0.6,1c0.1,0.4,0.2,0.8,0.2,1.1
			c0,0.4-0.1,0.8-0.2,1.2c-0.1,0.4-0.3,0.7-0.5,1c-0.2,0.3-0.5,0.5-0.8,0.7C204.6,80.6,204.3,80.7,203.9,80.7z M203.7,80
			c0.3,0,0.6-0.1,0.9-0.2c0.3-0.1,0.5-0.3,0.7-0.5c0.2-0.2,0.3-0.5,0.4-0.8c0.1-0.3,0.1-0.6,0.1-0.9c0-0.3-0.1-0.6-0.2-0.9
			c-0.1-0.3-0.3-0.5-0.5-0.8s-0.4-0.4-0.7-0.5c-0.3-0.1-0.6-0.2-0.9-0.2c-0.2,0-0.4,0-0.6,0.1c-0.2,0.1-0.4,0.2-0.6,0.3
			c-0.2,0.1-0.3,0.3-0.5,0.5c-0.1,0.2-0.2,0.4-0.2,0.6v1.8c0.1,0.2,0.2,0.4,0.3,0.6c0.1,0.2,0.3,0.3,0.5,0.5
			c0.2,0.1,0.4,0.2,0.6,0.3C203.2,80,203.4,80,203.7,80z"/>
		<path class="st0" d="M209.3,80.7c-0.3,0-0.5,0-0.8-0.1c-0.2-0.1-0.4-0.2-0.6-0.4c-0.2-0.2-0.3-0.4-0.4-0.6
			c-0.1-0.2-0.1-0.5-0.1-0.7c0-0.3,0.1-0.5,0.2-0.7c0.1-0.2,0.3-0.4,0.5-0.6c0.2-0.2,0.5-0.3,0.8-0.4c0.3-0.1,0.6-0.1,1-0.1
			c0.3,0,0.6,0,0.9,0.1c0.3,0.1,0.6,0.1,0.8,0.2v-0.5c0-0.5-0.1-0.9-0.4-1.2c-0.3-0.3-0.7-0.5-1.2-0.5c-0.3,0-0.6,0.1-0.9,0.2
			c-0.3,0.1-0.6,0.3-1,0.5l-0.3-0.5c0.8-0.5,1.5-0.8,2.2-0.8c0.7,0,1.3,0.2,1.7,0.6c0.4,0.4,0.6,1,0.6,1.7v2.7
			c0,0.2,0.1,0.3,0.3,0.3v0.7c-0.1,0-0.2,0-0.3,0c-0.2,0-0.3,0-0.5-0.1c-0.1-0.1-0.2-0.2-0.2-0.4l0-0.5c-0.3,0.4-0.6,0.6-1,0.8
			C210.3,80.6,209.8,80.7,209.3,80.7z M209.5,80.1c0.4,0,0.8-0.1,1.1-0.2c0.3-0.2,0.6-0.4,0.8-0.6c0.1-0.1,0.1-0.1,0.2-0.2
			c0-0.1,0.1-0.2,0.1-0.2v-1c-0.3-0.1-0.5-0.2-0.8-0.2c-0.3-0.1-0.6-0.1-0.8-0.1c-0.5,0-1,0.1-1.3,0.3c-0.3,0.2-0.5,0.5-0.5,0.9
			c0,0.2,0,0.4,0.1,0.5c0.1,0.2,0.2,0.3,0.3,0.4c0.1,0.1,0.3,0.2,0.4,0.3C209.1,80.1,209.3,80.1,209.5,80.1z"/>
		<path class="st0" d="M216.9,73.3c-0.7,0.2-1.2,0.5-1.6,0.9c-0.4,0.4-0.6,1.1-0.7,1.9c0.2-0.4,0.5-0.6,0.9-0.8
			c0.3-0.2,0.7-0.3,1.2-0.3c0.4,0,0.7,0.1,1.1,0.2c0.3,0.1,0.6,0.3,0.8,0.6c0.2,0.3,0.4,0.6,0.5,0.9c0.1,0.4,0.2,0.7,0.2,1.2
			c0,0.4-0.1,0.8-0.2,1.2c-0.1,0.4-0.3,0.7-0.6,0.9c-0.2,0.2-0.5,0.4-0.9,0.6c-0.3,0.1-0.7,0.2-1.2,0.2c-0.9,0-1.5-0.3-2-0.9
			c-0.5-0.6-0.7-1.5-0.7-2.6c0-0.7,0.1-1.3,0.2-1.8c0.1-0.5,0.3-1,0.6-1.3c0.3-0.4,0.6-0.7,1-0.9c0.4-0.2,0.8-0.4,1.3-0.5l1.8-0.4
			l0.1,0.6L216.9,73.3z M214.6,77.8c0,0.3,0,0.6,0.1,0.9c0.1,0.3,0.2,0.5,0.4,0.7c0.2,0.2,0.4,0.4,0.6,0.5c0.2,0.1,0.5,0.2,0.8,0.2
			s0.6-0.1,0.8-0.2c0.2-0.1,0.4-0.3,0.6-0.5c0.2-0.2,0.3-0.4,0.4-0.7c0.1-0.3,0.1-0.6,0.1-0.9c0-0.7-0.2-1.2-0.5-1.6
			c-0.4-0.4-0.8-0.6-1.4-0.6c-0.3,0-0.5,0-0.8,0.1c-0.2,0.1-0.4,0.2-0.6,0.4c-0.2,0.2-0.3,0.4-0.4,0.7
			C214.7,77.2,214.6,77.5,214.6,77.8z"/>
		<path class="st0" d="M223.1,80.7c-0.4,0-0.8-0.1-1.2-0.2c-0.4-0.2-0.7-0.4-0.9-0.7c-0.3-0.3-0.5-0.6-0.6-1
			c-0.1-0.4-0.2-0.8-0.2-1.2c0-0.4,0.1-0.8,0.2-1.2c0.1-0.4,0.4-0.7,0.6-1c0.3-0.3,0.6-0.5,0.9-0.7c0.4-0.2,0.7-0.2,1.2-0.2
			c0.4,0,0.8,0.1,1.2,0.2c0.4,0.2,0.7,0.4,0.9,0.7c0.3,0.3,0.5,0.6,0.6,1c0.1,0.4,0.2,0.8,0.2,1.2c0,0.4-0.1,0.8-0.2,1.2
			c-0.1,0.4-0.3,0.7-0.6,1c-0.3,0.3-0.6,0.5-0.9,0.7C224,80.6,223.6,80.7,223.1,80.7z M221,77.7c0,0.3,0.1,0.6,0.2,0.9
			c0.1,0.3,0.3,0.5,0.5,0.7c0.2,0.2,0.4,0.4,0.7,0.5c0.3,0.1,0.5,0.2,0.8,0.2c0.3,0,0.6-0.1,0.8-0.2c0.3-0.1,0.5-0.3,0.7-0.5
			s0.4-0.5,0.5-0.8c0.1-0.3,0.2-0.6,0.2-0.9c0-0.3-0.1-0.6-0.2-0.9c-0.1-0.3-0.3-0.5-0.5-0.8s-0.4-0.4-0.7-0.5
			c-0.3-0.1-0.5-0.2-0.8-0.2c-0.3,0-0.6,0.1-0.8,0.2c-0.3,0.1-0.5,0.3-0.7,0.5s-0.4,0.5-0.5,0.8C221.1,77,221,77.4,221,77.7z"/>
		<path class="st0" d="M229.3,80.6h-0.7v-5.2h-2.1v-0.7h4.9v0.7h-2.1V80.6z"/>
		<path class="st0" d="M235.9,74.7h0.9l-2.2,2.9l2.4,3h-0.9l-2.1-2.7h-0.8v2.7h-0.8v-5.9h0.8v2.6h0.8L235.9,74.7z"/>
		<path class="st0" d="M240.2,80.7c-0.4,0-0.8-0.1-1.2-0.2c-0.4-0.2-0.7-0.4-0.9-0.7c-0.3-0.3-0.5-0.6-0.6-1
			c-0.1-0.4-0.2-0.8-0.2-1.2c0-0.4,0.1-0.8,0.2-1.2c0.1-0.4,0.4-0.7,0.6-1c0.3-0.3,0.6-0.5,0.9-0.7c0.4-0.2,0.8-0.2,1.2-0.2
			c0.4,0,0.8,0.1,1.2,0.2c0.4,0.2,0.7,0.4,0.9,0.7c0.3,0.3,0.5,0.6,0.6,1c0.1,0.4,0.2,0.7,0.2,1.2c0,0.1,0,0.1,0,0.2s0,0.1,0,0.1h-5
			c0,0.3,0.1,0.6,0.2,0.9c0.1,0.3,0.3,0.5,0.5,0.7c0.2,0.2,0.4,0.3,0.7,0.5c0.3,0.1,0.5,0.2,0.8,0.2c0.2,0,0.4,0,0.6-0.1
			c0.2-0.1,0.4-0.1,0.5-0.2c0.2-0.1,0.3-0.2,0.4-0.3c0.1-0.1,0.2-0.3,0.3-0.4l0.7,0.2c-0.1,0.2-0.2,0.4-0.4,0.6
			c-0.2,0.2-0.4,0.3-0.6,0.5c-0.2,0.1-0.5,0.2-0.7,0.3C240.8,80.7,240.5,80.7,240.2,80.7z M242.4,77.3c0-0.3-0.1-0.6-0.2-0.9
			c-0.1-0.3-0.3-0.5-0.5-0.7c-0.2-0.2-0.4-0.3-0.7-0.4c-0.3-0.1-0.5-0.2-0.8-0.2c-0.3,0-0.6,0.1-0.8,0.2c-0.3,0.1-0.5,0.3-0.7,0.4
			s-0.3,0.4-0.5,0.7c-0.1,0.3-0.2,0.6-0.2,0.9H242.4z"/>
	</g>
</g>
</svg>
