<svg width="84" height="84" fill="none" xmlns="http://www.w3.org/2000/svg"><path fill-rule="evenodd" clip-rule="evenodd" d="M83.667 67.26V27.271c0-.916-.076-1.826-.224-2.721H.557a16.664 16.664 0 00-.224 2.722v39.986c0 9.205 7.462 16.667 16.667 16.667h50c9.205 0 16.667-7.462 16.667-16.667zm-3.652-50.4c.37.464.714.945 1.031 1.441H2.954c.317-.496.661-.977 1.032-1.44l8.01-10.013A16.667 16.667 0 0125.011.593H58.99c5.063 0 9.851 2.301 13.014 6.255l8.01 10.013zM56.852 44.318a3.125 3.125 0 10-4.704-4.115L40.19 53.868c-.367.42-1 .475-1.434.127l-7.304-5.842a3.125 3.125 0 10-3.904 4.88l7.303 5.843a7.292 7.292 0 0010.043-.893l11.958-13.666z" fill="#84BD00"/></svg>