<svg width="172" height="60" viewBox="0 0 172 60" fill="none" xmlns="http://www.w3.org/2000/svg">
<g clip-path="url(#clip0_133_3737)">
<path d="M13.7625 14.0977C13.7625 11.1171 14.9373 9.41729 17.4948 8.14446L24.7757 4.50322C26.0449 3.80951 27.464 3.44153 28.9077 3.43179C30.4347 3.40255 31.9416 3.78645 33.2714 4.5435L40.5443 8.18474C43.2617 9.53813 44.3246 11.2379 44.3246 14.2911V21.0338C44.3423 21.2987 44.3036 21.5643 44.2111 21.8128C44.1185 22.0613 43.9743 22.287 43.7881 22.4747C43.6018 22.6624 43.3779 22.8078 43.1314 22.9011C42.8848 22.9944 42.6213 23.0334 42.3586 23.0156C42.0967 23.0295 41.8349 22.9878 41.5901 22.8931C41.3453 22.7984 41.123 22.6529 40.9376 22.4661C40.7522 22.2792 40.6079 22.0551 40.514 21.8084C40.4201 21.5616 40.3787 21.2977 40.3925 21.0338V14.4119C40.3925 12.7041 40.2326 12.4302 38.7381 11.6729L31.9687 8.22502C31.0575 7.70228 30.0281 7.42484 28.9796 7.41944C28.0221 7.44408 27.0878 7.72188 26.2703 8.22502L19.421 11.5924C17.8225 12.398 17.6946 12.7846 17.6946 14.573V21.0177C17.7123 21.2826 17.6736 21.5482 17.5811 21.7967C17.4885 22.0452 17.3443 22.2709 17.1581 22.4586C16.9719 22.6463 16.7479 22.7917 16.5014 22.885C16.2548 22.9783 15.9913 23.0173 15.7286 22.9995C15.4667 23.0134 15.2049 22.9717 14.9601 22.877C14.7154 22.7823 14.493 22.6368 14.3076 22.45C14.1223 22.2631 13.9779 22.039 13.884 21.7923C13.7901 21.5455 13.7487 21.2816 13.7625 21.0177V14.0977Z" fill="#005AAA"/>
<path d="M18.5098 58.8077C15.9523 60.2981 13.8983 60.1208 11.5326 58.5177L4.74726 53.9742C3.51139 53.2094 2.48408 52.1462 1.75818 50.8808C0.973906 49.5628 0.549292 48.0593 0.52738 46.5226L-0.000104953 38.3459C-0.19991 35.3008 0.735177 33.5124 3.35662 31.9979L9.15096 28.6305C9.36963 28.4827 9.61715 28.3837 9.8769 28.3403C10.1366 28.2968 10.4026 28.3098 10.657 28.3785C10.9113 28.4472 11.1481 28.5699 11.3515 28.7384C11.5549 28.9069 11.7202 29.1173 11.8363 29.3555C11.9779 29.5775 12.0719 29.8268 12.1123 30.0875C12.1527 30.3482 12.1386 30.6145 12.0708 30.8693C12.0031 31.1242 11.8833 31.362 11.719 31.5674C11.5548 31.7729 11.3497 31.9414 11.117 32.0623L5.45057 35.3652C3.99599 36.2514 3.82816 36.5011 3.92406 38.1767L4.38761 45.9184C4.39087 46.978 4.66621 48.0187 5.18683 48.9393C5.69438 49.7637 6.4083 50.4388 7.25681 50.8969L13.5547 55.1423C15.0412 56.1574 15.4408 56.0607 16.9753 55.1423L22.5699 51.92C22.7881 51.7708 23.0357 51.6708 23.2957 51.6266C23.5558 51.5824 23.8222 51.5951 24.0769 51.6639C24.3317 51.7327 24.5687 51.8559 24.772 52.0252C24.9753 52.1945 25.1401 52.4059 25.2552 52.645C25.3981 52.8666 25.4931 53.1159 25.5341 53.3769C25.5752 53.6379 25.5613 53.9046 25.4935 54.1598C25.4257 54.4151 25.3054 54.6531 25.1404 54.8584C24.9755 55.0638 24.7695 55.2318 24.5359 55.3518L18.5098 58.8077Z" fill="#005AAA"/>
<path d="M54.5466 32.304C57.1041 33.7863 57.9753 35.6713 57.7915 38.5392L57.264 46.724C57.2259 48.1778 56.8334 49.5999 56.1211 50.8647C55.376 52.2004 54.292 53.3125 52.9802 54.087L46.2108 58.6144C43.6932 60.3142 41.7032 60.3867 39.0818 58.8561L33.2874 55.4887C33.0508 55.372 32.8418 55.2053 32.6747 55.0001C32.5076 54.7948 32.3862 54.5557 32.3187 54.299C32.2513 54.0423 32.2393 53.774 32.2837 53.5123C32.3282 53.2505 32.4279 53.0015 32.5761 52.782C32.6943 52.5468 32.8602 52.3393 33.0632 52.1731C33.2662 52.0069 33.5017 51.8856 33.7543 51.8172C34.0069 51.7488 34.2709 51.7348 34.5292 51.7761C34.7875 51.8174 35.0343 51.9131 35.2535 52.0569L40.9439 55.3679C42.4065 56.2218 42.7262 56.2218 44.1408 55.2954L50.5346 51.05C51.4393 50.5308 52.2005 49.7913 52.7484 48.899C53.1943 48.0432 53.4145 47.0861 53.3878 46.1198L53.8913 38.4909C54.0192 36.6944 53.7314 36.3883 52.2049 35.4941L46.6104 32.2718C46.3743 32.1556 46.1657 31.9898 45.9985 31.7855C45.8314 31.5812 45.7096 31.3431 45.6414 31.0874C45.5733 30.8317 45.5603 30.5642 45.6034 30.3029C45.6464 30.0417 45.7445 29.7928 45.8911 29.5731C46.0102 29.3367 46.1772 29.1282 46.3813 28.961C46.5854 28.7939 46.8221 28.6718 47.076 28.6027C47.3299 28.5336 47.5954 28.519 47.8552 28.5599C48.1151 28.6007 48.3635 28.6962 48.5845 28.84L54.5387 32.312" fill="#005AAA"/>
<path d="M42.4545 26.9952C42.1893 26.5382 41.755 26.2061 41.247 26.0716C40.739 25.9372 40.1989 26.0115 39.7452 26.2782L28.9397 32.6262L18.1343 26.2782C17.6821 26.0339 17.1535 25.976 16.6597 26.1164C16.1659 26.2569 15.7454 26.5849 15.4866 27.0315C15.2279 27.4781 15.151 28.0084 15.2721 28.5109C15.3933 29.0134 15.703 29.449 16.1362 29.7261L26.9577 36.0822V48.899C26.9577 49.4332 27.1682 49.9454 27.5429 50.3231C27.9176 50.7008 28.4258 50.913 28.9557 50.913C29.4856 50.913 29.9938 50.7008 30.3686 50.3231C30.7433 49.9454 30.9538 49.4332 30.9538 48.899V36.0822L41.7432 29.7261C42.1966 29.4588 42.5261 29.021 42.6595 28.509C42.7928 27.9969 42.7191 27.4525 42.4545 26.9952Z" fill="#005AAA"/>
<path d="M35.8848 13.1955C35.7543 12.9695 35.5808 12.7717 35.3743 12.6133C35.1679 12.455 34.9325 12.3392 34.6816 12.2726C34.4307 12.206 34.1693 12.1899 33.9122 12.2252C33.6551 12.2606 33.4075 12.3466 33.1835 12.4785L28.9396 14.9678L24.6958 12.4785C24.2446 12.2482 23.7231 12.2005 23.2382 12.345C22.7532 12.4896 22.3414 12.8156 22.0871 13.2562C21.8328 13.6968 21.7552 14.2188 21.8702 14.7152C21.9852 15.2116 22.2841 15.6449 22.7057 15.9264L26.9496 18.4237V23.3781C26.9495 23.9073 27.157 24.4151 27.5268 24.7908C27.8965 25.1665 28.3986 25.3797 28.9236 25.384C29.1853 25.3829 29.4441 25.3297 29.6853 25.2273C29.9264 25.1249 30.145 24.9754 30.3285 24.7875C30.512 24.5995 30.6568 24.3767 30.7545 24.1321C30.8522 23.8874 30.9009 23.6257 30.8977 23.362V18.3996L35.1655 15.9264C35.6189 15.6591 35.9484 15.2213 36.0818 14.7093C36.2151 14.1973 36.1414 13.6528 35.8768 13.1955" fill="#ED1C24"/>
<path d="M20.7796 39.804C20.6511 39.576 20.4791 39.3758 20.2735 39.2151C20.068 39.0543 19.8329 38.9361 19.5818 38.8672C19.3308 38.7983 19.0687 38.7802 18.8107 38.8137C18.5527 38.8473 18.3037 38.932 18.0783 39.0628L13.8025 41.5279L9.52663 39.0628C9.07312 38.8305 8.54834 38.7828 8.06092 38.9297C7.57349 39.0765 7.16075 39.4067 6.90813 39.8517C6.65551 40.2968 6.58235 40.8228 6.70379 41.3208C6.82524 41.8187 7.13199 42.2505 7.56055 42.5268L11.8204 44.9839V49.9302C11.8204 50.4594 12.0278 50.9672 12.3976 51.3429C12.7674 51.7186 13.2694 51.9318 13.7945 51.9361C14.3153 51.9298 14.813 51.7179 15.1806 51.3458C15.5482 50.9738 15.7564 50.4713 15.7605 49.9463V44.9919L20.0284 42.5268C20.2559 42.3986 20.456 42.2262 20.6171 42.0196C20.7782 41.8131 20.8971 41.5764 20.9669 41.3232C21.0368 41.0701 21.0562 40.8055 21.024 40.5447C20.9919 40.2839 20.9088 40.0322 20.7796 39.804Z" fill="#50B848"/>
<path d="M51.0541 39.804C50.7929 39.3451 50.3618 39.0094 49.8554 38.8705C49.349 38.7315 48.8086 38.8007 48.3527 39.0628L44.0849 41.4796L39.833 38.9903C39.6079 38.8401 39.3548 38.7377 39.089 38.6896C38.8233 38.6414 38.5506 38.6485 38.2877 38.7104C38.0248 38.7723 37.7772 38.8877 37.5601 39.0494C37.343 39.2112 37.161 39.416 37.0252 39.6512C36.8894 39.8865 36.8028 40.1472 36.7705 40.4174C36.7383 40.6876 36.7612 40.9616 36.8377 41.2225C36.9143 41.4835 37.043 41.7259 37.2158 41.935C37.3887 42.144 37.6021 42.3153 37.843 42.4382L42.0948 44.9356V49.906C42.0969 50.4345 42.3067 50.9406 42.6782 51.3135C43.0496 51.6864 43.5526 51.8958 44.0769 51.8958C44.5979 51.9002 45.0998 51.6985 45.4749 51.334C45.85 50.9695 46.0683 50.4713 46.0829 49.9463V45L50.3507 42.5269C50.5769 42.3973 50.7755 42.2239 50.935 42.0167C51.0945 41.8095 51.2118 41.5726 51.2801 41.3195C51.3484 41.0665 51.3665 40.8023 51.3331 40.5422C51.2998 40.2821 51.2159 40.0312 51.086 39.804" fill="#00AEEF"/>
<path d="M64.7367 13.3405L60.6207 22.3228C60.5387 22.5234 60.4006 22.6957 60.2233 22.8187C60.0459 22.9417 59.8369 23.0101 59.6217 23.0156C59.3108 23.0247 59.0084 22.9125 58.7776 22.7024C58.5468 22.4923 58.4054 22.2004 58.3829 21.8878C58.3891 21.7045 58.4298 21.5241 58.5028 21.3561L59.4059 19.3341L56.5207 13.3244C56.4356 13.1546 56.3918 12.9668 56.3928 12.7766C56.4173 12.4632 56.5604 12.1714 56.7925 11.9614C57.0246 11.7515 57.3279 11.6395 57.6396 11.6488C57.8533 11.6521 58.0613 11.7188 58.2375 11.8406C58.4138 11.9624 58.5505 12.1338 58.6307 12.3335L60.6767 16.5467L62.5868 12.3335C62.6713 12.1288 62.8146 11.9541 62.9983 11.8321C63.182 11.7101 63.3978 11.6462 63.6178 11.6488C63.9248 11.6421 64.2225 11.756 64.4477 11.9665C64.6729 12.1769 64.8081 12.4675 64.8246 12.7766C64.8206 12.9602 64.7798 13.141 64.7047 13.3083" fill="#005AAA"/>
<path d="M75.9258 12.9941V21.7911C75.9392 21.9532 75.919 22.1163 75.8666 22.2701C75.8142 22.424 75.7308 22.5652 75.6215 22.6849C75.5122 22.8045 75.3795 22.9001 75.2317 22.9654C75.0839 23.0308 74.9243 23.0645 74.7629 23.0645C74.6016 23.0645 74.442 23.0308 74.2942 22.9654C74.1464 22.9001 74.0137 22.8045 73.9044 22.6849C73.7951 22.5652 73.7117 22.424 73.6593 22.2701C73.6069 22.1163 73.5867 21.9532 73.6001 21.7911V13.84H68.7328V21.7911C68.7328 22.103 68.6099 22.4022 68.3911 22.6227C68.1722 22.8433 67.8755 22.9672 67.566 22.9672C67.2565 22.9672 66.9597 22.8433 66.7409 22.6227C66.5221 22.4022 66.3991 22.103 66.3991 21.7911V12.9941C66.3853 12.8339 66.4056 12.6726 66.4586 12.521C66.5117 12.3693 66.5963 12.2309 66.7069 12.1149C66.8174 11.999 66.9512 11.9081 67.0994 11.8486C67.2475 11.789 67.4066 11.7621 67.566 11.7696H74.759C74.9183 11.7621 75.0774 11.789 75.2256 11.8486C75.3738 11.9081 75.5076 11.999 75.6181 12.1149C75.7286 12.2309 75.8132 12.3693 75.8663 12.521C75.9194 12.6726 75.9397 12.8339 75.9258 12.9941Z" fill="#005AAA"/>
<path d="M80.1617 12.8894C80.273 12.5272 80.4923 12.2084 80.7897 11.9763C81.0872 11.7442 81.4483 11.6102 81.8241 11.5924C82.2028 11.5992 82.5692 11.7292 82.8687 11.9629C83.1683 12.1966 83.3849 12.5215 83.4865 12.8894L86.5315 21.4125C86.6053 21.5946 86.6485 21.7879 86.6594 21.9844C86.6573 22.1244 86.6276 22.2626 86.5721 22.3909C86.5165 22.5192 86.4362 22.6351 86.3358 22.7318C86.2354 22.8285 86.1169 22.9041 85.9872 22.9542C85.8575 23.0043 85.7192 23.0279 85.5804 23.0236C85.3288 23.0434 85.0782 22.9737 84.8723 22.8265C84.6664 22.6793 84.5182 22.464 84.4535 22.218L83.982 20.7519H79.6662L79.2026 22.21C79.1368 22.4537 78.9895 22.667 78.7856 22.8138C78.5817 22.9606 78.3338 23.0319 78.0837 23.0156C77.9368 23.0199 77.7904 22.9949 77.6531 22.9422C77.5157 22.8894 77.3899 22.8099 77.2831 22.7082C77.1762 22.6064 77.0902 22.4844 77.0301 22.3492C76.9701 22.214 76.937 22.0681 76.9329 21.92C76.933 21.742 76.9712 21.5662 77.0448 21.4044L80.1617 12.8894ZM80.3375 18.5768H83.2867L81.8401 14.0333L80.3375 18.5768Z" fill="#005AAA"/>
<path d="M87.9141 12.833C87.9107 12.6787 87.9387 12.5253 87.9964 12.3824C88.0542 12.2395 88.1404 12.11 88.2498 12.002C88.3592 11.8941 88.4894 11.8098 88.6323 11.7546C88.7753 11.6994 88.928 11.6743 89.081 11.681C89.2399 11.6607 89.4012 11.6759 89.5537 11.7253C89.7061 11.7748 89.846 11.8573 89.9633 11.9672C90.0807 12.077 90.1727 12.2115 90.2329 12.3611C90.2931 12.5107 90.32 12.6718 90.3118 12.833V16.2164L94.1001 12.0838C94.2113 11.9508 94.3494 11.8432 94.5051 11.7682C94.6608 11.6932 94.8306 11.6524 95.0032 11.6488C95.1518 11.6466 95.2994 11.6742 95.4375 11.7298C95.5755 11.7854 95.7013 11.868 95.8075 11.9729C95.9138 12.0777 95.9984 12.2027 96.0565 12.3406C96.1146 12.4786 96.145 12.6267 96.1461 12.7766C96.1461 13.1794 95.8983 13.5097 95.3468 14.0252L92.4137 16.9334L96.0022 20.7116C96.1839 20.8564 96.3349 21.0366 96.4461 21.2414C96.5574 21.4462 96.6265 21.6715 96.6496 21.9039C96.6495 22.0575 96.6171 22.2094 96.5546 22.3496C96.4921 22.4897 96.4008 22.6149 96.2868 22.7169C96.1727 22.8189 96.0386 22.8954 95.8931 22.9413C95.7476 22.9872 95.5941 23.0016 95.4427 22.9834C94.9872 22.9834 94.6995 22.7095 94.2599 22.2422L90.2638 17.8598V21.8878C90.2628 22.0397 90.2316 22.1899 90.172 22.3295C90.1124 22.469 90.0257 22.5951 89.9169 22.7003C89.8081 22.8054 89.6794 22.8875 89.5386 22.9417C89.3978 22.9958 89.2476 23.021 89.0969 23.0156C88.9452 23.0257 88.793 23.0038 88.6501 22.9514C88.5072 22.8989 88.3767 22.817 88.2669 22.7109C88.1571 22.6048 88.0704 22.4768 88.0125 22.3351C87.9545 22.1934 87.9264 22.041 87.9301 21.8878V12.833" fill="#005AAA"/>
<path d="M97.0012 17.3443C97.0012 14.1219 99.1831 11.5843 102.348 11.5843C105.513 11.5843 107.695 14.1622 107.695 17.3443C107.695 20.5263 105.529 23.1042 102.348 23.1042C99.1671 23.1042 97.0012 20.5827 97.0012 17.3443ZM105.265 17.3443C105.265 15.4511 104.29 13.7433 102.348 13.7433C100.406 13.7433 99.4308 15.4511 99.4308 17.3443C99.4308 19.2374 100.374 20.9452 102.348 20.9452C104.322 20.9452 105.265 19.2535 105.265 17.3443Z" fill="#005AAA"/>
<path d="M109.213 12.9458C109.205 12.7837 109.233 12.6218 109.293 12.4712C109.353 12.3206 109.444 12.1848 109.561 12.0732C109.678 11.9615 109.817 11.8766 109.97 11.8242C110.122 11.7718 110.284 11.7532 110.444 11.7696H113.425C113.797 11.7455 114.17 11.7981 114.521 11.9241C114.872 12.0501 115.194 12.2469 115.467 12.5024C115.74 12.758 115.958 13.067 116.109 13.4106C116.259 13.7541 116.339 14.125 116.342 14.5005C116.374 14.9884 116.252 15.4738 115.993 15.8876C115.735 16.3013 115.354 16.6222 114.904 16.8045C115.548 16.8878 116.141 17.2023 116.574 17.6906C117.007 18.1789 117.251 18.8081 117.261 19.4629C117.261 21.6703 115.799 22.8625 113.657 22.8625H110.46C110.305 22.8757 110.149 22.8571 110.001 22.8077C109.853 22.7584 109.717 22.6794 109.601 22.5754C109.484 22.4715 109.39 22.3449 109.323 22.2031C109.257 22.0614 109.219 21.9075 109.213 21.7508V12.9458ZM111.547 16.1681H112.762C112.928 16.1851 113.096 16.1651 113.253 16.1096C113.411 16.0541 113.555 15.9645 113.674 15.847C113.794 15.7295 113.887 15.587 113.946 15.4295C114.005 15.2721 114.029 15.1034 114.017 14.9356C114.015 14.7765 113.981 14.6196 113.915 14.4749C113.85 14.3303 113.755 14.2012 113.636 14.0962C113.518 13.9912 113.379 13.9127 113.228 13.8658C113.077 13.8188 112.918 13.8045 112.762 13.8239H111.547V16.1681ZM111.547 20.8405H113.377C113.565 20.8601 113.755 20.839 113.934 20.7785C114.114 20.7181 114.278 20.6197 114.417 20.4901C114.555 20.3604 114.664 20.2024 114.737 20.0266C114.81 19.8509 114.845 19.6614 114.84 19.471C114.84 18.7379 114.28 18.2385 113.193 18.2385H111.547V20.8405Z" fill="#005AAA"/>
<path d="M118.284 17.3443C118.284 14.1219 120.458 11.5843 123.623 11.5843C126.788 11.5843 128.97 14.1622 128.97 17.3443C128.97 20.5263 126.812 23.1042 123.623 23.1042C120.434 23.1042 118.284 20.5827 118.284 17.3443ZM126.548 17.3443C126.548 15.4511 125.565 13.7433 123.623 13.7433C121.681 13.7433 120.682 15.4511 120.682 17.3443C120.682 19.2374 121.625 20.9452 123.599 20.9452C125.573 20.9452 126.524 19.2535 126.524 17.3443H126.548Z" fill="#005AAA"/>
<path d="M136.531 12.8894C136.517 12.7273 136.537 12.5642 136.59 12.4103C136.642 12.2565 136.726 12.1153 136.835 11.9956C136.944 11.8759 137.077 11.7804 137.225 11.715C137.372 11.6497 137.532 11.616 137.693 11.616C137.855 11.616 138.014 11.6497 138.162 11.715C138.31 11.7804 138.443 11.8759 138.552 11.9956C138.661 12.1153 138.745 12.2565 138.797 12.4103C138.849 12.5642 138.87 12.7273 138.856 12.8894V21.7508C138.87 21.9129 138.849 22.076 138.797 22.2299C138.745 22.3837 138.661 22.5249 138.552 22.6446C138.443 22.7643 138.31 22.8598 138.162 22.9251C138.014 22.9905 137.855 23.0242 137.693 23.0242C137.532 23.0242 137.372 22.9905 137.225 22.9251C137.077 22.8598 136.944 22.7643 136.835 22.6446C136.726 22.5249 136.642 22.3837 136.59 22.2299C136.537 22.076 136.517 21.9129 136.531 21.7508V19.0682H134.636C132.191 19.0682 130.313 17.5537 130.313 15.3142V12.8894C130.313 12.5742 130.437 12.272 130.658 12.0492C130.879 11.8263 131.179 11.7011 131.491 11.7011C131.804 11.7011 132.104 11.8263 132.325 12.0492C132.546 12.272 132.67 12.5742 132.67 12.8894V15.1772C132.67 16.2567 133.613 16.9012 134.812 16.9012H136.555V12.8894" fill="#005AAA"/>
<path d="M140.814 12.8894C140.814 12.7349 140.845 12.582 140.903 12.4393C140.962 12.2966 141.048 12.1669 141.156 12.0577C141.265 11.9485 141.393 11.8619 141.535 11.8028C141.676 11.7436 141.828 11.7132 141.981 11.7132C142.135 11.7132 142.286 11.7436 142.428 11.8028C142.569 11.8619 142.698 11.9485 142.806 12.0577C142.915 12.1669 143.001 12.2966 143.059 12.4393C143.118 12.582 143.148 12.7349 143.148 12.8894V16.2084H148.023V12.8894C148.023 12.7349 148.054 12.582 148.112 12.4393C148.171 12.2966 148.257 12.1669 148.365 12.0577C148.474 11.9485 148.602 11.8619 148.744 11.8028C148.885 11.7436 149.037 11.7132 149.19 11.7132C149.344 11.7132 149.495 11.7436 149.637 11.8028C149.778 11.8619 149.907 11.9485 150.015 12.0577C150.124 12.1669 150.21 12.2966 150.268 12.4393C150.327 12.582 150.357 12.7349 150.357 12.8894V21.7508C150.357 21.9053 150.327 22.0582 150.268 22.2009C150.21 22.3436 150.124 22.4733 150.015 22.5825C149.907 22.6917 149.778 22.7783 149.637 22.8374C149.495 22.8966 149.344 22.927 149.19 22.927C149.037 22.927 148.885 22.8966 148.744 22.8374C148.602 22.7783 148.474 22.6917 148.365 22.5825C148.257 22.4733 148.171 22.3436 148.112 22.2009C148.054 22.0582 148.023 21.9053 148.023 21.7508V18.3754H143.148V21.7911C143.148 21.9456 143.118 22.0985 143.059 22.2412C143.001 22.3839 142.915 22.5136 142.806 22.6228C142.698 22.732 142.569 22.8186 142.428 22.8777C142.286 22.9368 142.135 22.9673 141.981 22.9673C141.828 22.9673 141.676 22.9368 141.535 22.8777C141.393 22.8186 141.265 22.732 141.156 22.6228C141.048 22.5136 140.962 22.3839 140.903 22.2412C140.845 22.0985 140.814 21.9456 140.814 21.7911V12.8894Z" fill="#005AAA"/>
<path d="M156.247 16.0312C158.501 16.0312 160.124 17.0945 160.124 19.4388C160.124 21.6541 158.669 22.9189 156.527 22.9189H153.554C153.395 22.9312 153.235 22.91 153.085 22.8568C152.934 22.8035 152.796 22.7192 152.68 22.6094C152.563 22.4996 152.471 22.3665 152.408 22.2187C152.345 22.0709 152.314 21.9116 152.315 21.7508V12.8894C152.302 12.7273 152.322 12.5642 152.374 12.4103C152.427 12.2565 152.51 12.1153 152.619 11.9956C152.729 11.8759 152.861 11.7804 153.009 11.715C153.157 11.6497 153.317 11.616 153.478 11.616C153.639 11.616 153.799 11.6497 153.947 11.715C154.095 11.7804 154.227 11.8759 154.337 11.9956C154.446 12.1153 154.529 12.2565 154.582 12.4103C154.634 12.5642 154.654 12.7273 154.641 12.8894V16.0312H156.239M154.641 20.8647H156.239C156.431 20.8749 156.623 20.8447 156.802 20.7762C156.982 20.7076 157.145 20.6022 157.282 20.4666C157.418 20.3309 157.526 20.1681 157.597 19.9883C157.668 19.8086 157.701 19.616 157.694 19.4227C157.694 18.6815 157.134 18.1015 156.095 18.1015H154.673L154.641 20.8647ZM162.561 11.681C162.719 11.6724 162.878 11.6981 163.025 11.7562C163.173 11.8144 163.306 11.9037 163.417 12.0181C163.527 12.1326 163.612 12.2695 163.666 12.4198C163.72 12.5701 163.741 12.7302 163.728 12.8894V21.7508C163.741 21.9129 163.721 22.076 163.669 22.2299C163.616 22.3837 163.533 22.5249 163.424 22.6446C163.314 22.7643 163.182 22.8598 163.034 22.9251C162.886 22.9905 162.727 23.0242 162.565 23.0242C162.404 23.0242 162.244 22.9905 162.096 22.9251C161.949 22.8598 161.816 22.7643 161.707 22.6446C161.597 22.5249 161.514 22.3837 161.461 22.2299C161.409 22.076 161.389 21.9129 161.402 21.7508V12.8894C161.39 12.7309 161.411 12.5715 161.464 12.4218C161.517 12.2722 161.601 12.1356 161.711 12.0213C161.821 11.907 161.953 11.8175 162.1 11.7588C162.246 11.7002 162.404 11.6736 162.561 11.681Z" fill="#005AAA"/>
<path d="M165.694 13.1311C165.694 12.3255 166.078 11.7696 166.901 11.7696H170.753C170.9 11.7623 171.046 11.7865 171.182 11.8406C171.318 11.8948 171.442 11.9776 171.544 12.0835C171.646 12.1895 171.725 12.3162 171.774 12.4551C171.824 12.5941 171.844 12.7421 171.832 12.8894C171.836 13.0349 171.809 13.1795 171.755 13.3142C171.7 13.4489 171.618 13.5708 171.515 13.6722C171.411 13.7736 171.288 13.8523 171.153 13.9033C171.018 13.9544 170.873 13.9767 170.729 13.9689H167.996V16.2567H170.545C170.692 16.2455 170.839 16.2652 170.977 16.3146C171.116 16.364 171.243 16.442 171.35 16.5436C171.456 16.6453 171.541 16.7683 171.598 16.9047C171.655 17.0412 171.683 17.1882 171.68 17.3362C171.681 17.4836 171.651 17.6294 171.593 17.7648C171.535 17.9001 171.451 18.0221 171.344 18.1232C171.238 18.2244 171.112 18.3025 170.975 18.3528C170.837 18.4031 170.691 18.4245 170.545 18.4157H167.996V20.8325H170.873C171.018 20.8221 171.163 20.8427 171.299 20.8929C171.436 20.943 171.56 21.0216 171.664 21.1235C171.768 21.2254 171.85 21.3483 171.904 21.4842C171.957 21.62 171.982 21.7658 171.976 21.9119C171.978 22.0571 171.951 22.2012 171.896 22.3354C171.841 22.4695 171.759 22.5909 171.656 22.6921C171.553 22.7932 171.43 22.8719 171.295 22.9234C171.161 22.9749 171.017 22.998 170.873 22.9914H166.877C166.716 22.9989 166.554 22.9715 166.404 22.9112C166.254 22.8508 166.119 22.7588 166.007 22.6414C165.895 22.5239 165.809 22.3837 165.755 22.2301C165.701 22.0765 165.68 21.9131 165.694 21.7508V13.1311Z" fill="#005AAA"/>
<path d="M73.5282 35.1557H71.8498C71.708 35.1629 71.5664 35.1397 71.4341 35.0877C71.3018 35.0358 71.182 34.9562 71.0823 34.8543C70.9827 34.7524 70.9056 34.6303 70.8561 34.4963C70.8065 34.3622 70.7856 34.219 70.7948 34.0763C70.7959 33.9377 70.824 33.8007 70.8776 33.673C70.9312 33.5454 71.0092 33.4296 71.1071 33.3324C71.2051 33.2351 71.3211 33.1583 71.4485 33.1062C71.576 33.0542 71.7123 33.0279 71.8498 33.029H77.5642C77.7058 33.0268 77.8463 33.0535 77.9774 33.1075C78.1084 33.1616 78.2272 33.2419 78.3265 33.3436C78.4259 33.4452 78.5038 33.5661 78.5554 33.699C78.6071 33.8319 78.6315 33.9739 78.6272 34.1165C78.6365 34.26 78.6154 34.4039 78.5654 34.5386C78.5154 34.6732 78.4375 34.7957 78.337 34.8977C78.2365 34.9998 78.1157 35.0792 77.9824 35.1306C77.8492 35.182 77.7067 35.2043 77.5642 35.196H75.8779V43.0505C75.8779 43.2049 75.8477 43.3579 75.789 43.5006C75.7304 43.6433 75.6445 43.7729 75.5361 43.8821C75.4278 43.9914 75.2991 44.078 75.1575 44.1371C75.016 44.1962 74.8642 44.2266 74.711 44.2266C74.5578 44.2266 74.406 44.1962 74.2645 44.1371C74.1229 44.078 73.9943 43.9914 73.8859 43.8821C73.7776 43.7729 73.6916 43.6433 73.633 43.5006C73.5743 43.3579 73.5441 43.2049 73.5441 43.0505V35.1557" fill="#005AAA"/>
<path d="M79.6981 34.3582C79.6981 33.5526 80.0897 32.9887 80.9129 32.9887H84.7652C84.9103 32.9796 85.0558 33.0013 85.1921 33.0524C85.3284 33.1035 85.4525 33.1828 85.5565 33.2853C85.6605 33.3879 85.7419 33.5112 85.7956 33.6475C85.8493 33.7837 85.874 33.9298 85.8681 34.0763C85.8704 34.2214 85.8432 34.3655 85.7882 34.4997C85.7332 34.6339 85.6515 34.7552 85.5482 34.8564C85.4449 34.9575 85.3221 35.0363 85.1874 35.0877C85.0527 35.1392 84.909 35.1624 84.7652 35.1558H82.0318V37.4356H84.5814C84.7275 37.4242 84.8743 37.444 85.0124 37.4934C85.1504 37.5429 85.2767 37.6211 85.3829 37.7228C85.4891 37.8246 85.5729 37.9476 85.629 38.0841C85.685 38.2206 85.712 38.3674 85.7082 38.515C85.7107 38.6627 85.6829 38.8093 85.6265 38.9455C85.5701 39.0818 85.4864 39.2049 85.3806 39.307C85.2747 39.4091 85.1491 39.4881 85.0116 39.539C84.8741 39.5898 84.7276 39.6115 84.5814 39.6026H82.0318V42.0193H84.901C85.0458 42.009 85.1911 42.0296 85.3274 42.0798C85.4637 42.1299 85.588 42.2085 85.6921 42.3104C85.7962 42.4123 85.8778 42.5352 85.9315 42.6711C85.9853 42.8069 86.0099 42.9527 86.004 43.0988C86.0075 43.2443 85.9811 43.389 85.9265 43.5237C85.8719 43.6584 85.7902 43.7803 85.6866 43.8816C85.5831 43.983 85.4598 44.0617 85.3246 44.1128C85.1894 44.1638 85.0452 44.1861 84.901 44.1783H80.9049C80.7479 44.1873 80.5907 44.1633 80.4433 44.1078C80.296 44.0523 80.1617 43.9666 80.0489 43.856C79.9362 43.7454 79.8475 43.6124 79.7885 43.4654C79.7295 43.3184 79.7014 43.1607 79.7061 43.0022V34.3582" fill="#005AAA"/>
<path d="M90.7193 38.1767L88.2018 34.7288C88.0435 34.5361 87.956 34.2942 87.954 34.044C87.9504 33.8887 87.9789 33.7342 88.0377 33.5905C88.0964 33.4469 88.1843 33.3171 88.2955 33.2095C88.4068 33.1019 88.5391 33.0188 88.6839 32.9656C88.8288 32.9123 88.983 32.89 89.1369 32.9001C89.3369 32.9153 89.5311 32.9753 89.7053 33.0756C89.8795 33.176 90.0293 33.3141 90.1439 33.4801L92.07 36.2513L93.9961 33.4962C94.109 33.3286 94.2585 33.1892 94.433 33.0886C94.6075 32.9881 94.8025 32.9291 95.0032 32.9162C95.157 32.9061 95.3113 32.9284 95.4561 32.9817C95.601 33.0349 95.7333 33.118 95.8445 33.2256C95.9558 33.3332 96.0436 33.463 96.1024 33.6067C96.1612 33.7503 96.1897 33.9048 96.186 34.0601C96.1803 34.3096 96.0932 34.5503 95.9382 34.7449L93.4207 38.1928L96.4977 42.3577C96.6638 42.5935 96.7556 42.8742 96.7614 43.1633C96.7608 43.3153 96.7291 43.4655 96.6681 43.6046C96.6072 43.7437 96.5184 43.8686 96.4074 43.9714C96.2963 44.0743 96.1654 44.1529 96.0228 44.2024C95.8801 44.2518 95.7289 44.2711 95.5786 44.2589C95.3875 44.2613 95.1988 44.2154 95.0299 44.1253C94.8609 44.0352 94.7171 43.9039 94.6115 43.7433L92.07 40.1745L89.5125 43.7191C89.4086 43.8813 89.2651 44.0139 89.0958 44.1042C88.9264 44.1944 88.737 44.2394 88.5455 44.2347C88.3955 44.247 88.2447 44.2277 88.1025 44.1782C87.9603 44.1286 87.8298 44.0499 87.7194 43.9469C87.609 43.8439 87.5209 43.7189 87.4609 43.5799C87.4009 43.4408 87.3701 43.2907 87.3706 43.1391C87.3723 42.8493 87.4646 42.5674 87.6344 42.3335L90.7113 38.1686" fill="#005AAA"/>
<path d="M98.0801 34.1165C98.0801 33.8046 98.203 33.5055 98.4218 33.2849C98.6407 33.0643 98.9375 32.9404 99.2469 32.9404C99.5564 32.9404 99.8532 33.0643 100.072 33.2849C100.291 33.5055 100.414 33.8046 100.414 34.1165V37.4356H105.289V34.1165C105.276 33.9545 105.296 33.7913 105.348 33.6375C105.401 33.4836 105.484 33.3424 105.593 33.2228C105.703 33.1031 105.835 33.0076 105.983 32.9422C106.131 32.8769 106.291 32.8431 106.452 32.8431C106.613 32.8431 106.773 32.8769 106.921 32.9422C107.068 33.0076 107.201 33.1031 107.31 33.2228C107.42 33.3424 107.503 33.4836 107.556 33.6375C107.608 33.7913 107.628 33.9545 107.615 34.1165V42.978C107.628 43.1401 107.608 43.3032 107.556 43.457C107.503 43.6109 107.42 43.7521 107.31 43.8718C107.201 43.9915 107.068 44.087 106.921 44.1523C106.773 44.2177 106.613 44.2514 106.452 44.2514C106.291 44.2514 106.131 44.2177 105.983 44.1523C105.835 44.087 105.703 43.9915 105.593 43.8718C105.484 43.7521 105.401 43.6109 105.348 43.457C105.296 43.3032 105.276 43.1401 105.289 42.978V39.6026H100.414V43.0102C100.414 43.3221 100.291 43.6213 100.072 43.8419C99.8532 44.0625 99.5564 44.1864 99.2469 44.1864C98.9375 44.1864 98.6407 44.0625 98.4218 43.8419C98.203 43.6213 98.0801 43.3221 98.0801 43.0102V34.1488" fill="#005AAA"/>
<path d="M109.141 38.5634C109.141 35.341 111.323 32.8034 114.488 32.8034C117.653 32.8034 119.827 35.3894 119.827 38.5634C119.827 41.7374 117.669 44.3072 114.488 44.3072C111.307 44.3072 109.141 41.7857 109.141 38.5392M117.405 38.5392C117.405 36.6461 116.43 34.9382 114.488 34.9382C112.546 34.9382 111.571 36.6461 111.571 38.5392C111.571 40.4323 112.514 42.1402 114.488 42.1402C116.462 42.1402 117.405 40.4726 117.405 38.5634V38.5392Z" fill="#005AAA"/>
<path d="M128.602 44.2347C128.443 44.2424 128.285 44.2155 128.137 44.1558C127.989 44.0962 127.856 44.0053 127.746 43.8891C127.636 43.773 127.552 43.6344 127.5 43.4828C127.448 43.3311 127.428 43.17 127.444 43.0102V35.0591H124.367V38.5634C124.367 40.3357 123.887 42.3416 122.624 43.4372C122.129 43.9265 121.471 44.2135 120.778 44.2428C120.636 44.2512 120.494 44.2289 120.361 44.1774C120.228 44.1259 120.108 44.0464 120.008 43.9442C119.908 43.842 119.831 43.7194 119.782 43.5847C119.733 43.4501 119.713 43.3064 119.723 43.1633C119.723 42.6155 119.987 42.3577 120.594 42.0677C121.202 41.7777 122.033 40.7949 122.033 39.0467V34.2132C122.026 34.0566 122.052 33.9002 122.108 33.754C122.164 33.6078 122.249 33.4749 122.359 33.3637C122.469 33.2525 122.6 33.1653 122.745 33.1077C122.889 33.0501 123.044 33.0233 123.2 33.029H128.602C128.761 33.0228 128.92 33.0507 129.067 33.1107C129.215 33.1707 129.348 33.2615 129.459 33.3772C129.569 33.4929 129.653 33.6308 129.707 33.7818C129.761 33.9328 129.782 34.0936 129.769 34.2535V43.0102C129.783 43.1704 129.763 43.3317 129.71 43.4833C129.657 43.635 129.572 43.7734 129.462 43.8894C129.351 44.0053 129.217 44.0962 129.069 44.1557C128.921 44.2153 128.762 44.2422 128.602 44.2347Z" fill="#005AAA"/>
<path d="M131.296 38.5634C131.296 35.341 133.47 32.8034 136.634 32.8034C139.799 32.8034 141.981 35.3894 141.981 38.5634C141.981 41.7374 139.863 44.3072 136.666 44.3072C133.47 44.3072 131.328 41.7857 131.328 38.5392M139.592 38.5392C139.592 36.6461 138.609 34.9382 136.666 34.9382C134.724 34.9382 133.749 36.6461 133.749 38.5392C133.749 40.4323 134.7 42.1402 136.666 42.1402C138.632 42.1402 139.56 40.4726 139.56 38.5634L139.592 38.5392Z" fill="#005AAA"/>
<path d="M143.508 34.2132C143.507 34.0539 143.537 33.8961 143.599 33.7492C143.66 33.6023 143.75 33.4694 143.863 33.3587C143.977 33.248 144.112 33.1617 144.259 33.105C144.407 33.0483 144.565 33.0225 144.723 33.029H148.719C148.988 33.0524 149.238 33.1767 149.421 33.3773C149.604 33.5779 149.705 33.8403 149.705 34.1125C149.705 34.3848 149.604 34.6471 149.421 34.8477C149.238 35.0483 148.988 35.1726 148.719 35.196H145.857V43.0505C145.871 43.2126 145.851 43.3757 145.798 43.5296C145.746 43.6834 145.662 43.8246 145.553 43.9443C145.444 44.064 145.311 44.1595 145.163 44.2248C145.016 44.2902 144.856 44.3239 144.695 44.3239C144.533 44.3239 144.374 44.2902 144.226 44.2248C144.078 44.1595 143.945 44.064 143.836 43.9443C143.727 43.8246 143.643 43.6834 143.591 43.5296C143.539 43.3757 143.518 43.2126 143.532 43.0505V34.2132" fill="#005AAA"/>
<path d="M159.332 44.2347C159.173 44.2424 159.014 44.2155 158.867 44.1558C158.719 44.0962 158.585 44.0053 158.476 43.8891C158.366 43.773 158.282 43.6344 158.23 43.4828C158.178 43.3311 158.158 43.17 158.173 43.0102V37.1697L153.138 43.7191C153.021 43.8696 152.874 43.9934 152.706 44.0823C152.538 44.1712 152.353 44.2231 152.163 44.2347C152.004 44.2422 151.845 44.2153 151.697 44.1557C151.548 44.0962 151.415 44.0053 151.304 43.8894C151.194 43.7734 151.109 43.635 151.056 43.4833C151.003 43.3317 150.983 43.1704 150.996 43.0102V34.1488C150.983 33.9867 151.003 33.8236 151.056 33.6697C151.108 33.5159 151.191 33.3747 151.301 33.255C151.41 33.1353 151.543 33.0398 151.691 32.9744C151.838 32.9091 151.998 32.8754 152.159 32.8754C152.321 32.8754 152.48 32.9091 152.628 32.9744C152.776 33.0398 152.909 33.1353 153.018 33.255C153.127 33.3747 153.211 33.5159 153.263 33.6697C153.315 33.8236 153.335 33.9867 153.322 34.1488V40.0376L158.357 33.4157C158.474 33.2644 158.621 33.1401 158.789 33.0511C158.957 32.9622 159.143 32.9107 159.332 32.9001C159.491 32.8914 159.65 32.9173 159.798 32.9759C159.947 33.0345 160.081 33.1245 160.191 33.2399C160.302 33.3552 160.387 33.4932 160.44 33.6445C160.493 33.7957 160.513 33.9567 160.499 34.1166V42.978C160.513 43.1382 160.493 43.2995 160.44 43.4511C160.387 43.6028 160.302 43.7412 160.191 43.8572C160.081 43.9731 159.947 44.0639 159.799 44.1235C159.651 44.183 159.492 44.21 159.332 44.2025" fill="#005AAA"/>
<path d="M170.833 44.2347C170.674 44.2424 170.515 44.2155 170.367 44.1558C170.22 44.0962 170.086 44.0053 169.976 43.8891C169.866 43.773 169.783 43.6344 169.73 43.4828C169.678 43.3311 169.659 43.17 169.674 43.0102V37.1697H169.634L164.639 43.7191C164.52 43.8699 164.371 43.9937 164.202 44.0825C164.033 44.1714 163.847 44.2232 163.656 44.2347C163.497 44.2424 163.338 44.2155 163.19 44.1558C163.043 44.0962 162.909 44.0053 162.799 43.8891C162.689 43.773 162.606 43.6344 162.553 43.4828C162.501 43.3311 162.482 43.17 162.497 43.0102V34.1488C162.484 33.9867 162.504 33.8236 162.556 33.6697C162.609 33.5159 162.692 33.3747 162.802 33.255C162.911 33.1353 163.044 33.0398 163.191 32.9744C163.339 32.9091 163.499 32.8754 163.66 32.8754C163.821 32.8754 163.981 32.9091 164.129 32.9744C164.277 33.0398 164.409 33.1353 164.519 33.255C164.628 33.3747 164.711 33.5159 164.764 33.6697C164.816 33.8236 164.836 33.9867 164.823 34.1488V40.0376L169.858 33.4157C169.974 33.264 170.121 33.1394 170.29 33.0504C170.458 32.9614 170.643 32.9102 170.833 32.9001C170.992 32.8914 171.151 32.9173 171.299 32.9759C171.447 33.0345 171.581 33.1245 171.692 33.2399C171.803 33.3552 171.887 33.4932 171.94 33.6445C171.994 33.7957 172.014 33.9567 172 34.1166V42.978C172.014 43.1382 171.993 43.2995 171.94 43.4511C171.887 43.6028 171.803 43.7412 171.692 43.8572C171.582 43.9731 171.448 44.0639 171.3 44.1235C171.151 44.183 170.992 44.21 170.833 44.2025" fill="#005AAA"/>
<path fill-rule="evenodd" clip-rule="evenodd" d="M50.1829 8.74718e-06H50.1189C49.1255 -0.00214228 48.1716 0.392504 47.4661 1.09757C46.7606 1.80265 46.361 2.76071 46.3546 3.76209C46.3609 4.75929 46.7573 5.71372 47.4576 6.4181C48.1579 7.12249 49.1056 7.51995 50.095 7.52418H50.1589C51.1434 7.51157 52.0838 7.11066 52.7786 6.40739C53.4733 5.70413 53.867 4.7545 53.8753 3.76209C53.8692 2.77317 53.4794 1.82592 52.7894 1.12288C52.0994 0.419838 51.1639 0.0168225 50.1829 8.74718e-06ZM50.1829 6.92804C49.7608 6.94961 49.3388 6.88443 48.9425 6.73648C48.5462 6.58853 48.1839 6.36089 47.8776 6.0674C47.5713 5.77391 47.3274 5.4207 47.1607 5.02925C46.9941 4.63779 46.9081 4.21626 46.9081 3.79029C46.9081 3.36431 46.9941 2.94278 47.1607 2.55133C47.3274 2.15987 47.5713 1.80667 47.8776 1.51318C48.1839 1.21969 48.5462 0.99205 48.9425 0.844098C49.3388 0.696145 49.7608 0.63097 50.1829 0.652533C50.6049 0.63097 51.027 0.696145 51.4233 0.844098C51.8196 0.99205 52.1819 1.21969 52.4882 1.51318C52.7945 1.80667 53.0384 2.15987 53.205 2.55133C53.3717 2.94278 53.4576 3.36431 53.4576 3.79029C53.4576 4.21626 53.3717 4.63779 53.205 5.02925C53.0384 5.4207 52.7945 5.77391 52.4882 6.0674C52.1819 6.36089 51.8196 6.58853 51.4233 6.73648C51.027 6.88443 50.6049 6.94961 50.1829 6.92804Z" fill="#005AAA"/>
<path fill-rule="evenodd" clip-rule="evenodd" d="M51.2779 4.39046C51.1452 4.2535 50.9977 4.13191 50.8383 4.02795C51.1422 3.99436 51.4249 3.85472 51.6375 3.63321C51.8313 3.44183 51.9432 3.18161 51.9492 2.90818C51.9432 2.67604 51.88 2.44905 51.7654 2.2476C51.6452 2.07582 51.4747 1.94625 51.2779 1.87703C50.9721 1.77241 50.6491 1.72863 50.3268 1.74814H48.6005V5.85663H49.3997V4.13267H49.5515C49.6944 4.12687 49.8372 4.14318 49.9751 4.18101C50.0488 4.21524 50.1163 4.26152 50.1749 4.31796H50.2229L50.6545 4.92215L51.2379 5.8244H52.2209L51.7334 5.01882C51.6009 4.77872 51.4457 4.5521 51.2699 4.34213M50.1829 3.47209H49.3837V2.46511H50.6225C50.7459 2.47445 50.8607 2.53232 50.9422 2.62623C50.9812 2.66941 51.0107 2.72048 51.0286 2.77605C51.0465 2.83161 51.0525 2.89039 51.0461 2.94846C51.0479 3.05754 51.0232 3.1654 50.9741 3.26264C50.9059 3.33604 50.8208 3.39138 50.7264 3.42376C50.5471 3.45667 50.3652 3.47285 50.1829 3.47209Z" fill="#005AAA"/>
</g>
<defs>
<clipPath id="clip0_133_3737">
<rect width="172" height="60" fill="white"/>
</clipPath>
</defs>
</svg>
