<svg width="129" height="45" viewBox="0 0 129 45" fill="none" xmlns="http://www.w3.org/2000/svg">
<g clip-path="url(#clip0_133_3770)">
<path d="M10.322 10.5733C10.322 8.33782 11.2032 7.06298 13.1213 6.10836L18.5819 3.37743C19.5338 2.85715 20.5981 2.58117 21.6809 2.57386C22.8262 2.55193 23.9563 2.83985 24.9537 3.40764L30.4084 6.13857C32.4464 7.15361 33.2436 8.42845 33.2436 10.7183V15.7754C33.2569 15.974 33.2279 16.1732 33.1584 16.3596C33.089 16.546 32.9809 16.7153 32.8412 16.8561C32.7015 16.9968 32.5336 17.1059 32.3487 17.1758C32.1638 17.2458 31.9661 17.2751 31.7691 17.2617C31.5727 17.2721 31.3763 17.2408 31.1928 17.1698C31.0092 17.0988 30.8424 16.9897 30.7034 16.8496C30.5643 16.7094 30.4561 16.5413 30.3856 16.3563C30.3152 16.1712 30.2841 15.9733 30.2945 15.7754V10.809C30.2945 9.52807 30.1746 9.32265 29.0537 8.75471L23.9767 6.16878C23.2933 5.77672 22.5212 5.56865 21.7349 5.56459C21.0167 5.58307 20.316 5.79142 19.7029 6.16878L14.5659 8.69429C13.367 9.29848 13.2711 9.58849 13.2711 10.9298V15.7633C13.2844 15.9619 13.2554 16.1611 13.186 16.3475C13.1165 16.5339 13.0084 16.7032 12.8687 16.844C12.729 16.9848 12.5611 17.0938 12.3762 17.1638C12.1913 17.2337 11.9936 17.263 11.7966 17.2496C11.6002 17.26 11.4039 17.2288 11.2203 17.1578C11.0367 17.0868 10.8699 16.9776 10.7309 16.8375C10.5918 16.6973 10.4836 16.5293 10.4131 16.3442C10.3427 16.1592 10.3117 15.9612 10.322 15.7633V10.5733Z" fill="#005AAA"/>
<path d="M13.8824 44.1058C11.9643 45.2235 10.4238 45.0906 8.64953 43.8883L3.5605 40.4807C2.6336 39.907 1.86312 39.1097 1.31869 38.1606C0.730491 37.1721 0.41203 36.0444 0.395596 34.8919L-1.76802e-05 28.7594C-0.149871 26.4756 0.551443 25.1343 2.51752 23.9984L6.86328 21.4729C7.02729 21.362 7.21293 21.2878 7.40774 21.2552C7.60255 21.2226 7.80202 21.2324 7.99277 21.2839C8.18353 21.3354 8.36115 21.4274 8.51371 21.5538C8.66627 21.6802 8.79024 21.838 8.87731 22.0166C8.9835 22.1831 9.054 22.3701 9.08429 22.5656C9.11458 22.7611 9.10398 22.9608 9.05319 23.152C9.00239 23.3431 8.91251 23.5215 8.78932 23.6756C8.66613 23.8296 8.51235 23.9561 8.33784 24.0467L4.08799 26.5239C2.99705 27.1885 2.87118 27.3758 2.94311 28.6325L3.29077 34.4388C3.29322 35.2335 3.49972 36.014 3.89018 36.7045C4.27085 37.3227 4.80628 37.8291 5.44267 38.1727L10.1661 41.3567C11.281 42.118 11.5807 42.0455 12.7315 41.3567L16.9274 38.94C17.0912 38.8281 17.2768 38.7531 17.4719 38.7199C17.6669 38.6868 17.8667 38.6963 18.0578 38.7479C18.2488 38.7995 18.4266 38.8919 18.5791 39.0189C18.7316 39.1458 18.8552 39.3044 18.9415 39.4837C19.0486 39.6499 19.1199 39.8369 19.1507 40.0327C19.1814 40.2284 19.1711 40.4284 19.1202 40.6199C19.0693 40.8113 18.9791 40.9898 18.8554 41.1438C18.7317 41.2978 18.5772 41.4239 18.402 41.5138L13.8824 44.1058Z" fill="#005AAA"/>
<path d="M40.91 24.228C42.8281 25.3397 43.4815 26.7535 43.3436 28.9044L42.948 35.043C42.9195 36.1334 42.6251 37.1999 42.0909 38.1485C41.532 39.1503 40.719 39.9844 39.7352 40.5653L34.6581 43.9608C32.77 45.2356 31.2774 45.29 29.3113 44.1421L24.9656 41.6166C24.7881 41.529 24.6314 41.404 24.5061 41.25C24.3807 41.0961 24.2897 40.9168 24.2391 40.7243C24.1885 40.5318 24.1795 40.3305 24.2128 40.1342C24.2461 39.9379 24.3209 39.7511 24.4321 39.5865C24.5207 39.4101 24.6452 39.2545 24.7975 39.1298C24.9497 39.0051 25.1263 38.9142 25.3157 38.8629C25.5052 38.8116 25.7032 38.8011 25.8969 38.8321C26.0907 38.8631 26.2758 38.9348 26.4401 39.0427L30.708 41.5259C31.8049 42.1664 32.0447 42.1664 33.1056 41.4715L37.901 38.2875C38.5795 37.8981 39.1504 37.3435 39.5613 36.6743C39.8958 36.0324 40.0609 35.3146 40.0409 34.5898L40.4185 28.8682C40.5144 27.5208 40.2986 27.2912 39.1537 26.6206L34.9578 24.2038C34.7808 24.1167 34.6243 23.9923 34.4989 23.8391C34.3736 23.6859 34.2822 23.5074 34.2311 23.3156C34.18 23.1238 34.1702 22.9231 34.2025 22.7272C34.2348 22.5313 34.3084 22.3446 34.4184 22.1798C34.5077 22.0025 34.6329 21.8461 34.786 21.7208C34.9391 21.5954 35.1166 21.5038 35.307 21.452C35.4975 21.4002 35.6966 21.3892 35.8915 21.4199C36.0864 21.4506 36.2727 21.5221 36.4384 21.63L40.904 24.234" fill="#005AAA"/>
<path d="M31.841 20.2464C31.642 19.9037 31.3163 19.6545 30.9353 19.5537C30.5543 19.4529 30.1492 19.5086 29.8089 19.7087L21.7049 24.4697L13.6008 19.7087C13.2616 19.5255 12.8652 19.482 12.4948 19.5873C12.1245 19.6927 11.8091 19.9387 11.615 20.2736C11.421 20.6086 11.3633 21.0063 11.4541 21.3832C11.545 21.7601 11.7773 22.0868 12.1022 22.2946L20.2183 27.0616V36.6743C20.2183 37.0749 20.3762 37.4591 20.6572 37.7423C20.9383 38.0256 21.3194 38.1848 21.7168 38.1848C22.1143 38.1848 22.4954 38.0256 22.7765 37.7423C23.0575 37.4591 23.2154 37.0749 23.2154 36.6743V27.0616L31.3075 22.2946C31.6475 22.0941 31.8946 21.7658 31.9947 21.3817C32.0947 20.9977 32.0394 20.5894 31.841 20.2464Z" fill="#005AAA"/>
<path d="M26.9137 9.89663C26.8158 9.72715 26.6857 9.57878 26.5309 9.46001C26.376 9.34124 26.1995 9.25441 26.0113 9.20447C25.8231 9.15452 25.627 9.14246 25.4342 9.16896C25.2414 9.19546 25.0557 9.26001 24.8877 9.35891L21.7048 11.2259L18.5219 9.35891C18.1835 9.18618 17.7924 9.15037 17.4287 9.2588C17.065 9.36723 16.7561 9.61171 16.5654 9.94217C16.3747 10.2726 16.3165 10.6641 16.4027 11.0364C16.489 11.4087 16.7132 11.7337 17.0294 11.9448L20.2123 13.8178V17.5336C20.2123 17.9305 20.3679 18.3113 20.6452 18.5931C20.9225 18.8749 21.2991 19.0348 21.6928 19.038C21.8891 19.0372 22.0832 18.9973 22.264 18.9205C22.4449 18.8437 22.6088 18.7316 22.7465 18.5906C22.8841 18.4496 22.9927 18.2826 23.066 18.0991C23.1392 17.9156 23.1757 17.7193 23.1734 17.5215V13.7997L26.3742 11.9448C26.7142 11.7443 26.9614 11.416 27.0614 11.032C27.1615 10.648 27.1062 10.2396 26.9077 9.89663" fill="#ED1C24"/>
<path d="M15.5847 29.853C15.4883 29.682 15.3593 29.5319 15.2051 29.4113C15.051 29.2907 14.8747 29.2021 14.6864 29.1504C14.4981 29.0988 14.3015 29.0851 14.108 29.1103C13.9145 29.1355 13.7278 29.199 13.5587 29.2971L10.3518 31.1459L7.14497 29.2971C6.80484 29.1229 6.41125 29.0871 6.04569 29.1972C5.68012 29.3074 5.37057 29.555 5.1811 29.8888C4.99163 30.2226 4.93676 30.6171 5.02785 30.9906C5.11893 31.364 5.34899 31.6879 5.67041 31.8951L8.86529 33.7379V37.4476C8.86528 37.8445 9.02088 38.2254 9.2982 38.5072C9.57552 38.789 9.95208 38.9489 10.3458 38.9521C10.7365 38.9473 11.1097 38.7884 11.3854 38.5094C11.6611 38.2304 11.8173 37.8535 11.8204 37.4597V33.744L15.0213 31.8951C15.1919 31.799 15.342 31.6697 15.4628 31.5147C15.5836 31.3598 15.6728 31.1823 15.7252 30.9924C15.7776 30.8025 15.7921 30.6041 15.768 30.4085C15.7439 30.213 15.6816 30.0241 15.5847 29.853Z" fill="#50B848"/>
<path d="M38.2907 29.853C38.0948 29.5088 37.7715 29.257 37.3917 29.1528C37.0119 29.0486 36.6065 29.1005 36.2646 29.2971L33.0638 31.1097L29.8749 29.2427C29.7061 29.13 29.5162 29.0533 29.3169 29.0172C29.1176 28.9811 28.9131 28.9864 28.7159 29.0328C28.5187 29.0792 28.333 29.1657 28.1702 29.2871C28.0074 29.4084 27.8708 29.562 27.769 29.7384C27.6672 29.9149 27.6022 30.1104 27.578 30.313C27.5538 30.5157 27.571 30.7212 27.6284 30.9169C27.6859 31.1126 27.7823 31.2944 27.912 31.4512C28.0416 31.608 28.2017 31.7365 28.3823 31.8287L31.5712 33.7017V37.4295C31.5728 37.8259 31.7301 38.2054 32.0087 38.4851C32.2873 38.7648 32.6646 38.9219 33.0578 38.9219C33.4485 38.9252 33.825 38.7739 34.1063 38.5005C34.3876 38.2271 34.5513 37.8534 34.5623 37.4597V33.75L37.7632 31.8951C37.9328 31.798 38.0817 31.6679 38.2014 31.5125C38.321 31.3571 38.4089 31.1794 38.4602 30.9896C38.5114 30.7999 38.525 30.6017 38.5 30.4067C38.475 30.2116 38.412 30.0234 38.3146 29.853" fill="#00AEEF"/>
<path d="M48.5526 10.0054L45.4656 16.7421C45.4041 16.8925 45.3005 17.0218 45.1675 17.114C45.0345 17.2063 44.8777 17.2576 44.7163 17.2617C44.4832 17.2685 44.2564 17.1844 44.0833 17.0268C43.9102 16.8692 43.8041 16.6503 43.7872 16.4158C43.7919 16.2784 43.8224 16.143 43.8771 16.0171L44.5545 14.5005L42.3906 9.99329C42.3268 9.86593 42.2939 9.72511 42.2947 9.58244C42.3131 9.34742 42.4204 9.12851 42.5944 8.97106C42.7685 8.8136 42.996 8.72964 43.2298 8.73657C43.39 8.73905 43.546 8.78908 43.6782 8.88042C43.8104 8.97177 43.913 9.10036 43.9731 9.25013L45.5076 12.41L46.9402 9.25013C47.0035 9.09655 47.111 8.96559 47.2488 8.87407C47.3866 8.78255 47.5484 8.73467 47.7134 8.73657C47.9437 8.73153 48.1669 8.81697 48.3358 8.97483C48.5047 9.13269 48.6061 9.35059 48.6185 9.58244C48.6155 9.72011 48.5849 9.85575 48.5286 9.9812" fill="#005AAA"/>
<path d="M56.9443 9.74558V16.3433C56.9543 16.4649 56.9392 16.5872 56.8999 16.7026C56.8606 16.818 56.798 16.9239 56.7161 17.0137C56.6341 17.1034 56.5346 17.1751 56.4237 17.2241C56.3129 17.2731 56.1932 17.2984 56.0722 17.2984C55.9512 17.2984 55.8314 17.2731 55.7206 17.2241C55.6098 17.1751 55.5102 17.1034 55.4283 17.0137C55.3463 16.9239 55.2837 16.818 55.2444 16.7026C55.2051 16.5872 55.19 16.4649 55.2 16.3433V10.38H51.5496V16.3433C51.5496 16.5773 51.4574 16.8016 51.2933 16.9671C51.1292 17.1325 50.9066 17.2254 50.6745 17.2254C50.4424 17.2254 50.2198 17.1325 50.0556 16.9671C49.8915 16.8016 49.7993 16.5773 49.7993 16.3433V9.74558C49.7889 9.62544 49.8041 9.50445 49.8439 9.39073C49.8838 9.27701 49.9472 9.17318 50.0301 9.0862C50.113 8.99923 50.2134 8.93113 50.3245 8.88646C50.4356 8.84179 50.5549 8.82159 50.6745 8.82721H56.0692C56.1887 8.82159 56.308 8.84179 56.4192 8.88646C56.5303 8.93113 56.6307 8.99923 56.7135 9.0862C56.7964 9.17318 56.8599 9.27701 56.8997 9.39073C56.9395 9.50445 56.9547 9.62544 56.9443 9.74558Z" fill="#005AAA"/>
<path d="M60.1213 9.66702C60.2048 9.39539 60.3693 9.15628 60.5924 8.98222C60.8154 8.80817 61.0863 8.70762 61.3681 8.69427C61.6522 8.69942 61.927 8.79688 62.1516 8.97215C62.3763 9.14743 62.5388 9.39114 62.6149 9.66702L64.8987 16.0593C64.954 16.196 64.9865 16.3409 64.9946 16.4883C64.993 16.5933 64.9708 16.6969 64.9291 16.7932C64.8875 16.8894 64.8272 16.9763 64.7519 17.0488C64.6766 17.1214 64.5877 17.1781 64.4905 17.2157C64.3932 17.2532 64.2895 17.2709 64.1854 17.2677C63.9966 17.2826 63.8087 17.2302 63.6543 17.1199C63.4998 17.0095 63.3887 16.848 63.3402 16.6635L62.9865 15.5639H59.7497L59.402 16.6575C59.3527 16.8403 59.2422 17.0002 59.0893 17.1103C58.9364 17.2204 58.7504 17.2739 58.5629 17.2617C58.4526 17.2649 58.3429 17.2462 58.2398 17.2066C58.1368 17.1671 58.0425 17.1074 57.9624 17.0311C57.8822 16.9548 57.8177 16.8633 57.7727 16.7619C57.7276 16.6605 57.7028 16.5511 57.6997 16.44C57.6998 16.3065 57.7285 16.1746 57.7836 16.0533L60.1213 9.66702ZM60.2532 13.9326H62.4651L61.3801 10.525L60.2532 13.9326Z" fill="#005AAA"/>
<path d="M65.9355 9.62472C65.9329 9.50901 65.954 9.394 65.9973 9.2868C66.0406 9.17961 66.1052 9.08251 66.1873 9.00152C66.2693 8.92053 66.367 8.85737 66.4742 8.81596C66.5814 8.77454 66.6959 8.75574 66.8107 8.76073C66.9298 8.74555 67.0509 8.7569 67.1652 8.79399C67.2795 8.83107 67.3844 8.89299 67.4724 8.97537C67.5605 9.05776 67.6295 9.15861 67.6746 9.2708C67.7198 9.383 67.74 9.50381 67.7338 9.62472V12.1623L70.575 9.06283C70.6584 8.96307 70.762 8.88237 70.8788 8.82611C70.9956 8.76986 71.1229 8.73933 71.2523 8.73657C71.3638 8.73497 71.4745 8.75563 71.578 8.79734C71.6816 8.83906 71.7759 8.90102 71.8556 8.97965C71.9353 9.05827 71.9987 9.15201 72.0423 9.25547C72.0859 9.35892 72.1087 9.47004 72.1095 9.58243C72.1095 9.88453 71.9237 10.1322 71.5101 10.5189L69.3102 12.7L72.0016 15.5337C72.1379 15.6423 72.2511 15.7774 72.3345 15.931C72.418 16.0847 72.4698 16.2536 72.4871 16.4279C72.4871 16.5431 72.4628 16.6571 72.4159 16.7622C72.369 16.8673 72.3005 16.9612 72.215 17.0377C72.1295 17.1142 72.0289 17.1715 71.9198 17.206C71.8106 17.2404 71.6955 17.2512 71.582 17.2375C71.2403 17.2375 71.0245 17.0321 70.6949 16.6817L67.6978 13.3949V16.4158C67.6971 16.5298 67.6737 16.6424 67.629 16.7471C67.5843 16.8518 67.5192 16.9463 67.4376 17.0252C67.356 17.1041 67.2595 17.1656 67.1539 17.2063C67.0483 17.2469 66.9356 17.2657 66.8226 17.2617C66.7088 17.2693 66.5947 17.2529 66.4875 17.2135C66.3803 17.1742 66.2824 17.1128 66.2001 17.0332C66.1178 16.9536 66.0528 16.8576 66.0093 16.7513C65.9658 16.645 65.9448 16.5308 65.9475 16.4158V9.62472" fill="#005AAA"/>
<path d="M72.751 13.0082C72.751 10.5914 74.3874 8.68823 76.7611 8.68823C79.1347 8.68823 80.7711 10.6216 80.7711 13.0082C80.7711 15.3947 79.1467 17.3281 76.7611 17.3281C74.3754 17.3281 72.751 15.437 72.751 13.0082ZM78.9489 13.0082C78.9489 11.5883 78.2176 10.3075 76.7611 10.3075C75.3045 10.3075 74.5732 11.5883 74.5732 13.0082C74.5732 14.428 75.2805 15.7089 76.7611 15.7089C78.2416 15.7089 78.9489 14.4401 78.9489 13.0082Z" fill="#005AAA"/>
<path d="M81.9099 9.70933C81.9041 9.58775 81.9244 9.46635 81.9694 9.3534C82.0145 9.24046 82.0831 9.13864 82.1708 9.05489C82.2584 8.97115 82.3629 8.90746 82.4772 8.86816C82.5915 8.82887 82.7129 8.8149 82.833 8.82721H85.0688C85.3477 8.80913 85.6273 8.84855 85.8906 8.94305C86.1538 9.03755 86.3952 9.18515 86.5999 9.37684C86.8047 9.56853 86.9685 9.80028 87.0815 10.0579C87.1944 10.3156 87.254 10.5938 87.2567 10.8754C87.2804 11.2413 87.1888 11.6054 86.9951 11.9157C86.8013 12.226 86.5153 12.4667 86.1777 12.6034C86.6611 12.6658 87.1059 12.9018 87.4307 13.268C87.7555 13.6342 87.9384 14.1061 87.946 14.5972C87.946 16.2527 86.8491 17.1469 85.2427 17.1469H82.845C82.7287 17.1568 82.6116 17.1428 82.5009 17.1058C82.3901 17.0688 82.2879 17.0095 82.2005 16.9316C82.1131 16.8537 82.0423 16.7587 81.9924 16.6524C81.9424 16.5461 81.9144 16.4307 81.9099 16.3131V9.70933ZM83.6602 12.1261H84.5713C84.6959 12.1388 84.8218 12.1238 84.9401 12.0822C85.0584 12.0406 85.1662 11.9734 85.2559 11.8853C85.3456 11.7971 85.4151 11.6903 85.4594 11.5722C85.5037 11.454 85.5218 11.3276 85.5124 11.2017C85.5116 11.0824 85.4857 10.9647 85.4366 10.8562C85.3875 10.7477 85.3161 10.6509 85.2273 10.5722C85.1384 10.4934 85.034 10.4345 84.921 10.3993C84.8079 10.3641 84.6887 10.3534 84.5713 10.3679H83.6602V12.1261ZM83.6602 15.6304H85.0329C85.1739 15.6451 85.3164 15.6292 85.4508 15.5839C85.5853 15.5386 85.7085 15.4648 85.8124 15.3676C85.9163 15.2703 85.9983 15.1518 86.0531 15.02C86.1078 14.8882 86.134 14.7461 86.1298 14.6033C86.1298 14.0535 85.7102 13.6789 84.895 13.6789H83.6602V15.6304Z" fill="#005AAA"/>
<path d="M88.7134 13.0082C88.7134 10.5914 90.3438 8.68823 92.7175 8.68823C95.0911 8.68823 96.7275 10.6216 96.7275 13.0082C96.7275 15.3947 95.1091 17.3281 92.7175 17.3281C90.3258 17.3281 88.7134 15.437 88.7134 13.0082ZM94.9113 13.0082C94.9113 11.5883 94.174 10.3075 92.7175 10.3075C91.2609 10.3075 90.5116 11.5883 90.5116 13.0082C90.5116 14.428 91.2189 15.7089 92.6995 15.7089C94.18 15.7089 94.8933 14.4401 94.8933 13.0082H94.9113Z" fill="#005AAA"/>
<path d="M102.398 9.66703C102.388 9.54546 102.403 9.42312 102.442 9.30774C102.482 9.19236 102.544 9.08644 102.626 8.99669C102.708 8.90693 102.808 8.83529 102.919 8.78628C103.029 8.73728 103.149 8.71198 103.27 8.71198C103.391 8.71198 103.511 8.73728 103.622 8.78628C103.733 8.83529 103.832 8.90693 103.914 8.99669C103.996 9.08644 104.059 9.19236 104.098 9.30774C104.137 9.42312 104.152 9.54546 104.142 9.66703V16.3131C104.152 16.4347 104.137 16.557 104.098 16.6724C104.059 16.7878 103.996 16.8937 103.914 16.9835C103.832 17.0732 103.733 17.1449 103.622 17.1939C103.511 17.2429 103.391 17.2682 103.27 17.2682C103.149 17.2682 103.029 17.2429 102.919 17.1939C102.808 17.1449 102.708 17.0732 102.626 16.9835C102.544 16.8937 102.482 16.7878 102.442 16.6724C102.403 16.557 102.388 16.4347 102.398 16.3131V14.3012H100.977C99.1432 14.3012 97.7346 13.1653 97.7346 11.4856V9.66703C97.7346 9.43068 97.8278 9.204 97.9936 9.03687C98.1594 8.86975 98.3843 8.77585 98.6187 8.77585C98.8532 8.77585 99.0781 8.86975 99.2439 9.03687C99.4097 9.204 99.5029 9.43068 99.5029 9.66703V11.3829C99.5029 12.1925 100.21 12.6759 101.109 12.6759H102.416V9.66703" fill="#005AAA"/>
<path d="M105.611 9.66703C105.611 9.55119 105.633 9.43648 105.677 9.32946C105.721 9.22243 105.786 9.12519 105.867 9.04328C105.948 8.96137 106.045 8.89639 106.151 8.85206C106.257 8.80773 106.371 8.78491 106.486 8.78491C106.601 8.78491 106.715 8.80773 106.821 8.85206C106.927 8.89639 107.024 8.96137 107.105 9.04328C107.186 9.12519 107.251 9.22243 107.295 9.32946C107.338 9.43648 107.361 9.55119 107.361 9.66703V12.1563H111.018V9.66703C111.018 9.55119 111.04 9.43648 111.084 9.32946C111.128 9.22243 111.193 9.12519 111.274 9.04328C111.355 8.96137 111.452 8.89639 111.558 8.85206C111.664 8.80773 111.778 8.78491 111.893 8.78491C112.008 8.78491 112.121 8.80773 112.228 8.85206C112.334 8.89639 112.43 8.96137 112.512 9.04328C112.593 9.12519 112.657 9.22243 112.701 9.32946C112.745 9.43648 112.768 9.55119 112.768 9.66703V16.3131C112.768 16.4289 112.745 16.5437 112.701 16.6507C112.657 16.7577 112.593 16.8549 112.512 16.9369C112.43 17.0188 112.334 17.0837 112.228 17.1281C112.121 17.1724 112.008 17.1952 111.893 17.1952C111.778 17.1952 111.664 17.1724 111.558 17.1281C111.452 17.0837 111.355 17.0188 111.274 16.9369C111.193 16.8549 111.128 16.7577 111.084 16.6507C111.04 16.5437 111.018 16.4289 111.018 16.3131V13.7816H107.361V16.3433C107.361 16.4592 107.338 16.5739 107.295 16.6809C107.251 16.7879 107.186 16.8852 107.105 16.9671C107.024 17.049 106.927 17.114 106.821 17.1583C106.715 17.2026 106.601 17.2254 106.486 17.2254C106.371 17.2254 106.257 17.2026 106.151 17.1583C106.045 17.114 105.948 17.049 105.867 16.9671C105.786 16.8852 105.721 16.7879 105.677 16.6809C105.633 16.5739 105.611 16.4592 105.611 16.3433V9.66703Z" fill="#005AAA"/>
<path d="M117.186 12.0234C118.876 12.0234 120.093 12.8209 120.093 14.5791C120.093 16.2406 119.002 17.1892 117.395 17.1892H115.165C115.046 17.1984 114.926 17.1825 114.813 17.1426C114.701 17.1026 114.597 17.0394 114.51 16.9571C114.422 16.8747 114.353 16.7749 114.306 16.664C114.259 16.5532 114.235 16.4337 114.236 16.3131V9.66703C114.226 9.54546 114.242 9.42312 114.281 9.30774C114.32 9.19236 114.383 9.08644 114.465 8.99669C114.547 8.90693 114.646 8.83529 114.757 8.78628C114.868 8.73728 114.988 8.71198 115.109 8.71198C115.23 8.71198 115.349 8.73728 115.46 8.78628C115.571 8.83529 115.67 8.90693 115.752 8.99669C115.834 9.08644 115.897 9.19236 115.936 9.30774C115.976 9.42312 115.991 9.54546 115.981 9.66703V12.0234H117.18M115.981 15.6485H117.18C117.323 15.6561 117.467 15.6335 117.602 15.5821C117.736 15.5307 117.859 15.4517 117.961 15.3499C118.064 15.2482 118.144 15.1261 118.198 14.9913C118.251 14.8565 118.276 14.712 118.27 14.567C118.27 14.0112 117.851 13.5761 117.072 13.5761H116.005L115.981 15.6485ZM121.921 8.76075C122.04 8.75433 122.158 8.77357 122.269 8.81718C122.38 8.86079 122.48 8.92776 122.563 9.0136C122.646 9.09944 122.709 9.20215 122.749 9.31486C122.79 9.42756 122.806 9.54764 122.796 9.66703V16.3131C122.806 16.4347 122.791 16.557 122.752 16.6724C122.712 16.7878 122.65 16.8937 122.568 16.9835C122.486 17.0732 122.386 17.1449 122.275 17.1939C122.165 17.2429 122.045 17.2682 121.924 17.2682C121.803 17.2682 121.683 17.2429 121.572 17.1939C121.461 17.1449 121.362 17.0732 121.28 16.9835C121.198 16.8937 121.135 16.7878 121.096 16.6724C121.057 16.557 121.042 16.4347 121.052 16.3131V9.66703C121.042 9.54817 121.058 9.42863 121.098 9.31637C121.138 9.20411 121.201 9.10171 121.283 9.01597C121.365 8.93024 121.465 8.86313 121.575 8.81912C121.685 8.77512 121.803 8.75522 121.921 8.76075Z" fill="#005AAA"/>
<path d="M124.271 9.84827C124.271 9.24408 124.558 8.82719 125.176 8.82719H128.065C128.175 8.8217 128.284 8.83985 128.387 8.88045C128.489 8.92104 128.581 8.98315 128.658 9.06262C128.735 9.14209 128.794 9.2371 128.831 9.34132C128.868 9.44554 128.883 9.55658 128.874 9.66702C128.877 9.77613 128.857 9.88461 128.816 9.98564C128.775 10.0867 128.714 10.1781 128.636 10.2541C128.559 10.3302 128.466 10.3892 128.365 10.4275C128.263 10.4658 128.155 10.4825 128.047 10.4766H125.997V12.1925H127.909C128.019 12.1841 128.129 12.1989 128.233 12.2359C128.337 12.273 128.432 12.3315 128.512 12.4077C128.592 12.4839 128.656 12.5762 128.699 12.6785C128.741 12.7809 128.762 12.8911 128.76 13.0021C128.761 13.1127 128.738 13.222 128.695 13.3236C128.652 13.4251 128.588 13.5166 128.508 13.5924C128.429 13.6683 128.334 13.7268 128.231 13.7646C128.128 13.8023 128.019 13.8184 127.909 13.8118H125.997V15.6243H128.155C128.263 15.6166 128.372 15.632 128.475 15.6696C128.577 15.7072 128.67 15.7662 128.748 15.8426C128.826 15.919 128.887 16.0112 128.928 16.1131C128.968 16.215 128.987 16.3243 128.982 16.4339C128.984 16.5428 128.963 16.6509 128.922 16.7515C128.881 16.8521 128.82 16.9432 128.742 17.019C128.665 17.0949 128.573 17.1539 128.472 17.1925C128.371 17.2311 128.263 17.2485 128.155 17.2435H125.158C125.037 17.2492 124.916 17.2286 124.803 17.1834C124.691 17.1381 124.589 17.0691 124.505 16.981C124.421 16.8929 124.357 16.7877 124.316 16.6726C124.276 16.5574 124.26 16.4348 124.271 16.3131V9.84827Z" fill="#005AAA"/>
<path d="M55.1461 26.3668H53.8873C53.781 26.3722 53.6747 26.3548 53.5755 26.3158C53.4763 26.2768 53.3864 26.2172 53.3117 26.1407C53.237 26.0643 53.1791 25.9728 53.142 25.8722C53.1048 25.7716 53.0892 25.6643 53.0961 25.5572C53.0969 25.4533 53.1179 25.3505 53.1581 25.2548C53.1983 25.1591 53.2568 25.0722 53.3303 24.9993C53.4038 24.9264 53.4908 24.8687 53.5863 24.8297C53.6819 24.7907 53.7842 24.771 53.8873 24.7718H58.1731C58.2793 24.7701 58.3847 24.7901 58.483 24.8307C58.5812 24.8712 58.6703 24.9314 58.7448 25.0077C58.8194 25.0839 58.8778 25.1746 58.9165 25.2743C58.9553 25.3739 58.9736 25.4804 58.9703 25.5874C58.9773 25.695 58.9615 25.8029 58.924 25.9039C58.8865 26.0049 58.8281 26.0968 58.7527 26.1733C58.6773 26.2499 58.5867 26.3094 58.4868 26.348C58.3868 26.3865 58.2799 26.4033 58.1731 26.397H56.9083V32.2879C56.9083 32.4037 56.8857 32.5184 56.8417 32.6254C56.7977 32.7325 56.7333 32.8297 56.652 32.9116C56.5708 32.9935 56.4743 33.0585 56.3681 33.1028C56.2619 33.1472 56.1481 33.17 56.0332 33.17C55.9183 33.17 55.8045 33.1472 55.6983 33.1028C55.5921 33.0585 55.4956 32.9935 55.4144 32.9116C55.3331 32.8297 55.2686 32.7325 55.2247 32.6254C55.1807 32.5184 55.158 32.4037 55.158 32.2879V26.3668" fill="#005AAA"/>
<path d="M59.7737 25.7687C59.7737 25.1645 60.0674 24.7415 60.6848 24.7415H63.574C63.6828 24.7347 63.7919 24.751 63.8941 24.7893C63.9964 24.8276 64.0895 24.8871 64.1675 24.964C64.2454 25.0409 64.3065 25.1334 64.3468 25.2356C64.387 25.3378 64.4056 25.4473 64.4012 25.5572C64.4029 25.6661 64.3825 25.7741 64.3413 25.8748C64.3 25.9754 64.2387 26.0664 64.1612 26.1423C64.0837 26.2181 63.9916 26.2772 63.8907 26.3158C63.7897 26.3544 63.6819 26.3718 63.574 26.3668H61.524V28.0767H63.4361C63.5457 28.0682 63.6558 28.083 63.7594 28.1201C63.8629 28.1572 63.9576 28.2158 64.0372 28.2921C64.1169 28.3684 64.1798 28.4607 64.2218 28.5631C64.2639 28.6654 64.2841 28.7755 64.2813 28.8863C64.2831 28.997 64.2623 29.1069 64.22 29.2092C64.1777 29.3114 64.1149 29.4037 64.0355 29.4803C63.9561 29.5568 63.8619 29.6161 63.7588 29.6542C63.6556 29.6924 63.5458 29.7086 63.4361 29.7019H61.524V31.5145H63.6759C63.7844 31.5068 63.8934 31.5222 63.9956 31.5598C64.0979 31.5974 64.1911 31.6564 64.2691 31.7328C64.3472 31.8092 64.4084 31.9014 64.4487 32.0033C64.489 32.1052 64.5076 32.2145 64.5031 32.3241C64.5057 32.4332 64.4859 32.5417 64.445 32.6428C64.404 32.7438 64.3428 32.8352 64.2651 32.9112C64.1874 32.9873 64.0949 33.0463 63.9936 33.0846C63.8922 33.1229 63.784 33.1396 63.6759 33.1337H60.6788C60.561 33.1405 60.4431 33.1225 60.3326 33.0809C60.2221 33.0392 60.1213 32.9749 60.0368 32.892C59.9522 32.809 59.8857 32.7093 59.8415 32.599C59.7972 32.4888 59.7762 32.3705 59.7797 32.2516V25.7687" fill="#005AAA"/>
<path d="M68.0396 28.6325L66.1515 26.0466C66.0328 25.902 65.9671 25.7207 65.9657 25.533C65.9629 25.4165 65.9843 25.3007 66.0284 25.1929C66.0725 25.0852 66.1383 24.9878 66.2218 24.9071C66.3052 24.8264 66.4044 24.7641 66.513 24.7242C66.6217 24.6842 66.7374 24.6675 66.8528 24.6751C67.0028 24.6865 67.1485 24.7315 67.2791 24.8067C67.4097 24.882 67.5221 24.9856 67.608 25.1101L69.0526 27.1885L70.4972 25.1222C70.5819 24.9965 70.694 24.8919 70.8249 24.8165C70.9558 24.7411 71.102 24.6969 71.2525 24.6872C71.3679 24.6796 71.4836 24.6963 71.5922 24.7363C71.7009 24.7762 71.8001 24.8385 71.8835 24.9192C71.967 24.9999 72.0328 25.0972 72.0769 25.205C72.121 25.3128 72.1424 25.4286 72.1396 25.5451C72.1353 25.7322 72.07 25.9127 71.9538 26.0587L70.0656 28.6446L72.3734 31.7683C72.4979 31.9451 72.5669 32.1556 72.5712 32.3725C72.5707 32.4865 72.5469 32.5992 72.5012 32.7035C72.4555 32.8078 72.3889 32.9014 72.3057 32.9786C72.2224 33.0557 72.1242 33.1147 72.0172 33.1518C71.9102 33.1889 71.7968 33.2033 71.6841 33.1942C71.5407 33.196 71.3992 33.1615 71.2725 33.094C71.1458 33.0264 71.038 32.9279 70.9588 32.8075L69.0526 30.1309L67.1345 32.7893C67.0566 32.911 66.9489 33.0104 66.8219 33.0781C66.695 33.1458 66.5528 33.1795 66.4092 33.176C66.2968 33.1852 66.1836 33.1708 66.077 33.1336C65.9703 33.0965 65.8725 33.0374 65.7897 32.9602C65.7068 32.8829 65.6408 32.7892 65.5958 32.6849C65.5508 32.5806 65.5277 32.4681 65.5281 32.3543C65.5293 32.137 65.5985 31.9255 65.7259 31.7501L68.0336 28.6265" fill="#005AAA"/>
<path d="M73.5601 25.5874C73.5601 25.3535 73.6523 25.1291 73.8164 24.9637C73.9805 24.7982 74.2031 24.7053 74.4352 24.7053C74.6673 24.7053 74.8899 24.7982 75.054 24.9637C75.2181 25.1291 75.3103 25.3535 75.3103 25.5874V28.0767H78.9668V25.5874C78.9568 25.4658 78.9719 25.3435 79.0112 25.2281C79.0505 25.1127 79.1131 25.0068 79.195 24.9171C79.277 24.8273 79.3765 24.7557 79.4874 24.7067C79.5982 24.6577 79.7179 24.6324 79.8389 24.6324C79.96 24.6324 80.0797 24.6577 80.1905 24.7067C80.3013 24.7557 80.4009 24.8273 80.4828 24.9171C80.5648 25.0068 80.6274 25.1127 80.6667 25.2281C80.706 25.3435 80.7211 25.4658 80.7111 25.5874V32.2335C80.7211 32.3551 80.706 32.4774 80.6667 32.5928C80.6274 32.7082 80.5648 32.8141 80.4828 32.9038C80.4009 32.9936 80.3013 33.0652 80.1905 33.1142C80.0797 33.1632 79.96 33.1885 79.8389 33.1885C79.7179 33.1885 79.5982 33.1632 79.4874 33.1142C79.3765 33.0652 79.277 32.9936 79.195 32.9038C79.1131 32.8141 79.0505 32.7082 79.0112 32.5928C78.9719 32.4774 78.9568 32.3551 78.9668 32.2335V29.7019H75.3103V32.2577C75.3103 32.4916 75.2181 32.716 75.054 32.8814C74.8899 33.0468 74.6673 33.1398 74.4352 33.1398C74.2031 33.1398 73.9805 33.0468 73.8164 32.8814C73.6523 32.716 73.5601 32.4916 73.5601 32.2577V25.6116" fill="#005AAA"/>
<path d="M81.856 28.9226C81.856 26.5058 83.4924 24.6026 85.866 24.6026C88.2397 24.6026 89.8701 26.542 89.8701 28.9226C89.8701 31.3031 88.2517 33.2304 85.866 33.2304C83.4804 33.2304 81.856 31.3393 81.856 28.9044M88.0539 28.9044C88.0539 27.4846 87.3226 26.2037 85.866 26.2037C84.4095 26.2037 83.6782 27.4846 83.6782 28.9044C83.6782 30.3243 84.3855 31.6052 85.866 31.6052C87.3466 31.6052 88.0539 30.3545 88.0539 28.9226V28.9044Z" fill="#005AAA"/>
<path d="M96.4518 33.176C96.3325 33.1818 96.2134 33.1616 96.1026 33.1169C95.9917 33.0721 95.8917 33.0039 95.8092 32.9168C95.7268 32.8297 95.6639 32.7258 95.6248 32.6121C95.5857 32.4984 95.5714 32.3775 95.5827 32.2577V26.2943H93.2749V28.9225C93.2749 30.2517 92.9153 31.7562 91.9682 32.5779C91.5966 32.9449 91.1033 33.1601 90.5835 33.1821C90.477 33.1884 90.3703 33.1717 90.2706 33.1331C90.171 33.0944 90.0807 33.0348 90.0058 32.9581C89.9309 32.8815 89.873 32.7896 89.8362 32.6885C89.7994 32.5875 89.7845 32.4798 89.7923 32.3725C89.7923 31.9616 89.9901 31.7683 90.4457 31.5508C90.9012 31.3332 91.5246 30.5961 91.5246 29.285V25.6599C91.5196 25.5424 91.5387 25.4252 91.5808 25.3155C91.623 25.2059 91.6871 25.1062 91.7693 25.0228C91.8516 24.9393 91.95 24.874 92.0585 24.8308C92.167 24.7876 92.2832 24.7675 92.3998 24.7718H96.4518C96.5711 24.7671 96.69 24.788 96.8006 24.833C96.9113 24.878 97.0113 24.9461 97.0939 25.0329C97.1766 25.1196 97.2401 25.2231 97.2803 25.3363C97.3205 25.4496 97.3364 25.5702 97.327 25.6901V32.2577C97.3373 32.3778 97.3221 32.4988 97.2823 32.6125C97.2425 32.7262 97.179 32.8301 97.0962 32.917C97.0133 33.004 96.9129 33.0721 96.8018 33.1168C96.6907 33.1614 96.5713 33.1816 96.4518 33.176Z" fill="#005AAA"/>
<path d="M98.4719 28.9226C98.4719 26.5058 100.102 24.6026 102.476 24.6026C104.85 24.6026 106.486 26.542 106.486 28.9226C106.486 31.3031 104.898 33.2304 102.5 33.2304C100.102 33.2304 98.4959 31.3393 98.4959 28.9044M104.694 28.9044C104.694 27.4846 103.957 26.2037 102.5 26.2037C101.043 26.2037 100.312 27.4846 100.312 28.9044C100.312 30.3243 101.025 31.6052 102.5 31.6052C103.975 31.6052 104.67 30.3545 104.67 28.9226L104.694 28.9044Z" fill="#005AAA"/>
<path d="M107.631 25.6599C107.63 25.5404 107.653 25.422 107.699 25.3119C107.745 25.2017 107.812 25.1021 107.898 25.019C107.983 24.936 108.084 24.8712 108.195 24.8287C108.305 24.7862 108.424 24.7668 108.542 24.7717H111.539C111.741 24.7893 111.929 24.8825 112.066 25.033C112.203 25.1834 112.279 25.3802 112.279 25.5844C112.279 25.7886 112.203 25.9853 112.066 26.1358C111.929 26.2862 111.741 26.3795 111.539 26.397H109.393V32.2879C109.403 32.4094 109.388 32.5318 109.349 32.6471C109.309 32.7625 109.247 32.8684 109.165 32.9582C109.083 33.048 108.983 33.1196 108.873 33.1686C108.762 33.2176 108.642 33.2429 108.521 33.2429C108.4 33.2429 108.28 33.2176 108.169 33.1686C108.059 33.1196 107.959 33.048 107.877 32.9582C107.795 32.8684 107.733 32.7625 107.693 32.6471C107.654 32.5318 107.639 32.4094 107.649 32.2879V25.6599" fill="#005AAA"/>
<path d="M119.499 33.176C119.38 33.1818 119.261 33.1616 119.15 33.1169C119.039 33.0722 118.939 33.0039 118.857 32.9168C118.774 32.8298 118.711 32.7258 118.672 32.6121C118.633 32.4984 118.619 32.3775 118.63 32.2577V27.8773L114.854 32.7893C114.766 32.9022 114.655 32.9951 114.529 33.0617C114.403 33.1284 114.265 33.1673 114.122 33.176C114.003 33.1817 113.884 33.1615 113.772 33.1168C113.661 33.0721 113.561 33.004 113.478 32.917C113.395 32.8301 113.332 32.7262 113.292 32.6125C113.252 32.4988 113.237 32.3778 113.247 32.2577V25.6116C113.237 25.49 113.252 25.3677 113.292 25.2523C113.331 25.1369 113.394 25.031 113.476 24.9412C113.558 24.8515 113.657 24.7798 113.768 24.7308C113.879 24.6818 113.998 24.6565 114.119 24.6565C114.24 24.6565 114.36 24.6818 114.471 24.7308C114.582 24.7798 114.681 24.8515 114.763 24.9412C114.845 25.031 114.908 25.1369 114.947 25.2523C114.986 25.3677 115.002 25.49 114.992 25.6116V30.0282L118.768 25.0618C118.855 24.9483 118.966 24.8551 119.092 24.7884C119.218 24.7216 119.357 24.683 119.499 24.6751C119.618 24.6686 119.738 24.6879 119.849 24.7319C119.96 24.7759 120.06 24.8434 120.143 24.9299C120.226 25.0164 120.29 25.1199 120.33 25.2333C120.37 25.3468 120.385 25.4675 120.374 25.5874V32.2335C120.385 32.3536 120.37 32.4746 120.33 32.5883C120.29 32.7021 120.226 32.8059 120.144 32.8929C120.061 32.9798 119.96 33.0479 119.849 33.0926C119.738 33.1373 119.619 33.1575 119.499 33.1519" fill="#005AAA"/>
<path d="M128.125 33.176C128.005 33.1818 127.886 33.1616 127.776 33.1169C127.665 33.0722 127.565 33.0039 127.482 32.9168C127.4 32.8298 127.337 32.7258 127.298 32.6121C127.259 32.4984 127.244 32.3775 127.256 32.2577V27.8773H127.226L123.479 32.7893C123.39 32.9024 123.279 32.9953 123.152 33.0619C123.025 33.1285 122.885 33.1674 122.742 33.176C122.623 33.1818 122.504 33.1616 122.393 33.1169C122.282 33.0722 122.182 33.0039 122.099 32.9168C122.017 32.8298 121.954 32.7258 121.915 32.6121C121.876 32.4984 121.862 32.3775 121.873 32.2577V25.6116C121.863 25.49 121.878 25.3677 121.917 25.2523C121.957 25.1369 122.019 25.031 122.101 24.9412C122.183 24.8515 122.283 24.7798 122.393 24.7308C122.504 24.6818 122.624 24.6565 122.745 24.6565C122.866 24.6565 122.986 24.6818 123.097 24.7308C123.207 24.7798 123.307 24.8515 123.389 24.9412C123.471 25.031 123.533 25.1369 123.573 25.2523C123.612 25.3677 123.627 25.49 123.617 25.6116V30.0282L127.393 25.0618C127.481 24.948 127.591 24.8546 127.717 24.7878C127.843 24.7211 127.982 24.6826 128.125 24.6751C128.244 24.6686 128.363 24.6879 128.474 24.7319C128.585 24.7759 128.686 24.8434 128.769 24.9299C128.852 25.0164 128.915 25.1199 128.955 25.2333C128.995 25.3468 129.01 25.4675 129 25.5874V32.2335C129.01 32.3536 128.995 32.4746 128.955 32.5883C128.915 32.7021 128.852 32.8059 128.769 32.8929C128.686 32.9798 128.586 33.0479 128.475 33.0926C128.364 33.1373 128.244 33.1575 128.125 33.1519" fill="#005AAA"/>
<path fill-rule="evenodd" clip-rule="evenodd" d="M37.6373 6.56038e-06H37.5894C36.8442 -0.00160671 36.1288 0.294378 35.5997 0.823181C35.0706 1.35198 34.7709 2.07053 34.7661 2.82157C34.7708 3.56947 35.0681 4.28529 35.5933 4.81358C36.1186 5.34187 36.8294 5.63996 37.5714 5.64313H37.6193C38.3577 5.63368 39.063 5.33299 39.5841 4.80554C40.1051 4.2781 40.4004 3.56587 40.4066 2.82157C40.402 2.07988 40.1097 1.36944 39.5922 0.842158C39.0747 0.314879 38.373 0.0126169 37.6373 6.56038e-06ZM37.6373 5.19603C37.3208 5.2122 37.0042 5.16332 36.707 5.05236C36.4098 4.94139 36.1381 4.77066 35.9083 4.55055C35.6786 4.33043 35.4957 4.06553 35.3707 3.77194C35.2457 3.47834 35.1813 3.1622 35.1813 2.84272C35.1813 2.52323 35.2457 2.20709 35.3707 1.9135C35.4957 1.6199 35.6786 1.355 35.9083 1.13488C36.1381 0.914767 36.4098 0.744037 36.707 0.633073C37.0042 0.522109 37.3208 0.473227 37.6373 0.4894C37.9539 0.473227 38.2704 0.522109 38.5676 0.633073C38.8648 0.744037 39.1366 0.914767 39.3663 1.13488C39.596 1.355 39.7789 1.6199 39.9039 1.9135C40.0289 2.20709 40.0934 2.52323 40.0934 2.84272C40.0934 3.1622 40.0289 3.47834 39.9039 3.77194C39.7789 4.06553 39.596 4.33043 39.3663 4.55055C39.1366 4.77066 38.8648 4.94139 38.5676 5.05236C38.2704 5.16332 37.9539 5.2122 37.6373 5.19603Z" fill="#005AAA"/>
<path fill-rule="evenodd" clip-rule="evenodd" d="M38.4585 3.29284C38.359 3.19012 38.2484 3.09892 38.1288 3.02095C38.3567 2.99576 38.5688 2.89103 38.7282 2.7249C38.8736 2.58137 38.9575 2.3862 38.962 2.18113C38.9575 2.00702 38.9101 1.83678 38.8241 1.6857C38.734 1.55686 38.6061 1.45968 38.4585 1.40777C38.2292 1.3293 37.9869 1.29647 37.7452 1.3111H36.4504V4.39246H37.0499V3.0995H37.1637C37.2709 3.09515 37.378 3.10737 37.4814 3.13575C37.5367 3.16142 37.5873 3.19613 37.6313 3.23846H37.6673L37.9909 3.6916L38.4285 4.36829H39.1658L38.8001 3.76411C38.7008 3.58403 38.5843 3.41407 38.4525 3.25659M37.6373 2.60406H37.0379V1.84883H37.967C38.0595 1.85583 38.1456 1.89923 38.2067 1.96966C38.236 2.00205 38.2581 2.04035 38.2716 2.08203C38.285 2.1237 38.2895 2.16779 38.2846 2.21134C38.286 2.29314 38.2675 2.37404 38.2307 2.44697C38.1795 2.50202 38.1157 2.54353 38.0449 2.56781C37.9104 2.5925 37.774 2.60463 37.6373 2.60406Z" fill="#005AAA"/>
</g>
<defs>
<clipPath id="clip0_133_3770">
<rect width="129" height="45" fill="white"/>
</clipPath>
</defs>
</svg>
